{
	"patcher" : 	{
		"fileversion" : 1,
		"rect" : [ 654.0, 128.0, 640.0, 506.0 ],
		"bglocked" : 0,
		"defrect" : [ 654.0, 128.0, 640.0, 506.0 ],
		"openrect" : [ 0.0, 0.0, 0.0, 0.0 ],
		"openinpresentation" : 0,
		"default_fontsize" : 12.0,
		"default_fontface" : 0,
		"default_fontname" : "Arial",
		"gridonopen" : 0,
		"gridsize" : [ 15.0, 15.0 ],
		"gridsnaponopen" : 0,
		"toolbarvisible" : 1,
		"boxanimatetime" : 200,
		"imprint" : 0,
		"enablehscroll" : 1,
		"enablevscroll" : 1,
		"boxes" : [ 			{
				"box" : 				{
					"maxclass" : "newobj",
					"text" : "vksc_screen 2",
					"numoutlets" : 0,
					"fontsize" : 12.0,
					"patching_rect" : [ 236.0, 198.0, 87.0, 20.0 ],
					"id" : "obj-4",
					"fontname" : "Arial",
					"numinlets" : 0
				}

			}
, 			{
				"box" : 				{
					"maxclass" : "newobj",
					"text" : "vksc_screen 1",
					"numoutlets" : 0,
					"fontsize" : 12.0,
					"patching_rect" : [ 147.0, 198.0, 87.0, 20.0 ],
					"id" : "obj-2",
					"fontname" : "Arial",
					"numinlets" : 0
				}

			}
, 			{
				"box" : 				{
					"maxclass" : "newobj",
					"text" : "vksc_screen 0",
					"numoutlets" : 0,
					"fontsize" : 12.0,
					"patching_rect" : [ 58.0, 198.0, 87.0, 20.0 ],
					"id" : "obj-1",
					"fontname" : "Arial",
					"numinlets" : 0
				}

			}
, 			{
				"box" : 				{
					"maxclass" : "newobj",
					"text" : "p trapezcontrol.rotary",
					"numoutlets" : 0,
					"fontsize" : 12.0,
					"hidden" : 1,
					"patching_rect" : [ 115.0, 54.0, 124.0, 20.0 ],
					"id" : "obj-13",
					"fontname" : "Arial",
					"numinlets" : 0,
					"patcher" : 					{
						"fileversion" : 1,
						"rect" : [ 68.0, 271.0, 973.0, 636.0 ],
						"bglocked" : 0,
						"defrect" : [ 68.0, 271.0, 973.0, 636.0 ],
						"openrect" : [ 0.0, 0.0, 0.0, 0.0 ],
						"openinpresentation" : 0,
						"default_fontsize" : 12.0,
						"default_fontface" : 0,
						"default_fontname" : "Arial",
						"gridonopen" : 0,
						"gridsize" : [ 15.0, 15.0 ],
						"gridsnaponopen" : 0,
						"toolbarvisible" : 1,
						"boxanimatetime" : 200,
						"imprint" : 0,
						"enablehscroll" : 1,
						"enablevscroll" : 1,
						"boxes" : [ 							{
								"box" : 								{
									"maxclass" : "newobj",
									"text" : "hi.in gc @usagepage buttons @idx 6",
									"numoutlets" : 2,
									"fontsize" : 12.0,
									"presentation_rect" : [ 266.0, 436.0, 0.0, 0.0 ],
									"outlettype" : [ "int", "" ],
									"patching_rect" : [ 266.0, 436.0, 207.0, 20.0 ],
									"id" : "obj-5",
									"fontname" : "Arial",
									"numinlets" : 1
								}

							}
, 							{
								"box" : 								{
									"maxclass" : "newobj",
									"text" : "hi.in gc @usagepage buttons @idx 5",
									"numoutlets" : 2,
									"fontsize" : 12.0,
									"outlettype" : [ "int", "" ],
									"patching_rect" : [ 35.0, 436.0, 207.0, 20.0 ],
									"id" : "obj-3",
									"fontname" : "Arial",
									"numinlets" : 1
								}

							}
, 							{
								"box" : 								{
									"maxclass" : "newobj",
									"text" : "hi.in gc @usage dial @idx 7",
									"numoutlets" : 2,
									"fontsize" : 12.0,
									"outlettype" : [ "int", "" ],
									"patching_rect" : [ 344.0, 90.0, 160.0, 20.0 ],
									"id" : "obj-48",
									"fontname" : "Arial",
									"numinlets" : 1
								}

							}
, 							{
								"box" : 								{
									"maxclass" : "newobj",
									"text" : "hi.in gc @usage dial @idx 6",
									"numoutlets" : 2,
									"fontsize" : 12.0,
									"outlettype" : [ "int", "" ],
									"patching_rect" : [ 319.0, 65.0, 160.0, 20.0 ],
									"id" : "obj-49",
									"fontname" : "Arial",
									"numinlets" : 1
								}

							}
, 							{
								"box" : 								{
									"maxclass" : "newobj",
									"text" : "hi.in gc @usage dial @idx 5",
									"numoutlets" : 2,
									"fontsize" : 12.0,
									"outlettype" : [ "int", "" ],
									"patching_rect" : [ 303.0, 39.0, 160.0, 20.0 ],
									"id" : "obj-50",
									"fontname" : "Arial",
									"numinlets" : 1
								}

							}
, 							{
								"box" : 								{
									"maxclass" : "newobj",
									"text" : "hi.in gc @usage dial @idx 4",
									"numoutlets" : 2,
									"fontsize" : 12.0,
									"outlettype" : [ "int", "" ],
									"patching_rect" : [ 283.0, 15.0, 160.0, 20.0 ],
									"id" : "obj-51",
									"fontname" : "Arial",
									"numinlets" : 1
								}

							}
, 							{
								"box" : 								{
									"maxclass" : "newobj",
									"text" : "hi.in gc @usage dial @idx 3",
									"numoutlets" : 2,
									"fontsize" : 12.0,
									"outlettype" : [ "int", "" ],
									"patching_rect" : [ 128.0, 90.0, 160.0, 20.0 ],
									"id" : "obj-47",
									"fontname" : "Arial",
									"numinlets" : 1
								}

							}
, 							{
								"box" : 								{
									"maxclass" : "newobj",
									"text" : "hi.in gc @usagepage buttons @idx 1",
									"numoutlets" : 2,
									"fontsize" : 12.0,
									"outlettype" : [ "int", "" ],
									"patching_rect" : [ 35.0, 345.0, 207.0, 20.0 ],
									"id" : "obj-46",
									"fontname" : "Arial",
									"numinlets" : 1
								}

							}
, 							{
								"box" : 								{
									"maxclass" : "newobj",
									"text" : "hi.in gc @usagepage buttons @idx 3",
									"numoutlets" : 2,
									"fontsize" : 12.0,
									"outlettype" : [ "int", "" ],
									"patching_rect" : [ 637.0, 87.0, 207.0, 20.0 ],
									"id" : "obj-45",
									"fontname" : "Arial",
									"numinlets" : 1
								}

							}
, 							{
								"box" : 								{
									"maxclass" : "newobj",
									"text" : "hi.in gc @usagepage buttons @idx 2",
									"numoutlets" : 2,
									"fontsize" : 12.0,
									"outlettype" : [ "int", "" ],
									"patching_rect" : [ 248.0, 344.0, 207.0, 20.0 ],
									"id" : "obj-44",
									"fontname" : "Arial",
									"numinlets" : 1
								}

							}
, 							{
								"box" : 								{
									"maxclass" : "newobj",
									"text" : "hi.in gc @usage dial @idx 2",
									"numoutlets" : 2,
									"fontsize" : 12.0,
									"outlettype" : [ "int", "" ],
									"patching_rect" : [ 103.0, 65.0, 160.0, 20.0 ],
									"id" : "obj-21",
									"fontname" : "Arial",
									"numinlets" : 1
								}

							}
, 							{
								"box" : 								{
									"maxclass" : "newobj",
									"text" : "hi.in gc @usage dial @idx 1",
									"numoutlets" : 2,
									"fontsize" : 12.0,
									"outlettype" : [ "int", "" ],
									"patching_rect" : [ 54.0, 42.0, 160.0, 20.0 ],
									"id" : "obj-20",
									"fontname" : "Arial",
									"numinlets" : 1
								}

							}
, 							{
								"box" : 								{
									"maxclass" : "newobj",
									"text" : "hi.in gc @usage dial @idx 0",
									"numoutlets" : 2,
									"fontsize" : 12.0,
									"outlettype" : [ "int", "" ],
									"patching_rect" : [ 24.0, 19.0, 160.0, 20.0 ],
									"id" : "obj-14",
									"fontname" : "Arial",
									"numinlets" : 1
								}

							}
, 							{
								"box" : 								{
									"maxclass" : "newobj",
									"text" : "hi.dev gc @product www.anyma.ch gnusbcoder",
									"numoutlets" : 1,
									"fontsize" : 12.0,
									"outlettype" : [ "" ],
									"patching_rect" : [ 491.0, 22.0, 265.0, 20.0 ],
									"id" : "obj-13",
									"fontname" : "Arial",
									"numinlets" : 1
								}

							}
, 							{
								"box" : 								{
									"maxclass" : "newobj",
									"text" : "s all_screens",
									"numoutlets" : 0,
									"fontsize" : 12.0,
									"patching_rect" : [ 541.0, 351.0, 81.0, 20.0 ],
									"id" : "obj-39",
									"fontname" : "Arial",
									"numinlets" : 1
								}

							}
, 							{
								"box" : 								{
									"maxclass" : "newobj",
									"text" : "togedge",
									"numoutlets" : 2,
									"fontsize" : 12.0,
									"outlettype" : [ "bang", "bang" ],
									"patching_rect" : [ 274.0, 463.0, 54.0, 20.0 ],
									"id" : "obj-35",
									"fontname" : "Arial",
									"numinlets" : 1
								}

							}
, 							{
								"box" : 								{
									"maxclass" : "message",
									"text" : "reset 2",
									"numoutlets" : 1,
									"fontsize" : 12.0,
									"outlettype" : [ "" ],
									"patching_rect" : [ 274.0, 487.0, 47.0, 18.0 ],
									"id" : "obj-36",
									"fontname" : "Arial",
									"numinlets" : 2
								}

							}
, 							{
								"box" : 								{
									"maxclass" : "newobj",
									"text" : "togedge",
									"numoutlets" : 2,
									"fontsize" : 12.0,
									"outlettype" : [ "bang", "bang" ],
									"patching_rect" : [ 34.0, 462.0, 54.0, 20.0 ],
									"id" : "obj-37",
									"fontname" : "Arial",
									"numinlets" : 1
								}

							}
, 							{
								"box" : 								{
									"maxclass" : "message",
									"text" : "reset 1",
									"numoutlets" : 1,
									"fontsize" : 12.0,
									"outlettype" : [ "" ],
									"patching_rect" : [ 34.0, 485.0, 47.0, 18.0 ],
									"id" : "obj-38",
									"fontname" : "Arial",
									"numinlets" : 2
								}

							}
, 							{
								"box" : 								{
									"maxclass" : "newobj",
									"text" : "togedge",
									"numoutlets" : 2,
									"fontsize" : 12.0,
									"outlettype" : [ "bang", "bang" ],
									"patching_rect" : [ 248.0, 366.0, 54.0, 20.0 ],
									"id" : "obj-33",
									"fontname" : "Arial",
									"numinlets" : 1
								}

							}
, 							{
								"box" : 								{
									"maxclass" : "message",
									"text" : "reset 3",
									"numoutlets" : 1,
									"fontsize" : 12.0,
									"outlettype" : [ "" ],
									"patching_rect" : [ 248.0, 389.0, 47.0, 18.0 ],
									"id" : "obj-34",
									"fontname" : "Arial",
									"numinlets" : 2
								}

							}
, 							{
								"box" : 								{
									"maxclass" : "newobj",
									"text" : "togedge",
									"numoutlets" : 2,
									"fontsize" : 12.0,
									"outlettype" : [ "bang", "bang" ],
									"patching_rect" : [ 35.0, 369.0, 54.0, 20.0 ],
									"id" : "obj-30",
									"fontname" : "Arial",
									"numinlets" : 1
								}

							}
, 							{
								"box" : 								{
									"maxclass" : "message",
									"text" : "reset 0",
									"numoutlets" : 1,
									"fontsize" : 12.0,
									"outlettype" : [ "" ],
									"patching_rect" : [ 35.0, 392.0, 47.0, 18.0 ],
									"id" : "obj-29",
									"fontname" : "Arial",
									"numinlets" : 2
								}

							}
, 							{
								"box" : 								{
									"maxclass" : "message",
									"text" : "testimage $1",
									"numoutlets" : 1,
									"fontsize" : 12.0,
									"outlettype" : [ "" ],
									"patching_rect" : [ 426.0, 338.0, 79.0, 18.0 ],
									"id" : "obj-24",
									"fontname" : "Arial",
									"numinlets" : 2
								}

							}
, 							{
								"box" : 								{
									"maxclass" : "newobj",
									"text" : "t 1",
									"numoutlets" : 1,
									"fontsize" : 12.0,
									"outlettype" : [ "int" ],
									"patching_rect" : [ 425.0, 315.0, 24.0, 20.0 ],
									"id" : "obj-25",
									"fontname" : "Arial",
									"numinlets" : 1
								}

							}
, 							{
								"box" : 								{
									"maxclass" : "message",
									"text" : "testimage $1",
									"numoutlets" : 1,
									"fontsize" : 12.0,
									"outlettype" : [ "" ],
									"patching_rect" : [ 541.0, 325.0, 79.0, 18.0 ],
									"id" : "obj-22",
									"fontname" : "Arial",
									"numinlets" : 2
								}

							}
, 							{
								"box" : 								{
									"maxclass" : "newobj",
									"text" : "t 0",
									"numoutlets" : 1,
									"fontsize" : 12.0,
									"outlettype" : [ "int" ],
									"patching_rect" : [ 541.0, 295.0, 24.0, 20.0 ],
									"id" : "obj-19",
									"fontname" : "Arial",
									"numinlets" : 1
								}

							}
, 							{
								"box" : 								{
									"maxclass" : "newobj",
									"text" : "t b i b",
									"numoutlets" : 3,
									"fontsize" : 12.0,
									"outlettype" : [ "bang", "int", "bang" ],
									"patching_rect" : [ 503.0, 265.0, 46.0, 20.0 ],
									"id" : "obj-18",
									"fontname" : "Arial",
									"numinlets" : 1
								}

							}
, 							{
								"box" : 								{
									"maxclass" : "message",
									"text" : "nudge 2 1 $1",
									"numoutlets" : 1,
									"fontsize" : 12.0,
									"outlettype" : [ "" ],
									"patching_rect" : [ 344.0, 113.571426, 81.0, 18.0 ],
									"id" : "obj-9",
									"fontname" : "Arial",
									"numinlets" : 2
								}

							}
, 							{
								"box" : 								{
									"maxclass" : "message",
									"text" : "nudge 2 0 $1",
									"numoutlets" : 1,
									"fontsize" : 12.0,
									"outlettype" : [ "" ],
									"patching_rect" : [ 319.0, 136.571426, 81.0, 18.0 ],
									"id" : "obj-10",
									"fontname" : "Arial",
									"numinlets" : 2
								}

							}
, 							{
								"box" : 								{
									"maxclass" : "message",
									"text" : "nudge 1 1 $1",
									"numoutlets" : 1,
									"fontsize" : 12.0,
									"outlettype" : [ "" ],
									"patching_rect" : [ 303.0, 166.571426, 81.0, 18.0 ],
									"id" : "obj-11",
									"fontname" : "Arial",
									"numinlets" : 2
								}

							}
, 							{
								"box" : 								{
									"maxclass" : "message",
									"text" : "nudge 1 0 $1",
									"numoutlets" : 1,
									"fontsize" : 12.0,
									"outlettype" : [ "" ],
									"patching_rect" : [ 283.0, 190.0, 81.0, 18.0 ],
									"id" : "obj-12",
									"fontname" : "Arial",
									"numinlets" : 2
								}

							}
, 							{
								"box" : 								{
									"maxclass" : "message",
									"text" : "nudge 3 1 $1",
									"numoutlets" : 1,
									"fontsize" : 12.0,
									"outlettype" : [ "" ],
									"patching_rect" : [ 127.0, 200.571426, 81.0, 18.0 ],
									"id" : "obj-2",
									"fontname" : "Arial",
									"numinlets" : 2
								}

							}
, 							{
								"box" : 								{
									"maxclass" : "message",
									"text" : "nudge 3 0 $1",
									"numoutlets" : 1,
									"fontsize" : 12.0,
									"outlettype" : [ "" ],
									"patching_rect" : [ 103.0, 172.571426, 81.0, 18.0 ],
									"id" : "obj-6",
									"fontname" : "Arial",
									"numinlets" : 2
								}

							}
, 							{
								"box" : 								{
									"maxclass" : "message",
									"text" : "nudge 0 1 $1",
									"numoutlets" : 1,
									"fontsize" : 12.0,
									"outlettype" : [ "" ],
									"patching_rect" : [ 54.0, 147.571426, 81.0, 18.0 ],
									"id" : "obj-32",
									"fontname" : "Arial",
									"numinlets" : 2
								}

							}
, 							{
								"box" : 								{
									"maxclass" : "newobj",
									"text" : "forward",
									"numoutlets" : 0,
									"fontsize" : 12.0,
									"patching_rect" : [ 813.0, 566.0, 51.0, 20.0 ],
									"id" : "obj-31",
									"fontname" : "Arial",
									"numinlets" : 1
								}

							}
, 							{
								"box" : 								{
									"maxclass" : "newobj",
									"text" : "loadmess 0",
									"numoutlets" : 1,
									"fontsize" : 12.0,
									"outlettype" : [ "" ],
									"patching_rect" : [ 504.0, 313.0, 72.0, 20.0 ],
									"id" : "obj-28",
									"fontname" : "Arial",
									"numinlets" : 1
								}

							}
, 							{
								"box" : 								{
									"maxclass" : "newobj",
									"text" : "sprintf send %d_screen_control",
									"numoutlets" : 1,
									"fontsize" : 12.0,
									"outlettype" : [ "" ],
									"patching_rect" : [ 508.0, 335.0, 179.0, 20.0 ],
									"id" : "obj-27",
									"fontname" : "Arial",
									"numinlets" : 1
								}

							}
, 							{
								"box" : 								{
									"maxclass" : "newobj",
									"text" : "p select_channel",
									"numoutlets" : 1,
									"fontsize" : 12.0,
									"outlettype" : [ "int" ],
									"patching_rect" : [ 539.0, 201.0, 101.0, 20.0 ],
									"id" : "obj-26",
									"fontname" : "Arial",
									"numinlets" : 0,
									"patcher" : 									{
										"fileversion" : 1,
										"rect" : [ 29.0, 69.0, 640.0, 480.0 ],
										"bglocked" : 0,
										"defrect" : [ 29.0, 69.0, 640.0, 480.0 ],
										"openrect" : [ 0.0, 0.0, 0.0, 0.0 ],
										"openinpresentation" : 0,
										"default_fontsize" : 12.0,
										"default_fontface" : 0,
										"default_fontname" : "Arial",
										"gridonopen" : 0,
										"gridsize" : [ 15.0, 15.0 ],
										"gridsnaponopen" : 0,
										"toolbarvisible" : 1,
										"boxanimatetime" : 200,
										"imprint" : 0,
										"enablehscroll" : 1,
										"enablevscroll" : 1,
										"boxes" : [ 											{
												"box" : 												{
													"maxclass" : "newobj",
													"text" : "hi.in gc @usagepage buttons @idx 0",
													"numoutlets" : 2,
													"fontsize" : 12.0,
													"outlettype" : [ "int", "" ],
													"patching_rect" : [ 74.0, 50.0, 207.0, 20.0 ],
													"id" : "obj-43",
													"fontname" : "Arial",
													"numinlets" : 1
												}

											}
, 											{
												"box" : 												{
													"maxclass" : "newobj",
													"text" : "hi.in gc @usagepage buttons @idx 4",
													"numoutlets" : 2,
													"fontsize" : 12.0,
													"outlettype" : [ "int", "" ],
													"patching_rect" : [ 291.0, 50.0, 207.0, 20.0 ],
													"id" : "obj-40",
													"fontname" : "Arial",
													"numinlets" : 1
												}

											}
, 											{
												"box" : 												{
													"maxclass" : "newobj",
													"text" : "i",
													"numoutlets" : 1,
													"fontsize" : 12.0,
													"outlettype" : [ "int" ],
													"patching_rect" : [ 51.0, 374.0, 32.5, 20.0 ],
													"id" : "obj-21",
													"fontname" : "Arial",
													"numinlets" : 2
												}

											}
, 											{
												"box" : 												{
													"maxclass" : "newobj",
													"text" : "+ 3",
													"numoutlets" : 1,
													"fontsize" : 12.0,
													"outlettype" : [ "int" ],
													"patching_rect" : [ 75.0, 333.0, 32.5, 20.0 ],
													"id" : "obj-20",
													"fontname" : "Arial",
													"numinlets" : 2
												}

											}
, 											{
												"box" : 												{
													"maxclass" : "newobj",
													"text" : "gate 2",
													"numoutlets" : 2,
													"fontsize" : 12.0,
													"outlettype" : [ "", "" ],
													"patching_rect" : [ 50.0, 305.0, 44.0, 20.0 ],
													"id" : "obj-19",
													"fontname" : "Arial",
													"numinlets" : 2
												}

											}
, 											{
												"box" : 												{
													"maxclass" : "newobj",
													"text" : "+ 1",
													"numoutlets" : 1,
													"fontsize" : 12.0,
													"outlettype" : [ "int" ],
													"patching_rect" : [ 94.0, 271.0, 32.5, 20.0 ],
													"id" : "obj-18",
													"fontname" : "Arial",
													"numinlets" : 2
												}

											}
, 											{
												"box" : 												{
													"maxclass" : "newobj",
													"text" : "< 0",
													"numoutlets" : 1,
													"fontsize" : 12.0,
													"outlettype" : [ "int" ],
													"patching_rect" : [ 94.0, 246.0, 32.5, 20.0 ],
													"id" : "obj-17",
													"fontname" : "Arial",
													"numinlets" : 2
												}

											}
, 											{
												"box" : 												{
													"maxclass" : "newobj",
													"text" : "r numscreens",
													"numoutlets" : 1,
													"fontsize" : 12.0,
													"outlettype" : [ "" ],
													"patching_rect" : [ 146.0, 191.0, 83.0, 20.0 ],
													"id" : "obj-14",
													"fontname" : "Arial",
													"numinlets" : 0
												}

											}
, 											{
												"box" : 												{
													"maxclass" : "newobj",
													"text" : "% 3",
													"numoutlets" : 1,
													"fontsize" : 12.0,
													"outlettype" : [ "int" ],
													"patching_rect" : [ 72.0, 217.0, 92.5, 20.0 ],
													"id" : "obj-11",
													"fontname" : "Arial",
													"numinlets" : 2
												}

											}
, 											{
												"box" : 												{
													"maxclass" : "newobj",
													"text" : "+",
													"numoutlets" : 1,
													"fontsize" : 12.0,
													"outlettype" : [ "int" ],
													"patching_rect" : [ 72.0, 188.0, 32.5, 20.0 ],
													"id" : "obj-10",
													"fontname" : "Arial",
													"numinlets" : 2
												}

											}
, 											{
												"box" : 												{
													"maxclass" : "newobj",
													"text" : "t 1",
													"numoutlets" : 1,
													"fontsize" : 12.0,
													"outlettype" : [ "int" ],
													"patching_rect" : [ 128.0, 130.0, 24.0, 20.0 ],
													"id" : "obj-9",
													"fontname" : "Arial",
													"numinlets" : 1
												}

											}
, 											{
												"box" : 												{
													"maxclass" : "newobj",
													"text" : "t -1",
													"numoutlets" : 1,
													"fontsize" : 12.0,
													"outlettype" : [ "int" ],
													"patching_rect" : [ 71.0, 133.0, 28.0, 20.0 ],
													"id" : "obj-6",
													"fontname" : "Arial",
													"numinlets" : 1
												}

											}
, 											{
												"box" : 												{
													"maxclass" : "newobj",
													"text" : "togedge",
													"numoutlets" : 2,
													"fontsize" : 12.0,
													"outlettype" : [ "bang", "bang" ],
													"patching_rect" : [ 128.0, 100.0, 54.0, 20.0 ],
													"id" : "obj-93",
													"fontname" : "Arial",
													"numinlets" : 1
												}

											}
, 											{
												"box" : 												{
													"maxclass" : "newobj",
													"text" : "togedge",
													"numoutlets" : 2,
													"fontsize" : 12.0,
													"outlettype" : [ "bang", "bang" ],
													"patching_rect" : [ 71.0, 100.0, 54.0, 20.0 ],
													"id" : "obj-92",
													"fontname" : "Arial",
													"numinlets" : 1
												}

											}
, 											{
												"box" : 												{
													"maxclass" : "outlet",
													"numoutlets" : 0,
													"patching_rect" : [ 51.0, 461.5, 25.0, 25.0 ],
													"id" : "obj-25",
													"numinlets" : 1,
													"comment" : ""
												}

											}
 ],
										"lines" : [ 											{
												"patchline" : 												{
													"source" : [ "obj-92", 0 ],
													"destination" : [ "obj-6", 0 ],
													"hidden" : 0,
													"midpoints" : [  ]
												}

											}
, 											{
												"patchline" : 												{
													"source" : [ "obj-93", 0 ],
													"destination" : [ "obj-9", 0 ],
													"hidden" : 0,
													"midpoints" : [  ]
												}

											}
, 											{
												"patchline" : 												{
													"source" : [ "obj-6", 0 ],
													"destination" : [ "obj-10", 0 ],
													"hidden" : 0,
													"midpoints" : [ 80.5, 170.0, 81.5, 170.0 ]
												}

											}
, 											{
												"patchline" : 												{
													"source" : [ "obj-9", 0 ],
													"destination" : [ "obj-10", 0 ],
													"hidden" : 0,
													"midpoints" : [ 137.5, 168.5, 81.5, 168.5 ]
												}

											}
, 											{
												"patchline" : 												{
													"source" : [ "obj-10", 0 ],
													"destination" : [ "obj-11", 0 ],
													"hidden" : 0,
													"midpoints" : [  ]
												}

											}
, 											{
												"patchline" : 												{
													"source" : [ "obj-14", 0 ],
													"destination" : [ "obj-11", 1 ],
													"hidden" : 0,
													"midpoints" : [  ]
												}

											}
, 											{
												"patchline" : 												{
													"source" : [ "obj-11", 0 ],
													"destination" : [ "obj-17", 0 ],
													"hidden" : 0,
													"midpoints" : [  ]
												}

											}
, 											{
												"patchline" : 												{
													"source" : [ "obj-17", 0 ],
													"destination" : [ "obj-18", 0 ],
													"hidden" : 0,
													"midpoints" : [  ]
												}

											}
, 											{
												"patchline" : 												{
													"source" : [ "obj-18", 0 ],
													"destination" : [ "obj-19", 0 ],
													"hidden" : 0,
													"midpoints" : [  ]
												}

											}
, 											{
												"patchline" : 												{
													"source" : [ "obj-11", 0 ],
													"destination" : [ "obj-19", 1 ],
													"hidden" : 0,
													"midpoints" : [  ]
												}

											}
, 											{
												"patchline" : 												{
													"source" : [ "obj-19", 1 ],
													"destination" : [ "obj-20", 0 ],
													"hidden" : 0,
													"midpoints" : [  ]
												}

											}
, 											{
												"patchline" : 												{
													"source" : [ "obj-14", 0 ],
													"destination" : [ "obj-20", 1 ],
													"hidden" : 0,
													"midpoints" : [ 155.5, 213.0, 187.0, 213.0, 187.0, 328.0, 98.0, 328.0 ]
												}

											}
, 											{
												"patchline" : 												{
													"source" : [ "obj-20", 0 ],
													"destination" : [ "obj-21", 0 ],
													"hidden" : 0,
													"midpoints" : [  ]
												}

											}
, 											{
												"patchline" : 												{
													"source" : [ "obj-19", 0 ],
													"destination" : [ "obj-21", 0 ],
													"hidden" : 0,
													"midpoints" : [  ]
												}

											}
, 											{
												"patchline" : 												{
													"source" : [ "obj-21", 0 ],
													"destination" : [ "obj-10", 1 ],
													"hidden" : 0,
													"midpoints" : [ 60.5, 399.0, 260.0, 399.0, 260.0, 177.0, 95.0, 177.0 ]
												}

											}
, 											{
												"patchline" : 												{
													"source" : [ "obj-21", 0 ],
													"destination" : [ "obj-25", 0 ],
													"hidden" : 0,
													"midpoints" : [  ]
												}

											}
, 											{
												"patchline" : 												{
													"source" : [ "obj-43", 0 ],
													"destination" : [ "obj-92", 0 ],
													"hidden" : 0,
													"midpoints" : [  ]
												}

											}
, 											{
												"patchline" : 												{
													"source" : [ "obj-40", 0 ],
													"destination" : [ "obj-93", 0 ],
													"hidden" : 0,
													"midpoints" : [  ]
												}

											}
 ]
									}
,
									"saved_object_attributes" : 									{
										"fontface" : 0,
										"fontsize" : 12.0,
										"default_fontface" : 0,
										"default_fontname" : "Arial",
										"fontname" : "Arial",
										"default_fontsize" : 12.0,
										"globalpatchername" : ""
									}

								}

							}
, 							{
								"box" : 								{
									"maxclass" : "number",
									"numoutlets" : 2,
									"fontsize" : 12.0,
									"outlettype" : [ "int", "bang" ],
									"patching_rect" : [ 539.0, 234.0, 50.0, 20.0 ],
									"id" : "obj-16",
									"fontname" : "Arial",
									"numinlets" : 1
								}

							}
, 							{
								"box" : 								{
									"maxclass" : "message",
									"text" : "nudge 0 0 $1",
									"numoutlets" : 1,
									"fontsize" : 12.0,
									"outlettype" : [ "" ],
									"patching_rect" : [ 24.0, 119.571426, 81.0, 18.0 ],
									"id" : "obj-4",
									"fontname" : "Arial",
									"numinlets" : 2
								}

							}
, 							{
								"box" : 								{
									"maxclass" : "newobj",
									"text" : "change",
									"numoutlets" : 3,
									"fontsize" : 12.0,
									"outlettype" : [ "", "int", "int" ],
									"patching_rect" : [ 641.0, 117.0, 50.0, 20.0 ],
									"id" : "obj-1",
									"fontname" : "Arial",
									"numinlets" : 1
								}

							}
, 							{
								"box" : 								{
									"maxclass" : "message",
									"text" : "slow $1",
									"numoutlets" : 1,
									"fontsize" : 12.0,
									"outlettype" : [ "" ],
									"patching_rect" : [ 827.0, 232.0, 51.0, 18.0 ],
									"id" : "obj-87",
									"fontname" : "Arial",
									"numinlets" : 2
								}

							}
, 							{
								"box" : 								{
									"maxclass" : "message",
									"text" : "fast $1",
									"numoutlets" : 1,
									"fontsize" : 12.0,
									"outlettype" : [ "" ],
									"patching_rect" : [ 641.0, 146.0, 47.0, 18.0 ],
									"id" : "obj-88",
									"fontname" : "Arial",
									"numinlets" : 2
								}

							}
, 							{
								"box" : 								{
									"maxclass" : "newobj",
									"text" : "s calibrate",
									"numoutlets" : 0,
									"fontsize" : 12.0,
									"patching_rect" : [ 1056.0, 218.0, 65.0, 20.0 ],
									"id" : "obj-8",
									"fontname" : "Arial",
									"numinlets" : 1
								}

							}
, 							{
								"box" : 								{
									"maxclass" : "toggle",
									"numoutlets" : 1,
									"outlettype" : [ "int" ],
									"patching_rect" : [ 1057.0, 187.0, 19.0, 19.0 ],
									"id" : "obj-23",
									"numinlets" : 1
								}

							}
 ],
						"lines" : [ 							{
								"patchline" : 								{
									"source" : [ "obj-3", 0 ],
									"destination" : [ "obj-37", 0 ],
									"hidden" : 0,
									"midpoints" : [  ]
								}

							}
, 							{
								"patchline" : 								{
									"source" : [ "obj-5", 0 ],
									"destination" : [ "obj-35", 0 ],
									"hidden" : 0,
									"midpoints" : [  ]
								}

							}
, 							{
								"patchline" : 								{
									"source" : [ "obj-22", 0 ],
									"destination" : [ "obj-39", 0 ],
									"hidden" : 0,
									"midpoints" : [  ]
								}

							}
, 							{
								"patchline" : 								{
									"source" : [ "obj-36", 0 ],
									"destination" : [ "obj-31", 0 ],
									"hidden" : 0,
									"midpoints" : [  ]
								}

							}
, 							{
								"patchline" : 								{
									"source" : [ "obj-38", 0 ],
									"destination" : [ "obj-31", 0 ],
									"hidden" : 0,
									"midpoints" : [  ]
								}

							}
, 							{
								"patchline" : 								{
									"source" : [ "obj-37", 0 ],
									"destination" : [ "obj-38", 0 ],
									"hidden" : 0,
									"midpoints" : [  ]
								}

							}
, 							{
								"patchline" : 								{
									"source" : [ "obj-35", 0 ],
									"destination" : [ "obj-36", 0 ],
									"hidden" : 0,
									"midpoints" : [  ]
								}

							}
, 							{
								"patchline" : 								{
									"source" : [ "obj-34", 0 ],
									"destination" : [ "obj-31", 0 ],
									"hidden" : 0,
									"midpoints" : [  ]
								}

							}
, 							{
								"patchline" : 								{
									"source" : [ "obj-33", 0 ],
									"destination" : [ "obj-34", 0 ],
									"hidden" : 0,
									"midpoints" : [  ]
								}

							}
, 							{
								"patchline" : 								{
									"source" : [ "obj-29", 0 ],
									"destination" : [ "obj-31", 0 ],
									"hidden" : 0,
									"midpoints" : [  ]
								}

							}
, 							{
								"patchline" : 								{
									"source" : [ "obj-30", 0 ],
									"destination" : [ "obj-29", 0 ],
									"hidden" : 0,
									"midpoints" : [  ]
								}

							}
, 							{
								"patchline" : 								{
									"source" : [ "obj-18", 0 ],
									"destination" : [ "obj-25", 0 ],
									"hidden" : 0,
									"midpoints" : [  ]
								}

							}
, 							{
								"patchline" : 								{
									"source" : [ "obj-24", 0 ],
									"destination" : [ "obj-31", 0 ],
									"hidden" : 0,
									"midpoints" : [  ]
								}

							}
, 							{
								"patchline" : 								{
									"source" : [ "obj-25", 0 ],
									"destination" : [ "obj-24", 0 ],
									"hidden" : 0,
									"midpoints" : [  ]
								}

							}
, 							{
								"patchline" : 								{
									"source" : [ "obj-19", 0 ],
									"destination" : [ "obj-22", 0 ],
									"hidden" : 0,
									"midpoints" : [  ]
								}

							}
, 							{
								"patchline" : 								{
									"source" : [ "obj-18", 2 ],
									"destination" : [ "obj-19", 0 ],
									"hidden" : 0,
									"midpoints" : [  ]
								}

							}
, 							{
								"patchline" : 								{
									"source" : [ "obj-18", 1 ],
									"destination" : [ "obj-27", 0 ],
									"hidden" : 0,
									"midpoints" : [  ]
								}

							}
, 							{
								"patchline" : 								{
									"source" : [ "obj-26", 0 ],
									"destination" : [ "obj-18", 0 ],
									"hidden" : 0,
									"midpoints" : [  ]
								}

							}
, 							{
								"patchline" : 								{
									"source" : [ "obj-87", 0 ],
									"destination" : [ "obj-31", 0 ],
									"hidden" : 0,
									"midpoints" : [ 836.5, 315.5, 822.5, 315.5 ]
								}

							}
, 							{
								"patchline" : 								{
									"source" : [ "obj-88", 0 ],
									"destination" : [ "obj-31", 0 ],
									"hidden" : 0,
									"midpoints" : [ 650.5, 315.5, 822.5, 315.5 ]
								}

							}
, 							{
								"patchline" : 								{
									"source" : [ "obj-9", 0 ],
									"destination" : [ "obj-31", 0 ],
									"hidden" : 0,
									"midpoints" : [ 353.5, 317.5, 822.5, 317.5 ]
								}

							}
, 							{
								"patchline" : 								{
									"source" : [ "obj-10", 0 ],
									"destination" : [ "obj-31", 0 ],
									"hidden" : 0,
									"midpoints" : [ 328.5, 302.5, 822.5, 302.5 ]
								}

							}
, 							{
								"patchline" : 								{
									"source" : [ "obj-11", 0 ],
									"destination" : [ "obj-31", 0 ],
									"hidden" : 0,
									"midpoints" : [ 312.5, 290.5, 822.5, 290.5 ]
								}

							}
, 							{
								"patchline" : 								{
									"source" : [ "obj-12", 0 ],
									"destination" : [ "obj-31", 0 ],
									"hidden" : 0,
									"midpoints" : [ 292.5, 277.5, 822.5, 277.5 ]
								}

							}
, 							{
								"patchline" : 								{
									"source" : [ "obj-6", 0 ],
									"destination" : [ "obj-31", 0 ],
									"hidden" : 0,
									"midpoints" : [ 112.5, 303.0, 822.5, 303.0 ]
								}

							}
, 							{
								"patchline" : 								{
									"source" : [ "obj-2", 0 ],
									"destination" : [ "obj-31", 0 ],
									"hidden" : 0,
									"midpoints" : [ 136.5, 318.0, 822.5, 318.0 ]
								}

							}
, 							{
								"patchline" : 								{
									"source" : [ "obj-32", 0 ],
									"destination" : [ "obj-31", 0 ],
									"hidden" : 0,
									"midpoints" : [ 63.5, 291.0, 822.5, 291.0 ]
								}

							}
, 							{
								"patchline" : 								{
									"source" : [ "obj-4", 0 ],
									"destination" : [ "obj-31", 0 ],
									"hidden" : 0,
									"midpoints" : [ 33.5, 278.0, 822.5, 278.0 ]
								}

							}
, 							{
								"patchline" : 								{
									"source" : [ "obj-27", 0 ],
									"destination" : [ "obj-31", 0 ],
									"hidden" : 0,
									"midpoints" : [  ]
								}

							}
, 							{
								"patchline" : 								{
									"source" : [ "obj-28", 0 ],
									"destination" : [ "obj-27", 0 ],
									"hidden" : 0,
									"midpoints" : [  ]
								}

							}
, 							{
								"patchline" : 								{
									"source" : [ "obj-26", 0 ],
									"destination" : [ "obj-16", 0 ],
									"hidden" : 0,
									"midpoints" : [  ]
								}

							}
, 							{
								"patchline" : 								{
									"source" : [ "obj-23", 0 ],
									"destination" : [ "obj-8", 0 ],
									"hidden" : 0,
									"midpoints" : [  ]
								}

							}
, 							{
								"patchline" : 								{
									"source" : [ "obj-1", 0 ],
									"destination" : [ "obj-88", 0 ],
									"hidden" : 0,
									"midpoints" : [  ]
								}

							}
, 							{
								"patchline" : 								{
									"source" : [ "obj-14", 0 ],
									"destination" : [ "obj-4", 0 ],
									"hidden" : 0,
									"midpoints" : [  ]
								}

							}
, 							{
								"patchline" : 								{
									"source" : [ "obj-20", 0 ],
									"destination" : [ "obj-32", 0 ],
									"hidden" : 0,
									"midpoints" : [  ]
								}

							}
, 							{
								"patchline" : 								{
									"source" : [ "obj-21", 0 ],
									"destination" : [ "obj-6", 0 ],
									"hidden" : 0,
									"midpoints" : [  ]
								}

							}
, 							{
								"patchline" : 								{
									"source" : [ "obj-46", 0 ],
									"destination" : [ "obj-30", 0 ],
									"hidden" : 0,
									"midpoints" : [  ]
								}

							}
, 							{
								"patchline" : 								{
									"source" : [ "obj-44", 0 ],
									"destination" : [ "obj-33", 0 ],
									"hidden" : 0,
									"midpoints" : [  ]
								}

							}
, 							{
								"patchline" : 								{
									"source" : [ "obj-45", 0 ],
									"destination" : [ "obj-1", 0 ],
									"hidden" : 0,
									"midpoints" : [  ]
								}

							}
, 							{
								"patchline" : 								{
									"source" : [ "obj-47", 0 ],
									"destination" : [ "obj-2", 0 ],
									"hidden" : 0,
									"midpoints" : [  ]
								}

							}
, 							{
								"patchline" : 								{
									"source" : [ "obj-51", 0 ],
									"destination" : [ "obj-12", 0 ],
									"hidden" : 0,
									"midpoints" : [  ]
								}

							}
, 							{
								"patchline" : 								{
									"source" : [ "obj-50", 0 ],
									"destination" : [ "obj-11", 0 ],
									"hidden" : 0,
									"midpoints" : [ 312.5, 110.285713, 312.5, 110.285713 ]
								}

							}
, 							{
								"patchline" : 								{
									"source" : [ "obj-49", 0 ],
									"destination" : [ "obj-10", 0 ],
									"hidden" : 0,
									"midpoints" : [  ]
								}

							}
, 							{
								"patchline" : 								{
									"source" : [ "obj-48", 0 ],
									"destination" : [ "obj-9", 0 ],
									"hidden" : 0,
									"midpoints" : [  ]
								}

							}
 ]
					}
,
					"saved_object_attributes" : 					{
						"fontface" : 0,
						"fontsize" : 12.0,
						"default_fontface" : 0,
						"default_fontname" : "Arial",
						"fontname" : "Arial",
						"default_fontsize" : 12.0,
						"globalpatchername" : ""
					}

				}

			}
, 			{
				"box" : 				{
					"maxclass" : "toggle",
					"numoutlets" : 1,
					"outlettype" : [ "int" ],
					"patching_rect" : [ 325.0, 26.0, 20.0, 20.0 ],
					"id" : "obj-5",
					"numinlets" : 1
				}

			}
, 			{
				"box" : 				{
					"maxclass" : "newobj",
					"text" : "s focus_proj",
					"numoutlets" : 0,
					"fontsize" : 12.0,
					"patching_rect" : [ 351.0, 26.0, 75.0, 20.0 ],
					"id" : "obj-3",
					"fontname" : "Arial",
					"numinlets" : 1
				}

			}
, 			{
				"box" : 				{
					"maxclass" : "newobj",
					"text" : "p testimages",
					"numoutlets" : 0,
					"fontsize" : 12.0,
					"hidden" : 1,
					"patching_rect" : [ 32.0, 54.0, 79.0, 20.0 ],
					"id" : "obj-8",
					"fontname" : "Arial",
					"numinlets" : 0,
					"patcher" : 					{
						"fileversion" : 1,
						"rect" : [ 407.0, 91.0, 488.0, 181.0 ],
						"bglocked" : 0,
						"defrect" : [ 407.0, 91.0, 488.0, 181.0 ],
						"openrect" : [ 0.0, 0.0, 0.0, 0.0 ],
						"openinpresentation" : 0,
						"default_fontsize" : 12.0,
						"default_fontface" : 0,
						"default_fontname" : "Arial",
						"gridonopen" : 0,
						"gridsize" : [ 15.0, 15.0 ],
						"gridsnaponopen" : 0,
						"toolbarvisible" : 1,
						"boxanimatetime" : 200,
						"imprint" : 0,
						"enablehscroll" : 1,
						"enablevscroll" : 1,
						"boxes" : [ 							{
								"box" : 								{
									"maxclass" : "jit.pwindow",
									"numoutlets" : 2,
									"outlettype" : [ "", "" ],
									"patching_rect" : [ 282.0, 46.0, 80.0, 60.0 ],
									"id" : "obj-1",
									"numinlets" : 1
								}

							}
, 							{
								"box" : 								{
									"maxclass" : "message",
									"text" : "importmovie test_plane.jpg, bang",
									"numoutlets" : 1,
									"fontsize" : 12.0,
									"outlettype" : [ "" ],
									"patching_rect" : [ 15.0, 49.0, 187.0, 18.0 ],
									"id" : "obj-7",
									"fontname" : "Arial",
									"numinlets" : 2
								}

							}
, 							{
								"box" : 								{
									"maxclass" : "newobj",
									"text" : "jit.matrix 4 char 288 288",
									"numoutlets" : 2,
									"fontsize" : 12.0,
									"outlettype" : [ "jit_matrix", "" ],
									"patching_rect" : [ 15.0, 83.0, 139.0, 20.0 ],
									"id" : "obj-5",
									"fontname" : "Arial",
									"numinlets" : 1
								}

							}
, 							{
								"box" : 								{
									"maxclass" : "newobj",
									"text" : "loadbang",
									"numoutlets" : 1,
									"fontsize" : 12.0,
									"outlettype" : [ "bang" ],
									"patching_rect" : [ 15.0, 15.0, 60.0, 20.0 ],
									"id" : "obj-4",
									"fontname" : "Arial",
									"numinlets" : 1
								}

							}
, 							{
								"box" : 								{
									"maxclass" : "newobj",
									"text" : "jit.matrix 4 char 288 288 @name videoplane_test_matrix @planemap 1 2 3",
									"numoutlets" : 2,
									"fontsize" : 12.0,
									"outlettype" : [ "jit_matrix", "" ],
									"patching_rect" : [ 15.0, 117.0, 409.0, 20.0 ],
									"id" : "obj-10",
									"fontname" : "Arial",
									"numinlets" : 1
								}

							}
 ],
						"lines" : [ 							{
								"patchline" : 								{
									"source" : [ "obj-5", 0 ],
									"destination" : [ "obj-10", 0 ],
									"hidden" : 0,
									"midpoints" : [  ]
								}

							}
, 							{
								"patchline" : 								{
									"source" : [ "obj-7", 0 ],
									"destination" : [ "obj-5", 0 ],
									"hidden" : 0,
									"midpoints" : [  ]
								}

							}
, 							{
								"patchline" : 								{
									"source" : [ "obj-4", 0 ],
									"destination" : [ "obj-7", 0 ],
									"hidden" : 0,
									"midpoints" : [  ]
								}

							}
, 							{
								"patchline" : 								{
									"source" : [ "obj-5", 0 ],
									"destination" : [ "obj-1", 0 ],
									"hidden" : 0,
									"midpoints" : [  ]
								}

							}
 ]
					}
,
					"saved_object_attributes" : 					{
						"fontface" : 0,
						"fontsize" : 12.0,
						"default_fontface" : 0,
						"default_fontname" : "Arial",
						"fontname" : "Arial",
						"default_fontsize" : 12.0,
						"globalpatchername" : ""
					}

				}

			}
 ],
		"lines" : [ 			{
				"patchline" : 				{
					"source" : [ "obj-5", 0 ],
					"destination" : [ "obj-3", 0 ],
					"hidden" : 1,
					"midpoints" : [  ]
				}

			}
 ]
	}

}
