{
	"patcher" : 	{
		"fileversion" : 1,
		"rect" : [ 25.0, 69.0, 640.0, 506.0 ],
		"bglocked" : 0,
		"defrect" : [ 25.0, 69.0, 640.0, 506.0 ],
		"openrect" : [ 0.0, 0.0, 0.0, 0.0 ],
		"openinpresentation" : 0,
		"default_fontsize" : 12.0,
		"default_fontface" : 0,
		"default_fontname" : "Arial",
		"gridonopen" : 0,
		"gridsize" : [ 15.0, 15.0 ],
		"gridsnaponopen" : 0,
		"toolbarvisible" : 1,
		"boxanimatetime" : 200,
		"imprint" : 0,
		"enablehscroll" : 1,
		"enablevscroll" : 1,
		"boxes" : [ 			{
				"box" : 				{
					"maxclass" : "outlet",
					"patching_rect" : [ 15.0, 93.0, 25.0, 25.0 ],
					"numinlets" : 1,
					"id" : "obj-2",
					"numoutlets" : 0,
					"comment" : ""
				}

			}
, 			{
				"box" : 				{
					"maxclass" : "newobj",
					"text" : "- 1",
					"patching_rect" : [ 15.0, 65.0, 32.5, 20.0 ],
					"numinlets" : 2,
					"fontsize" : 12.0,
					"id" : "obj-1",
					"numoutlets" : 1,
					"outlettype" : [ "int" ],
					"fontname" : "Arial"
				}

			}
, 			{
				"box" : 				{
					"maxclass" : "newobj",
					"text" : "loadbang",
					"patching_rect" : [ 15.0, 15.0, 60.0, 20.0 ],
					"numinlets" : 1,
					"fontsize" : 12.0,
					"id" : "obj-19",
					"numoutlets" : 1,
					"outlettype" : [ "bang" ],
					"fontname" : "Arial"
				}

			}
, 			{
				"box" : 				{
					"maxclass" : "newobj",
					"text" : "thispoly~",
					"patching_rect" : [ 15.0, 39.0, 58.0, 20.0 ],
					"numinlets" : 1,
					"fontsize" : 12.0,
					"id" : "obj-30",
					"numoutlets" : 2,
					"outlettype" : [ "int", "int" ],
					"fontname" : "Arial"
				}

			}
 ],
		"lines" : [ 			{
				"patchline" : 				{
					"source" : [ "obj-1", 0 ],
					"destination" : [ "obj-2", 0 ],
					"hidden" : 0,
					"midpoints" : [  ]
				}

			}
, 			{
				"patchline" : 				{
					"source" : [ "obj-30", 0 ],
					"destination" : [ "obj-1", 0 ],
					"hidden" : 0,
					"midpoints" : [  ]
				}

			}
, 			{
				"patchline" : 				{
					"source" : [ "obj-19", 0 ],
					"destination" : [ "obj-30", 0 ],
					"hidden" : 0,
					"midpoints" : [  ]
				}

			}
 ]
	}

}
