{
	"patcher" : 	{
		"fileversion" : 1,
		"rect" : [ 9.0, 64.0, 534.0, 443.0 ],
		"bglocked" : 0,
		"defrect" : [ 9.0, 64.0, 534.0, 443.0 ],
		"openrect" : [ 0.0, 0.0, 0.0, 0.0 ],
		"openinpresentation" : 0,
		"default_fontsize" : 12.0,
		"default_fontface" : 0,
		"default_fontname" : "Arial",
		"gridonopen" : 0,
		"gridsize" : [ 15.0, 15.0 ],
		"gridsnaponopen" : 0,
		"toolbarvisible" : 1,
		"boxanimatetime" : 200,
		"imprint" : 0,
		"metadata" : [  ],
		"boxes" : [ 			{
				"box" : 				{
					"maxclass" : "newobj",
					"text" : "route 0 0.",
					"numinlets" : 1,
					"fontsize" : 12.0,
					"numoutlets" : 3,
					"patching_rect" : [ 413.0, 140.0, 61.0, 20.0 ],
					"id" : "obj-2",
					"outlettype" : [ "", "", "" ],
					"fontname" : "Arial"
				}

			}
, 			{
				"box" : 				{
					"maxclass" : "flonum",
					"numinlets" : 1,
					"fontsize" : 12.0,
					"numoutlets" : 2,
					"patching_rect" : [ 385.0, 206.0, 50.0, 20.0 ],
					"id" : "obj-13",
					"outlettype" : [ "float", "bang" ],
					"fontname" : "Arial"
				}

			}
, 			{
				"box" : 				{
					"maxclass" : "newobj",
					"text" : "loadbang",
					"numinlets" : 1,
					"fontsize" : 12.0,
					"numoutlets" : 1,
					"patching_rect" : [ 379.0, 43.0, 60.0, 20.0 ],
					"id" : "obj-11",
					"outlettype" : [ "bang" ],
					"fontname" : "Arial"
				}

			}
, 			{
				"box" : 				{
					"maxclass" : "newobj",
					"text" : "unpack f f f",
					"numinlets" : 1,
					"fontsize" : 12.0,
					"numoutlets" : 3,
					"patching_rect" : [ 379.0, 102.0, 69.0, 20.0 ],
					"id" : "obj-10",
					"outlettype" : [ "float", "float", "float" ],
					"fontname" : "Arial"
				}

			}
, 			{
				"box" : 				{
					"maxclass" : "newobj",
					"text" : "patcherargs",
					"numinlets" : 1,
					"fontsize" : 12.0,
					"numoutlets" : 2,
					"patching_rect" : [ 379.0, 76.0, 74.0, 20.0 ],
					"id" : "obj-8",
					"outlettype" : [ "", "" ],
					"fontname" : "Arial"
				}

			}
, 			{
				"box" : 				{
					"maxclass" : "outlet",
					"numinlets" : 1,
					"numoutlets" : 0,
					"patching_rect" : [ 187.0, 304.0, 25.0, 25.0 ],
					"id" : "obj-7",
					"comment" : ""
				}

			}
, 			{
				"box" : 				{
					"maxclass" : "newobj",
					"text" : "route float int smooth",
					"numinlets" : 1,
					"fontsize" : 12.0,
					"numoutlets" : 4,
					"patching_rect" : [ 188.0, 120.0, 123.0, 20.0 ],
					"id" : "obj-6",
					"outlettype" : [ "", "", "", "" ],
					"fontname" : "Arial"
				}

			}
, 			{
				"box" : 				{
					"maxclass" : "newobj",
					"text" : "expr ($f2*$f3+$f1)/($f3+1)",
					"numinlets" : 3,
					"fontsize" : 12.0,
					"numoutlets" : 1,
					"patching_rect" : [ 187.0, 189.0, 149.0, 20.0 ],
					"id" : "obj-5",
					"outlettype" : [ "" ],
					"fontname" : "Arial"
				}

			}
, 			{
				"box" : 				{
					"maxclass" : "inlet",
					"numinlets" : 0,
					"numoutlets" : 1,
					"patching_rect" : [ 189.0, 55.0, 25.0, 25.0 ],
					"id" : "obj-4",
					"outlettype" : [ "" ],
					"comment" : ""
				}

			}
, 			{
				"box" : 				{
					"maxclass" : "newobj",
					"text" : "f",
					"numinlets" : 2,
					"fontsize" : 12.0,
					"numoutlets" : 1,
					"patching_rect" : [ 187.0, 236.0, 104.5, 20.0 ],
					"id" : "obj-1",
					"outlettype" : [ "float" ],
					"fontname" : "Arial"
				}

			}
 ],
		"lines" : [ 			{
				"patchline" : 				{
					"source" : [ "obj-6", 1 ],
					"destination" : [ "obj-5", 0 ],
					"hidden" : 0,
					"midpoints" : [  ]
				}

			}
, 			{
				"patchline" : 				{
					"source" : [ "obj-6", 2 ],
					"destination" : [ "obj-5", 2 ],
					"hidden" : 0,
					"midpoints" : [  ]
				}

			}
, 			{
				"patchline" : 				{
					"source" : [ "obj-4", 0 ],
					"destination" : [ "obj-6", 0 ],
					"hidden" : 0,
					"midpoints" : [  ]
				}

			}
, 			{
				"patchline" : 				{
					"source" : [ "obj-6", 0 ],
					"destination" : [ "obj-5", 0 ],
					"hidden" : 0,
					"midpoints" : [  ]
				}

			}
, 			{
				"patchline" : 				{
					"source" : [ "obj-11", 0 ],
					"destination" : [ "obj-8", 0 ],
					"hidden" : 0,
					"midpoints" : [  ]
				}

			}
, 			{
				"patchline" : 				{
					"source" : [ "obj-8", 0 ],
					"destination" : [ "obj-10", 0 ],
					"hidden" : 0,
					"midpoints" : [  ]
				}

			}
, 			{
				"patchline" : 				{
					"source" : [ "obj-1", 0 ],
					"destination" : [ "obj-7", 0 ],
					"hidden" : 0,
					"midpoints" : [  ]
				}

			}
, 			{
				"patchline" : 				{
					"source" : [ "obj-1", 0 ],
					"destination" : [ "obj-5", 1 ],
					"hidden" : 0,
					"midpoints" : [ 196.5, 269.0, 371.0, 269.0, 371.0, 177.0, 261.5, 177.0 ]
				}

			}
, 			{
				"patchline" : 				{
					"source" : [ "obj-5", 0 ],
					"destination" : [ "obj-1", 0 ],
					"hidden" : 0,
					"midpoints" : [  ]
				}

			}
, 			{
				"patchline" : 				{
					"source" : [ "obj-10", 0 ],
					"destination" : [ "obj-2", 0 ],
					"hidden" : 0,
					"midpoints" : [  ]
				}

			}
, 			{
				"patchline" : 				{
					"source" : [ "obj-2", 2 ],
					"destination" : [ "obj-13", 0 ],
					"hidden" : 0,
					"midpoints" : [  ]
				}

			}
, 			{
				"patchline" : 				{
					"source" : [ "obj-2", 2 ],
					"destination" : [ "obj-5", 2 ],
					"hidden" : 0,
					"midpoints" : [  ]
				}

			}
 ]
	}

}
