{
	"patcher" : 	{
		"fileversion" : 1,
		"rect" : [ 71.0, 71.0, 834.0, 644.0 ],
		"bglocked" : 0,
		"defrect" : [ 71.0, 71.0, 834.0, 644.0 ],
		"openrect" : [ 0.0, 0.0, 0.0, 0.0 ],
		"openinpresentation" : 0,
		"default_fontsize" : 12.0,
		"default_fontface" : 0,
		"default_fontname" : "Arial",
		"gridonopen" : 0,
		"gridsize" : [ 15.0, 15.0 ],
		"gridsnaponopen" : 0,
		"toolbarvisible" : 1,
		"boxanimatetime" : 200,
		"imprint" : 0,
		"enablehscroll" : 1,
		"enablevscroll" : 1,
		"boxes" : [ 			{
				"box" : 				{
					"maxclass" : "outlet",
					"patching_rect" : [ 190.0, 595.0, 25.0, 25.0 ],
					"id" : "obj-2",
					"numinlets" : 1,
					"numoutlets" : 0,
					"comment" : ""
				}

			}
, 			{
				"box" : 				{
					"maxclass" : "newobj",
					"text" : "split 0. 1.",
					"outlettype" : [ "float", "float" ],
					"patching_rect" : [ 88.0, 432.0, 59.0, 20.0 ],
					"id" : "obj-55",
					"fontsize" : 12.0,
					"numinlets" : 3,
					"numoutlets" : 2,
					"fontname" : "Arial"
				}

			}
, 			{
				"box" : 				{
					"maxclass" : "newobj",
					"text" : "t 0 b",
					"outlettype" : [ "int", "bang" ],
					"patching_rect" : [ 657.0, 226.0, 34.0, 20.0 ],
					"id" : "obj-44",
					"fontsize" : 12.0,
					"numinlets" : 1,
					"numoutlets" : 2,
					"fontname" : "Arial"
				}

			}
, 			{
				"box" : 				{
					"maxclass" : "message",
					"text" : "jit_matrix #0_old",
					"outlettype" : [ "" ],
					"patching_rect" : [ 212.0, 339.0, 98.0, 18.0 ],
					"id" : "obj-43",
					"fontsize" : 12.0,
					"numinlets" : 2,
					"numoutlets" : 1,
					"fontname" : "Arial"
				}

			}
, 			{
				"box" : 				{
					"maxclass" : "newobj",
					"text" : "prepend xfade",
					"outlettype" : [ "" ],
					"patching_rect" : [ 89.0, 454.0, 87.0, 20.0 ],
					"id" : "obj-41",
					"fontsize" : 12.0,
					"numinlets" : 1,
					"numoutlets" : 1,
					"fontname" : "Arial"
				}

			}
, 			{
				"box" : 				{
					"maxclass" : "newobj",
					"text" : "+ 0.",
					"outlettype" : [ "float" ],
					"patching_rect" : [ 88.0, 404.0, 32.5, 20.0 ],
					"id" : "obj-40",
					"fontsize" : 12.0,
					"numinlets" : 2,
					"numoutlets" : 1,
					"fontname" : "Arial"
				}

			}
, 			{
				"box" : 				{
					"maxclass" : "newobj",
					"text" : "f",
					"outlettype" : [ "float" ],
					"patching_rect" : [ 88.0, 362.0, 32.5, 20.0 ],
					"id" : "obj-39",
					"fontsize" : 12.0,
					"numinlets" : 2,
					"numoutlets" : 1,
					"fontname" : "Arial"
				}

			}
, 			{
				"box" : 				{
					"maxclass" : "newobj",
					"text" : "t b b",
					"outlettype" : [ "bang", "bang" ],
					"patching_rect" : [ 190.0, 229.0, 34.0, 20.0 ],
					"id" : "obj-38",
					"fontsize" : 12.0,
					"numinlets" : 1,
					"numoutlets" : 2,
					"fontname" : "Arial"
				}

			}
, 			{
				"box" : 				{
					"maxclass" : "newobj",
					"text" : "jit.xfade",
					"outlettype" : [ "jit_matrix", "" ],
					"patching_rect" : [ 190.0, 537.0, 52.0, 20.0 ],
					"id" : "obj-37",
					"fontsize" : 12.0,
					"numinlets" : 2,
					"numoutlets" : 2,
					"fontname" : "Arial"
				}

			}
, 			{
				"box" : 				{
					"maxclass" : "newobj",
					"text" : "jit.matrix @adapt 1 @thru 0",
					"outlettype" : [ "jit_matrix", "" ],
					"patching_rect" : [ 190.0, 371.0, 157.0, 20.0 ],
					"id" : "obj-36",
					"fontsize" : 12.0,
					"numinlets" : 1,
					"numoutlets" : 2,
					"fontname" : "Arial"
				}

			}
, 			{
				"box" : 				{
					"maxclass" : "newobj",
					"text" : "jit.matrix @adapt 1 @name #0_old",
					"outlettype" : [ "jit_matrix", "" ],
					"patching_rect" : [ 317.0, 268.0, 196.0, 20.0 ],
					"id" : "obj-35",
					"fontsize" : 12.0,
					"numinlets" : 1,
					"numoutlets" : 2,
					"fontname" : "Arial"
				}

			}
, 			{
				"box" : 				{
					"maxclass" : "newobj",
					"text" : "/ 1.",
					"outlettype" : [ "float" ],
					"patching_rect" : [ 588.0, 346.0, 32.5, 20.0 ],
					"id" : "obj-33",
					"fontsize" : 12.0,
					"numinlets" : 2,
					"numoutlets" : 1,
					"fontname" : "Arial"
				}

			}
, 			{
				"box" : 				{
					"maxclass" : "newobj",
					"text" : "timer",
					"outlettype" : [ "float", "" ],
					"patching_rect" : [ 708.0, 267.0, 37.0, 20.0 ],
					"id" : "obj-20",
					"fontsize" : 12.0,
					"numinlets" : 2,
					"numoutlets" : 2,
					"fontname" : "Arial"
				}

			}
, 			{
				"box" : 				{
					"maxclass" : "newobj",
					"text" : "t b b",
					"outlettype" : [ "bang", "bang" ],
					"patching_rect" : [ 707.0, 235.0, 34.0, 20.0 ],
					"id" : "obj-21",
					"fontsize" : 12.0,
					"numinlets" : 1,
					"numoutlets" : 2,
					"fontname" : "Arial"
				}

			}
, 			{
				"box" : 				{
					"maxclass" : "newobj",
					"text" : "route jit_matrix",
					"outlettype" : [ "", "" ],
					"patching_rect" : [ 657.0, 195.0, 89.0, 20.0 ],
					"id" : "obj-18",
					"fontsize" : 12.0,
					"numinlets" : 1,
					"numoutlets" : 2,
					"fontname" : "Arial"
				}

			}
, 			{
				"box" : 				{
					"maxclass" : "newobj",
					"text" : "timer",
					"outlettype" : [ "float", "" ],
					"patching_rect" : [ 587.0, 266.0, 37.0, 20.0 ],
					"id" : "obj-12",
					"fontsize" : 12.0,
					"numinlets" : 2,
					"numoutlets" : 2,
					"fontname" : "Arial"
				}

			}
, 			{
				"box" : 				{
					"maxclass" : "newobj",
					"text" : "t b b",
					"outlettype" : [ "bang", "bang" ],
					"patching_rect" : [ 586.0, 234.0, 34.0, 20.0 ],
					"id" : "obj-11",
					"fontsize" : 12.0,
					"numinlets" : 1,
					"numoutlets" : 2,
					"fontname" : "Arial"
				}

			}
, 			{
				"box" : 				{
					"maxclass" : "newobj",
					"text" : "smooth 5",
					"outlettype" : [ "float" ],
					"patching_rect" : [ 587.0, 295.0, 60.0, 20.0 ],
					"id" : "obj-5",
					"fontsize" : 12.0,
					"numinlets" : 1,
					"numoutlets" : 1,
					"fontname" : "Arial"
				}

			}
, 			{
				"box" : 				{
					"maxclass" : "newobj",
					"text" : "route bang",
					"outlettype" : [ "", "" ],
					"patching_rect" : [ 125.0, 161.0, 68.0, 20.0 ],
					"id" : "obj-3",
					"fontsize" : 12.0,
					"numinlets" : 1,
					"numoutlets" : 2,
					"fontname" : "Arial"
				}

			}
, 			{
				"box" : 				{
					"maxclass" : "inlet",
					"outlettype" : [ "" ],
					"patching_rect" : [ 124.0, 66.0, 25.0, 25.0 ],
					"id" : "obj-1",
					"numinlets" : 0,
					"numoutlets" : 1,
					"comment" : ""
				}

			}
 ],
		"lines" : [ 			{
				"patchline" : 				{
					"source" : [ "obj-20", 0 ],
					"destination" : [ "obj-33", 1 ],
					"hidden" : 0,
					"midpoints" : [ 717.5, 333.0, 611.0, 333.0 ]
				}

			}
, 			{
				"patchline" : 				{
					"source" : [ "obj-44", 0 ],
					"destination" : [ "obj-39", 1 ],
					"hidden" : 0,
					"midpoints" : [ 666.5, 246.0, 630.0, 246.0, 630.0, 219.0, 234.0, 219.0, 234.0, 324.0, 111.0, 324.0 ]
				}

			}
, 			{
				"patchline" : 				{
					"source" : [ "obj-41", 0 ],
					"destination" : [ "obj-37", 0 ],
					"hidden" : 0,
					"midpoints" : [ 98.5, 522.0, 199.5, 522.0 ]
				}

			}
, 			{
				"patchline" : 				{
					"source" : [ "obj-55", 0 ],
					"destination" : [ "obj-41", 0 ],
					"hidden" : 0,
					"midpoints" : [  ]
				}

			}
, 			{
				"patchline" : 				{
					"source" : [ "obj-40", 0 ],
					"destination" : [ "obj-55", 0 ],
					"hidden" : 0,
					"midpoints" : [  ]
				}

			}
, 			{
				"patchline" : 				{
					"source" : [ "obj-36", 0 ],
					"destination" : [ "obj-37", 0 ],
					"hidden" : 0,
					"midpoints" : [  ]
				}

			}
, 			{
				"patchline" : 				{
					"source" : [ "obj-38", 0 ],
					"destination" : [ "obj-36", 0 ],
					"hidden" : 0,
					"midpoints" : [  ]
				}

			}
, 			{
				"patchline" : 				{
					"source" : [ "obj-43", 0 ],
					"destination" : [ "obj-36", 0 ],
					"hidden" : 0,
					"midpoints" : [ 221.5, 362.0, 199.5, 362.0 ]
				}

			}
, 			{
				"patchline" : 				{
					"source" : [ "obj-40", 0 ],
					"destination" : [ "obj-39", 1 ],
					"hidden" : 0,
					"midpoints" : [ 97.5, 426.0, 75.0, 426.0, 75.0, 348.0, 111.0, 348.0 ]
				}

			}
, 			{
				"patchline" : 				{
					"source" : [ "obj-44", 1 ],
					"destination" : [ "obj-43", 0 ],
					"hidden" : 0,
					"midpoints" : [ 681.5, 250.0, 221.5, 250.0 ]
				}

			}
, 			{
				"patchline" : 				{
					"source" : [ "obj-18", 0 ],
					"destination" : [ "obj-44", 0 ],
					"hidden" : 0,
					"midpoints" : [  ]
				}

			}
, 			{
				"patchline" : 				{
					"source" : [ "obj-3", 1 ],
					"destination" : [ "obj-35", 0 ],
					"hidden" : 0,
					"midpoints" : [ 183.5, 196.0, 326.5, 196.0 ]
				}

			}
, 			{
				"patchline" : 				{
					"source" : [ "obj-35", 0 ],
					"destination" : [ "obj-37", 1 ],
					"hidden" : 0,
					"midpoints" : [ 326.5, 436.0, 232.5, 436.0 ]
				}

			}
, 			{
				"patchline" : 				{
					"source" : [ "obj-38", 1 ],
					"destination" : [ "obj-39", 0 ],
					"hidden" : 0,
					"midpoints" : [ 214.5, 280.0, 97.5, 280.0 ]
				}

			}
, 			{
				"patchline" : 				{
					"source" : [ "obj-39", 0 ],
					"destination" : [ "obj-40", 0 ],
					"hidden" : 0,
					"midpoints" : [  ]
				}

			}
, 			{
				"patchline" : 				{
					"source" : [ "obj-33", 0 ],
					"destination" : [ "obj-40", 1 ],
					"hidden" : 0,
					"midpoints" : [ 597.5, 399.0, 120.0, 399.0, 120.0, 399.0, 111.0, 399.0 ]
				}

			}
, 			{
				"patchline" : 				{
					"source" : [ "obj-3", 0 ],
					"destination" : [ "obj-38", 0 ],
					"hidden" : 0,
					"midpoints" : [ 134.5, 202.0, 199.5, 202.0 ]
				}

			}
, 			{
				"patchline" : 				{
					"source" : [ "obj-5", 0 ],
					"destination" : [ "obj-33", 0 ],
					"hidden" : 0,
					"midpoints" : [  ]
				}

			}
, 			{
				"patchline" : 				{
					"source" : [ "obj-3", 1 ],
					"destination" : [ "obj-18", 0 ],
					"hidden" : 0,
					"midpoints" : [ 183.5, 188.0, 666.5, 188.0 ]
				}

			}
, 			{
				"patchline" : 				{
					"source" : [ "obj-18", 0 ],
					"destination" : [ "obj-21", 0 ],
					"hidden" : 0,
					"midpoints" : [ 666.5, 222.0, 716.5, 222.0 ]
				}

			}
, 			{
				"patchline" : 				{
					"source" : [ "obj-12", 0 ],
					"destination" : [ "obj-5", 0 ],
					"hidden" : 0,
					"midpoints" : [  ]
				}

			}
, 			{
				"patchline" : 				{
					"source" : [ "obj-21", 1 ],
					"destination" : [ "obj-20", 1 ],
					"hidden" : 0,
					"midpoints" : [  ]
				}

			}
, 			{
				"patchline" : 				{
					"source" : [ "obj-21", 0 ],
					"destination" : [ "obj-20", 0 ],
					"hidden" : 0,
					"midpoints" : [  ]
				}

			}
, 			{
				"patchline" : 				{
					"source" : [ "obj-11", 0 ],
					"destination" : [ "obj-12", 0 ],
					"hidden" : 0,
					"midpoints" : [  ]
				}

			}
, 			{
				"patchline" : 				{
					"source" : [ "obj-11", 1 ],
					"destination" : [ "obj-12", 1 ],
					"hidden" : 0,
					"midpoints" : [  ]
				}

			}
, 			{
				"patchline" : 				{
					"source" : [ "obj-3", 0 ],
					"destination" : [ "obj-11", 0 ],
					"hidden" : 0,
					"midpoints" : [ 134.5, 192.0, 595.5, 192.0 ]
				}

			}
, 			{
				"patchline" : 				{
					"source" : [ "obj-1", 0 ],
					"destination" : [ "obj-3", 0 ],
					"hidden" : 0,
					"midpoints" : [  ]
				}

			}
, 			{
				"patchline" : 				{
					"source" : [ "obj-37", 0 ],
					"destination" : [ "obj-2", 0 ],
					"hidden" : 0,
					"midpoints" : [  ]
				}

			}
 ]
	}

}
