{
	"patcher" : 	{
		"fileversion" : 1,
		"rect" : [ 458.0, 63.0, 701.0, 508.0 ],
		"bglocked" : 0,
		"defrect" : [ 458.0, 63.0, 701.0, 508.0 ],
		"openrect" : [ 0.0, 0.0, 0.0, 0.0 ],
		"openinpresentation" : 0,
		"default_fontsize" : 12.0,
		"default_fontface" : 0,
		"default_fontname" : "Arial",
		"gridonopen" : 0,
		"gridsize" : [ 15.0, 15.0 ],
		"gridsnaponopen" : 0,
		"toolbarvisible" : 1,
		"boxanimatetime" : 200,
		"imprint" : 0,
		"boxes" : [ 			{
				"box" : 				{
					"maxclass" : "newobj",
					"text" : "r karaoke_nextword2",
					"patching_rect" : [ 382.0, 101.0, 123.0, 20.0 ],
					"numinlets" : 0,
					"id" : "obj-59",
					"fontname" : "Arial",
					"numoutlets" : 1,
					"outlettype" : [ "" ],
					"fontsize" : 12.0
				}

			}
, 			{
				"box" : 				{
					"maxclass" : "newobj",
					"text" : "r karaoke_slide",
					"patching_rect" : [ 210.0, 21.0, 92.0, 20.0 ],
					"numinlets" : 0,
					"id" : "obj-58",
					"fontname" : "Arial",
					"numoutlets" : 1,
					"outlettype" : [ "" ],
					"fontsize" : 12.0
				}

			}
, 			{
				"box" : 				{
					"maxclass" : "newobj",
					"text" : "t 0",
					"patching_rect" : [ 541.0, 102.0, 24.0, 20.0 ],
					"numinlets" : 1,
					"id" : "obj-57",
					"fontname" : "Arial",
					"numoutlets" : 1,
					"outlettype" : [ "int" ],
					"fontsize" : 12.0
				}

			}
, 			{
				"box" : 				{
					"maxclass" : "newobj",
					"text" : "s karaoke_counter",
					"patching_rect" : [ 571.0, 221.0, 109.0, 20.0 ],
					"numinlets" : 1,
					"id" : "obj-56",
					"fontname" : "Arial",
					"numoutlets" : 0,
					"fontsize" : 12.0
				}

			}
, 			{
				"box" : 				{
					"maxclass" : "button",
					"patching_rect" : [ 573.0, 171.0, 20.0, 20.0 ],
					"numinlets" : 1,
					"id" : "obj-55",
					"numoutlets" : 1,
					"outlettype" : [ "bang" ]
				}

			}
, 			{
				"box" : 				{
					"maxclass" : "newobj",
					"text" : "s karaoke_nextword",
					"patching_rect" : [ 572.0, 195.0, 118.0, 20.0 ],
					"numinlets" : 1,
					"id" : "obj-53",
					"fontname" : "Arial",
					"numoutlets" : 0,
					"fontsize" : 12.0
				}

			}
, 			{
				"box" : 				{
					"maxclass" : "newobj",
					"text" : "s local_text_stream",
					"patching_rect" : [ 29.0, 497.0, 114.0, 20.0 ],
					"numinlets" : 1,
					"id" : "obj-52",
					"fontname" : "Arial",
					"numoutlets" : 0,
					"fontsize" : 12.0
				}

			}
, 			{
				"box" : 				{
					"maxclass" : "message",
					"text" : "endoframp",
					"patching_rect" : [ 237.0, 208.0, 68.0, 18.0 ],
					"numinlets" : 2,
					"id" : "obj-51",
					"fontname" : "Arial",
					"numoutlets" : 1,
					"outlettype" : [ "" ],
					"fontsize" : 12.0
				}

			}
, 			{
				"box" : 				{
					"maxclass" : "number",
					"patching_rect" : [ 79.0, 76.0, 50.0, 20.0 ],
					"numinlets" : 1,
					"id" : "obj-49",
					"fontname" : "Arial",
					"numoutlets" : 2,
					"outlettype" : [ "int", "bang" ],
					"fontsize" : 12.0
				}

			}
, 			{
				"box" : 				{
					"maxclass" : "newobj",
					"text" : "prepend slide",
					"patching_rect" : [ 74.0, 111.0, 83.0, 20.0 ],
					"numinlets" : 1,
					"id" : "obj-47",
					"fontname" : "Arial",
					"numoutlets" : 1,
					"outlettype" : [ "" ],
					"fontsize" : 12.0
				}

			}
, 			{
				"box" : 				{
					"maxclass" : "newobj",
					"text" : "t endoframp",
					"patching_rect" : [ 620.0, 252.0, 75.0, 20.0 ],
					"numinlets" : 1,
					"id" : "obj-46",
					"fontname" : "Arial",
					"numoutlets" : 1,
					"outlettype" : [ "endoframp" ],
					"fontsize" : 12.0
				}

			}
, 			{
				"box" : 				{
					"maxclass" : "newobj",
					"patching_rect" : [ 179.0, 76.0, 100.0, 20.0 ],
					"numinlets" : 0,
					"id" : "obj-45",
					"fontname" : "Arial",
					"numoutlets" : 0,
					"fontsize" : 12.0
				}

			}
, 			{
				"box" : 				{
					"maxclass" : "button",
					"patching_rect" : [ 454.0, 17.0, 20.0, 20.0 ],
					"numinlets" : 1,
					"id" : "obj-44",
					"numoutlets" : 1,
					"outlettype" : [ "bang" ]
				}

			}
, 			{
				"box" : 				{
					"maxclass" : "newobj",
					"text" : "prepend read",
					"patching_rect" : [ 440.0, 94.0, 82.0, 20.0 ],
					"numinlets" : 1,
					"id" : "obj-42",
					"fontname" : "Arial",
					"numoutlets" : 1,
					"outlettype" : [ "" ],
					"fontsize" : 12.0
				}

			}
, 			{
				"box" : 				{
					"maxclass" : "newobj",
					"text" : "opendialog",
					"patching_rect" : [ 455.0, 44.0, 69.0, 20.0 ],
					"numinlets" : 1,
					"id" : "obj-41",
					"fontname" : "Arial",
					"numoutlets" : 2,
					"outlettype" : [ "", "bang" ],
					"fontsize" : 12.0
				}

			}
, 			{
				"box" : 				{
					"maxclass" : "message",
					"text" : "speedy:/Users/polandpolas/Documents/macek_pola_karaoke_j",
					"patching_rect" : [ 411.0, 70.0, 345.0, 18.0 ],
					"numinlets" : 2,
					"id" : "obj-40",
					"fontname" : "Arial",
					"numoutlets" : 1,
					"presentation_rect" : [ 386.0, 45.0, 0.0, 0.0 ],
					"outlettype" : [ "" ],
					"fontsize" : 12.0
				}

			}
, 			{
				"box" : 				{
					"maxclass" : "newobj",
					"text" : "r k_time",
					"patching_rect" : [ 479.0, 132.0, 53.0, 20.0 ],
					"numinlets" : 0,
					"id" : "obj-39",
					"fontname" : "Arial",
					"numoutlets" : 1,
					"outlettype" : [ "" ],
					"fontsize" : 12.0
				}

			}
, 			{
				"box" : 				{
					"maxclass" : "newobj",
					"text" : "jit.op @op *",
					"patching_rect" : [ 30.0, 399.0, 73.0, 20.0 ],
					"numinlets" : 2,
					"id" : "obj-38",
					"fontname" : "Arial",
					"numoutlets" : 2,
					"outlettype" : [ "jit_matrix", "" ],
					"fontsize" : 12.0
				}

			}
, 			{
				"box" : 				{
					"maxclass" : "message",
					"text" : "1600",
					"patching_rect" : [ 414.0, 128.0, 37.0, 18.0 ],
					"numinlets" : 2,
					"id" : "obj-37",
					"fontname" : "Arial",
					"numoutlets" : 1,
					"presentation_rect" : [ 414.0, 128.0, 0.0, 0.0 ],
					"outlettype" : [ "" ],
					"fontsize" : 12.0
				}

			}
, 			{
				"box" : 				{
					"maxclass" : "message",
					"text" : "150",
					"patching_rect" : [ 363.0, 128.0, 32.5, 18.0 ],
					"numinlets" : 2,
					"id" : "obj-36",
					"fontname" : "Arial",
					"numoutlets" : 1,
					"outlettype" : [ "" ],
					"fontsize" : 12.0
				}

			}
, 			{
				"box" : 				{
					"maxclass" : "newobj",
					"text" : "b",
					"patching_rect" : [ 241.0, 280.0, 32.5, 20.0 ],
					"numinlets" : 1,
					"id" : "obj-34",
					"fontname" : "Arial",
					"numoutlets" : 2,
					"outlettype" : [ "bang", "bang" ],
					"fontsize" : 12.0
				}

			}
, 			{
				"box" : 				{
					"maxclass" : "newobj",
					"text" : "t b i",
					"patching_rect" : [ 263.0, 260.0, 32.5, 20.0 ],
					"numinlets" : 1,
					"id" : "obj-33",
					"fontname" : "Arial",
					"numoutlets" : 2,
					"outlettype" : [ "bang", "int" ],
					"fontsize" : 12.0
				}

			}
, 			{
				"box" : 				{
					"maxclass" : "message",
					"text" : "frgb 255 0 0 0, brgb 255 255 255, clear, bang",
					"patching_rect" : [ 486.0, 281.0, 251.0, 18.0 ],
					"numinlets" : 2,
					"id" : "obj-31",
					"fontname" : "Arial",
					"numoutlets" : 1,
					"presentation_rect" : [ 486.0, 281.0, 0.0, 0.0 ],
					"outlettype" : [ "" ],
					"fontsize" : 12.0
				}

			}
, 			{
				"box" : 				{
					"maxclass" : "newobj",
					"text" : "zl rev",
					"patching_rect" : [ 506.0, 211.0, 39.0, 20.0 ],
					"numinlets" : 2,
					"id" : "obj-30",
					"fontname" : "Arial",
					"numoutlets" : 2,
					"outlettype" : [ "", "" ],
					"fontsize" : 12.0
				}

			}
, 			{
				"box" : 				{
					"maxclass" : "newobj",
					"text" : "pack",
					"patching_rect" : [ 506.0, 188.0, 36.0, 20.0 ],
					"numinlets" : 2,
					"id" : "obj-29",
					"fontname" : "Arial",
					"numoutlets" : 1,
					"outlettype" : [ "" ],
					"fontsize" : 12.0
				}

			}
, 			{
				"box" : 				{
					"maxclass" : "newobj",
					"text" : "unpack i i i i",
					"patching_rect" : [ 339.0, 213.0, 73.0, 20.0 ],
					"numinlets" : 1,
					"id" : "obj-28",
					"fontname" : "Arial",
					"numoutlets" : 4,
					"outlettype" : [ "int", "int", "int", "int" ],
					"fontsize" : 12.0
				}

			}
, 			{
				"box" : 				{
					"maxclass" : "newobj",
					"text" : "route rect time",
					"patching_rect" : [ 339.0, 187.0, 87.0, 20.0 ],
					"numinlets" : 1,
					"id" : "obj-27",
					"fontname" : "Arial",
					"numoutlets" : 3,
					"outlettype" : [ "", "", "" ],
					"fontsize" : 12.0
				}

			}
, 			{
				"box" : 				{
					"maxclass" : "newobj",
					"text" : "pack paintrect 0 0 1 1",
					"patching_rect" : [ 312.0, 285.0, 125.0, 20.0 ],
					"numinlets" : 5,
					"id" : "obj-26",
					"fontname" : "Arial",
					"numoutlets" : 1,
					"outlettype" : [ "" ],
					"fontsize" : 12.0
				}

			}
, 			{
				"box" : 				{
					"maxclass" : "newobj",
					"text" : "line",
					"patching_rect" : [ 487.0, 235.0, 73.0, 20.0 ],
					"numinlets" : 3,
					"id" : "obj-25",
					"fontname" : "Arial",
					"numoutlets" : 2,
					"outlettype" : [ "", "" ],
					"fontsize" : 12.0
				}

			}
, 			{
				"box" : 				{
					"maxclass" : "newobj",
					"text" : "p detonate_example",
					"patching_rect" : [ 583.0, 134.0, 135.0, 20.0 ],
					"numinlets" : 0,
					"id" : "obj-20",
					"fontname" : "Arial",
					"numoutlets" : 0,
					"fontsize" : 11.595187,
					"patcher" : 					{
						"fileversion" : 1,
						"rect" : [ 54.0, 103.0, 758.0, 538.0 ],
						"bglocked" : 0,
						"defrect" : [ 54.0, 103.0, 758.0, 538.0 ],
						"openrect" : [ 0.0, 0.0, 0.0, 0.0 ],
						"openinpresentation" : 0,
						"default_fontsize" : 10.0,
						"default_fontface" : 0,
						"default_fontname" : "Arial",
						"gridonopen" : 0,
						"gridsize" : [ 15.0, 15.0 ],
						"gridsnaponopen" : 0,
						"toolbarvisible" : 1,
						"boxanimatetime" : 200,
						"imprint" : 0,
						"boxes" : [ 							{
								"box" : 								{
									"maxclass" : "newobj",
									"text" : "r karaoke_counter",
									"patching_rect" : [ 360.0, 164.0, 91.0, 18.0 ],
									"numinlets" : 0,
									"id" : "obj-64",
									"fontname" : "Arial",
									"numoutlets" : 1,
									"outlettype" : [ "" ],
									"fontsize" : 10.0
								}

							}
, 							{
								"box" : 								{
									"maxclass" : "newobj",
									"text" : "r karaoke_nextword",
									"patching_rect" : [ 328.0, 135.0, 98.0, 18.0 ],
									"numinlets" : 0,
									"id" : "obj-63",
									"fontname" : "Arial",
									"numoutlets" : 1,
									"outlettype" : [ "" ],
									"fontsize" : 10.0
								}

							}
, 							{
								"box" : 								{
									"maxclass" : "button",
									"patching_rect" : [ 313.0, 160.0, 20.0, 20.0 ],
									"numinlets" : 1,
									"id" : "obj-62",
									"numoutlets" : 1,
									"outlettype" : [ "bang" ]
								}

							}
, 							{
								"box" : 								{
									"maxclass" : "newobj",
									"text" : "counter",
									"patching_rect" : [ 311.0, 189.0, 73.0, 18.0 ],
									"numinlets" : 5,
									"id" : "obj-60",
									"fontname" : "Arial",
									"numoutlets" : 4,
									"outlettype" : [ "int", "", "", "int" ],
									"fontsize" : 10.0
								}

							}
, 							{
								"box" : 								{
									"maxclass" : "number",
									"patching_rect" : [ 219.0, 197.0, 50.0, 18.0 ],
									"numinlets" : 1,
									"id" : "obj-59",
									"fontname" : "Arial",
									"numoutlets" : 2,
									"outlettype" : [ "int", "bang" ],
									"fontsize" : 10.0
								}

							}
, 							{
								"box" : 								{
									"maxclass" : "newobj",
									"text" : "s k_time",
									"patching_rect" : [ 456.0, 250.0, 48.0, 18.0 ],
									"numinlets" : 1,
									"id" : "obj-54",
									"fontname" : "Arial",
									"numoutlets" : 0,
									"fontsize" : 10.0
								}

							}
, 							{
								"box" : 								{
									"maxclass" : "number",
									"patching_rect" : [ 348.0, 255.0, 50.0, 18.0 ],
									"numinlets" : 1,
									"id" : "obj-53",
									"fontname" : "Arial",
									"numoutlets" : 2,
									"presentation_rect" : [ 348.0, 255.0, 0.0, 0.0 ],
									"outlettype" : [ "int", "bang" ],
									"fontsize" : 10.0
								}

							}
, 							{
								"box" : 								{
									"maxclass" : "number",
									"patching_rect" : [ 295.0, 259.0, 50.0, 18.0 ],
									"numinlets" : 1,
									"id" : "obj-52",
									"fontname" : "Arial",
									"numoutlets" : 2,
									"outlettype" : [ "int", "bang" ],
									"fontsize" : 10.0
								}

							}
, 							{
								"box" : 								{
									"maxclass" : "comment",
									"text" : "A detonate example interfaced with MAX",
									"patching_rect" : [ 13.0, 5.0, 323.0, 20.0 ],
									"numinlets" : 1,
									"id" : "obj-1",
									"fontname" : "Arial",
									"numoutlets" : 0,
									"fontsize" : 11.595187
								}

							}
, 							{
								"box" : 								{
									"maxclass" : "message",
									"text" : "next",
									"patching_rect" : [ 79.0, 194.0, 30.0, 18.0 ],
									"numinlets" : 2,
									"id" : "obj-10",
									"fontname" : "Arial",
									"numoutlets" : 1,
									"outlettype" : [ "" ],
									"fontsize" : 11.595187
								}

							}
, 							{
								"box" : 								{
									"maxclass" : "newobj",
									"text" : "r exp_message",
									"patching_rect" : [ 31.0, 146.0, 88.0, 20.0 ],
									"numinlets" : 0,
									"id" : "obj-11",
									"fontname" : "Arial",
									"numoutlets" : 1,
									"outlettype" : [ "" ],
									"fontsize" : 11.595187
								}

							}
, 							{
								"box" : 								{
									"maxclass" : "newobj",
									"text" : "notein",
									"patching_rect" : [ 118.0, 69.0, 211.0, 20.0 ],
									"numinlets" : 1,
									"id" : "obj-12",
									"fontname" : "Arial",
									"numoutlets" : 3,
									"outlettype" : [ "int", "int", "int" ],
									"fontsize" : 11.595187
								}

							}
, 							{
								"box" : 								{
									"maxclass" : "newobj",
									"text" : "pack 0 0 0",
									"patching_rect" : [ 118.0, 149.333328, 115.0, 20.0 ],
									"numinlets" : 3,
									"id" : "obj-13",
									"fontname" : "Arial",
									"numoutlets" : 1,
									"outlettype" : [ "" ],
									"fontsize" : 11.595187
								}

							}
, 							{
								"box" : 								{
									"maxclass" : "newobj",
									"text" : "timer",
									"patching_rect" : [ 118.0, 123.333328, 43.0, 20.0 ],
									"numinlets" : 2,
									"id" : "obj-14",
									"fontname" : "Arial",
									"numoutlets" : 2,
									"outlettype" : [ "float", "" ],
									"fontsize" : 11.595187
								}

							}
, 							{
								"box" : 								{
									"maxclass" : "newobj",
									"text" : "t b b i",
									"patching_rect" : [ 118.0, 94.333336, 67.0, 20.0 ],
									"numinlets" : 1,
									"id" : "obj-15",
									"fontname" : "Arial",
									"numoutlets" : 3,
									"outlettype" : [ "bang", "bang", "int" ],
									"fontsize" : 11.595187
								}

							}
, 							{
								"box" : 								{
									"maxclass" : "newobj",
									"text" : "r timer_message",
									"patching_rect" : [ 14.0, 69.0, 95.0, 20.0 ],
									"numinlets" : 0,
									"id" : "obj-16",
									"fontname" : "Arial",
									"numoutlets" : 1,
									"outlettype" : [ "" ],
									"fontsize" : 11.595187
								}

							}
, 							{
								"box" : 								{
									"maxclass" : "toggle",
									"patching_rect" : [ 30.0, 304.0, 20.0, 20.0 ],
									"numinlets" : 1,
									"id" : "obj-17",
									"numoutlets" : 1,
									"outlettype" : [ "int" ]
								}

							}
, 							{
								"box" : 								{
									"maxclass" : "newobj",
									"text" : "gate",
									"patching_rect" : [ 30.0, 328.0, 107.0, 20.0 ],
									"numinlets" : 2,
									"id" : "obj-18",
									"fontname" : "Arial",
									"numoutlets" : 1,
									"outlettype" : [ "" ],
									"fontsize" : 11.595187
								}

							}
, 							{
								"box" : 								{
									"maxclass" : "newobj",
									"text" : "r gate_message",
									"patching_rect" : [ 30.0, 280.0, 92.0, 20.0 ],
									"numinlets" : 0,
									"id" : "obj-19",
									"fontname" : "Arial",
									"numoutlets" : 1,
									"outlettype" : [ "" ],
									"fontsize" : 11.595187
								}

							}
, 							{
								"box" : 								{
									"maxclass" : "comment",
									"text" : "You will see that you can input events via MIDI, and then playback or follow your score also via MIDI. There are message boxes for playback, recording, following, writing data into the detonate, and reading and writing files from/to the disk.",
									"linecount" : 4,
									"patching_rect" : [ 389.0, 259.0, 332.0, 60.0 ],
									"numinlets" : 1,
									"id" : "obj-2",
									"fontname" : "Arial",
									"numoutlets" : 0,
									"fontsize" : 11.595187
								}

							}
, 							{
								"box" : 								{
									"maxclass" : "comment",
									"text" : "time the incoming notes",
									"patching_rect" : [ 374.0, 79.0, 131.0, 20.0 ],
									"numinlets" : 1,
									"id" : "obj-20",
									"fontname" : "Arial",
									"numoutlets" : 0,
									"fontsize" : 11.595187
								}

							}
, 							{
								"box" : 								{
									"maxclass" : "comment",
									"text" : "timed delay 'bangs' the 'next' message to step through the event list",
									"linecount" : 2,
									"patching_rect" : [ 162.0, 304.0, 205.0, 33.0 ],
									"numinlets" : 1,
									"id" : "obj-21",
									"fontname" : "Arial",
									"numoutlets" : 0,
									"fontsize" : 11.595187
								}

							}
, 							{
								"box" : 								{
									"maxclass" : "message",
									"text" : ";\rfollow_gate 0;\rgate_message 1;\rexp_message start, next",
									"linecount" : 5,
									"patching_rect" : [ 185.0, 361.0, 103.0, 71.0 ],
									"numinlets" : 2,
									"id" : "obj-22",
									"fontname" : "Arial",
									"numoutlets" : 1,
									"outlettype" : [ "" ],
									"fontsize" : 11.595187
								}

							}
, 							{
								"box" : 								{
									"maxclass" : "message",
									"text" : ";\rfollow_gate 1;\rgate_message 0;\rexp_message followat 63 120 1",
									"linecount" : 5,
									"patching_rect" : [ 305.0, 449.0, 102.0, 71.0 ],
									"numinlets" : 2,
									"id" : "obj-23",
									"fontname" : "Arial",
									"numoutlets" : 1,
									"outlettype" : [ "" ],
									"fontsize" : 11.595187
								}

							}
, 							{
								"box" : 								{
									"maxclass" : "message",
									"text" : ";\rfollow_gate 0;\rgate_message 1;\rexp_message startat 63 120 1, next",
									"linecount" : 5,
									"patching_rect" : [ 185.0, 449.0, 119.0, 71.0 ],
									"numinlets" : 2,
									"id" : "obj-24",
									"fontname" : "Arial",
									"numoutlets" : 1,
									"outlettype" : [ "" ],
									"fontsize" : 11.595187
								}

							}
, 							{
								"box" : 								{
									"maxclass" : "message",
									"text" : ";\rfollow_gate 1;\rgate_message 0;\rexp_message follow",
									"linecount" : 4,
									"patching_rect" : [ 305.0, 361.0, 114.0, 58.0 ],
									"numinlets" : 2,
									"id" : "obj-25",
									"fontname" : "Arial",
									"numoutlets" : 1,
									"outlettype" : [ "" ],
									"fontsize" : 11.595187
								}

							}
, 							{
								"box" : 								{
									"maxclass" : "message",
									"text" : ";\rexp_message export",
									"linecount" : 3,
									"patching_rect" : [ 661.0, 449.0, 68.0, 44.0 ],
									"numinlets" : 2,
									"id" : "obj-26",
									"fontname" : "Arial",
									"numoutlets" : 1,
									"outlettype" : [ "" ],
									"fontsize" : 11.595187
								}

							}
, 							{
								"box" : 								{
									"maxclass" : "message",
									"text" : ";\rexp_message import",
									"linecount" : 3,
									"patching_rect" : [ 661.0, 361.0, 68.0, 44.0 ],
									"numinlets" : 2,
									"id" : "obj-27",
									"fontname" : "Arial",
									"numoutlets" : 1,
									"outlettype" : [ "" ],
									"fontsize" : 11.595187
								}

							}
, 							{
								"box" : 								{
									"maxclass" : "comment",
									"text" : "EXPORT",
									"patching_rect" : [ 661.0, 430.0, 59.0, 20.0 ],
									"numinlets" : 1,
									"id" : "obj-28",
									"fontname" : "Arial",
									"numoutlets" : 0,
									"fontsize" : 11.595187
								}

							}
, 							{
								"box" : 								{
									"maxclass" : "comment",
									"text" : "IMPORT",
									"patching_rect" : [ 661.0, 342.0, 56.0, 20.0 ],
									"numinlets" : 1,
									"id" : "obj-29",
									"fontname" : "Arial",
									"numoutlets" : 0,
									"fontsize" : 11.595187
								}

							}
, 							{
								"box" : 								{
									"maxclass" : "comment",
									"text" : "To make use of its play/record/follow modes, detonate can be interfaced with MAX. One possible MAX interface is shown below:",
									"linecount" : 2,
									"patching_rect" : [ 13.0, 26.0, 357.0, 33.0 ],
									"numinlets" : 1,
									"id" : "obj-3",
									"fontname" : "Arial",
									"numoutlets" : 0,
									"fontsize" : 11.595187
								}

							}
, 							{
								"box" : 								{
									"maxclass" : "comment",
									"text" : "FOLLOW",
									"patching_rect" : [ 305.0, 342.0, 69.0, 20.0 ],
									"numinlets" : 1,
									"id" : "obj-30",
									"fontname" : "Arial",
									"numoutlets" : 0,
									"fontsize" : 11.595187
								}

							}
, 							{
								"box" : 								{
									"maxclass" : "comment",
									"text" : "FOLLOWAT",
									"patching_rect" : [ 305.0, 430.0, 76.0, 20.0 ],
									"numinlets" : 1,
									"id" : "obj-31",
									"fontname" : "Arial",
									"numoutlets" : 0,
									"fontsize" : 11.595187
								}

							}
, 							{
								"box" : 								{
									"maxclass" : "comment",
									"text" : "STARTAT",
									"patching_rect" : [ 185.0, 430.0, 74.0, 20.0 ],
									"numinlets" : 1,
									"id" : "obj-32",
									"fontname" : "Arial",
									"numoutlets" : 0,
									"fontsize" : 11.595187
								}

							}
, 							{
								"box" : 								{
									"maxclass" : "comment",
									"text" : "PLAY",
									"patching_rect" : [ 185.0, 342.0, 45.0, 20.0 ],
									"numinlets" : 1,
									"id" : "obj-33",
									"fontname" : "Arial",
									"numoutlets" : 0,
									"fontsize" : 11.595187
								}

							}
, 							{
								"box" : 								{
									"maxclass" : "comment",
									"text" : "STOP",
									"patching_rect" : [ 424.0, 430.0, 45.0, 20.0 ],
									"numinlets" : 1,
									"id" : "obj-34",
									"fontname" : "Arial",
									"numoutlets" : 0,
									"fontsize" : 11.595187
								}

							}
, 							{
								"box" : 								{
									"maxclass" : "comment",
									"text" : "RECORD",
									"patching_rect" : [ 424.0, 342.0, 61.0, 20.0 ],
									"numinlets" : 1,
									"id" : "obj-35",
									"fontname" : "Arial",
									"numoutlets" : 0,
									"fontsize" : 11.595187
								}

							}
, 							{
								"box" : 								{
									"maxclass" : "message",
									"text" : ";\rfollow_gate 0;\rgate_message 0;\rtimer_message bang;\rexp_message record",
									"linecount" : 5,
									"patching_rect" : [ 424.0, 361.0, 123.0, 71.0 ],
									"numinlets" : 2,
									"id" : "obj-36",
									"fontname" : "Arial",
									"numoutlets" : 1,
									"outlettype" : [ "" ],
									"fontsize" : 11.595187
								}

							}
, 							{
								"box" : 								{
									"maxclass" : "message",
									"text" : ";\rfollow_gate 0;\rexp_message stop;\rgate_message 0;\rclear stop",
									"linecount" : 5,
									"patching_rect" : [ 424.0, 449.0, 112.0, 71.0 ],
									"numinlets" : 2,
									"id" : "obj-37",
									"fontname" : "Arial",
									"numoutlets" : 1,
									"outlettype" : [ "" ],
									"fontsize" : 11.595187
								}

							}
, 							{
								"box" : 								{
									"maxclass" : "message",
									"text" : ";\rfollow_gate 0;\rgate_message 1;\rexp_message nth 3",
									"linecount" : 4,
									"patching_rect" : [ 546.0, 449.0, 110.0, 58.0 ],
									"numinlets" : 2,
									"id" : "obj-38",
									"fontname" : "Arial",
									"numoutlets" : 1,
									"outlettype" : [ "" ],
									"fontsize" : 11.595187
								}

							}
, 							{
								"box" : 								{
									"maxclass" : "message",
									"text" : ";\rfollow_gate 0;\rgate_message 1;\rexp_message nth 1",
									"linecount" : 4,
									"patching_rect" : [ 546.0, 361.0, 110.0, 58.0 ],
									"numinlets" : 2,
									"id" : "obj-39",
									"fontname" : "Arial",
									"numoutlets" : 1,
									"outlettype" : [ "" ],
									"fontsize" : 11.595187
								}

							}
, 							{
								"box" : 								{
									"maxclass" : "newobj",
									"text" : "r clear",
									"patching_rect" : [ 75.0, 218.0, 41.0, 20.0 ],
									"numinlets" : 0,
									"id" : "obj-4",
									"fontname" : "Arial",
									"numoutlets" : 1,
									"outlettype" : [ "" ],
									"fontsize" : 11.595187
								}

							}
, 							{
								"box" : 								{
									"maxclass" : "comment",
									"text" : "NTH",
									"patching_rect" : [ 546.0, 430.0, 45.0, 20.0 ],
									"numinlets" : 1,
									"id" : "obj-40",
									"fontname" : "Arial",
									"numoutlets" : 0,
									"fontsize" : 11.595187
								}

							}
, 							{
								"box" : 								{
									"maxclass" : "comment",
									"text" : "NTH",
									"patching_rect" : [ 546.0, 342.0, 45.0, 20.0 ],
									"numinlets" : 1,
									"id" : "obj-41",
									"fontname" : "Arial",
									"numoutlets" : 0,
									"fontsize" : 11.595187
								}

							}
, 							{
								"box" : 								{
									"maxclass" : "newobj",
									"text" : "r follow_gate",
									"patching_rect" : [ 82.0, 356.0, 74.0, 20.0 ],
									"numinlets" : 0,
									"id" : "obj-42",
									"fontname" : "Arial",
									"numoutlets" : 1,
									"outlettype" : [ "" ],
									"fontsize" : 11.595187
								}

							}
, 							{
								"box" : 								{
									"maxclass" : "comment",
									"text" : "notes which are followed are printed in the MAX window",
									"linecount" : 2,
									"patching_rect" : [ 28.0, 448.0, 159.0, 33.0 ],
									"numinlets" : 1,
									"id" : "obj-43",
									"fontname" : "Arial",
									"numoutlets" : 0,
									"fontsize" : 11.595187
								}

							}
, 							{
								"box" : 								{
									"maxclass" : "toggle",
									"patching_rect" : [ 82.0, 379.666656, 20.0, 20.0 ],
									"numinlets" : 1,
									"id" : "obj-44",
									"numoutlets" : 1,
									"outlettype" : [ "int" ]
								}

							}
, 							{
								"box" : 								{
									"maxclass" : "newobj",
									"text" : "gate",
									"patching_rect" : [ 82.0, 402.666656, 33.0, 20.0 ],
									"numinlets" : 2,
									"id" : "obj-45",
									"fontname" : "Arial",
									"numoutlets" : 1,
									"outlettype" : [ "" ],
									"fontsize" : 11.595187
								}

							}
, 							{
								"box" : 								{
									"maxclass" : "newobj",
									"text" : "print following",
									"patching_rect" : [ 82.0, 425.666656, 80.0, 20.0 ],
									"numinlets" : 1,
									"id" : "obj-46",
									"fontname" : "Arial",
									"numoutlets" : 0,
									"fontsize" : 11.595187
								}

							}
, 							{
								"box" : 								{
									"maxclass" : "comment",
									"text" : "note-offs determine durations",
									"patching_rect" : [ 375.0, 99.0, 159.0, 20.0 ],
									"numinlets" : 1,
									"id" : "obj-47",
									"fontname" : "Arial",
									"numoutlets" : 0,
									"fontsize" : 11.595187
								}

							}
, 							{
								"box" : 								{
									"maxclass" : "message",
									"text" : ";\rfollow_gate 0;\rgate_message 0;\rexp_message record;\rexp_message 1000 60 127 500 1, 2000 63 120 1000 1, 1000 66 100 400 1, 1000 71 95 2000 1, 1000 66 100 400 1;\rexp_message stop;\r",
									"linecount" : 11,
									"patching_rect" : [ 527.0, 80.0, 123.0, 151.0 ],
									"numinlets" : 2,
									"id" : "obj-48",
									"fontname" : "Arial",
									"numoutlets" : 1,
									"outlettype" : [ "" ],
									"fontsize" : 11.595187
								}

							}
, 							{
								"box" : 								{
									"maxclass" : "comment",
									"text" : "RECORD A SPECIFIC SEQUENCE WITHOUT MIDI",
									"linecount" : 2,
									"patching_rect" : [ 498.0, 35.0, 171.0, 33.0 ],
									"numinlets" : 1,
									"id" : "obj-49",
									"fontname" : "Arial",
									"numoutlets" : 0,
									"fontsize" : 11.595187
								}

							}
, 							{
								"box" : 								{
									"maxclass" : "newobj",
									"text" : "makenote",
									"patching_rect" : [ 166.0, 255.0, 115.0, 20.0 ],
									"numinlets" : 3,
									"id" : "obj-5",
									"fontname" : "Arial",
									"numoutlets" : 2,
									"outlettype" : [ "int", "int" ],
									"fontsize" : 11.595187
								}

							}
, 							{
								"box" : 								{
									"maxclass" : "comment",
									"text" : "stop pending delays",
									"linecount" : 3,
									"patching_rect" : [ 31.0, 217.0, 53.0, 46.0 ],
									"numinlets" : 1,
									"id" : "obj-50",
									"fontname" : "Arial",
									"numoutlets" : 0,
									"fontsize" : 11.595187
								}

							}
, 							{
								"box" : 								{
									"maxclass" : "newobj",
									"text" : "noteout",
									"patching_rect" : [ 166.0, 282.0, 211.0, 20.0 ],
									"numinlets" : 3,
									"id" : "obj-6",
									"fontname" : "Arial",
									"numoutlets" : 0,
									"fontsize" : 11.595187
								}

							}
, 							{
								"box" : 								{
									"maxclass" : "newobj",
									"text" : "del",
									"patching_rect" : [ 118.0, 297.0, 39.0, 20.0 ],
									"numinlets" : 2,
									"id" : "obj-7",
									"fontname" : "Arial",
									"numoutlets" : 1,
									"outlettype" : [ "bang" ],
									"fontsize" : 11.595187
								}

							}
, 							{
								"box" : 								{
									"maxclass" : "newobj",
									"text" : "detonate",
									"patching_rect" : [ 118.0, 219.0, 355.0, 20.0 ],
									"numinlets" : 8,
									"id" : "obj-8",
									"fontname" : "Arial",
									"numoutlets" : 8,
									"outlettype" : [ "int", "int", "int", "int", "int", "int", "int", "int" ],
									"fontsize" : 11.595187,
									"save" : [ "#N", "detonate", "", ";", "#X", "setparam", 0, "Time", 0, 0, 999999, 0, 1000, 200, 0, ";", "#X", "setparam", 1, "Pitch", 0, 0, 127, 60, 12, 4, 0, ";", "#X", "setparam", 2, "Vel", 0, 0, 127, 64, 12, 4, 0, ";", "#X", "setparam", 3, "Dur", 0, 1, 99999, 200, 800, 200, 0, ";", "#X", "setparam", 4, "Chan", 0, 1, 16, 1, 8, 1, 0, ";", "#X", "setparam", 5, "Track", 0, 1, 32, 1, 8, 1, 0, ";", "#X", "setparam", 6, "X1", 0, 0, 999, 0, 80, 20, 0, ";", "#X", "setparam", 7, "X2", 0, 0, 999, 0, 80, 20, 0, ";", "#X", "restore", ";", "#X", 1000, 61, 80, 125, 1, 1, 0, 0, ";", "#X", 250, 61, 80, 437, 1, 1, 0, 0, ";", "#X", 2625, 61, 80, 1125, 1, 1, 0, 0, ";", "#X", 4375, 61, 80, 1133, 1, 1, 0, 0, ";", "#X", 4500, 60, 80, 160, 1, 1, 0, 0, ";", "#X", 249, 60, 80, 538, 1, 1, 0, 0, ";", "#X", 4001, 60, 80, 633, 1, 1, 0, 0, ";", "#X", 1375, 60, 80, 279, 1, 1, 0, 0, ";", "#X", 500, 60, 80, 980, 1, 1, 0, 0, ";", "#X", 5000, 60, 80, 100, 1, 1, 0, 0, ";", "#X", 125, 60, 80, 238, 1, 1, 0, 0, ";", "#X", 249, 60, 80, 610, 1, 1, 0, 0, ";", "#X", 1376, 60, 80, 307, 1, 1, 0, 0, ";", "#X", 375, 60, 80, 172, 1, 1, 0, 0, ";", "#X", 250, 60, 80, 381, 1, 1, 0, 0, ";", "#X", 6500, 60, 80, 172, 1, 1, 0, 0, ";", "#X", 500, 60, 80, 172, 1, 1, 0, 0, ";", "#X", 625, 60, 80, 172, 1, 1, 0, 0, ";", "#X", 375, 60, 80, 542, 1, 1, 0, 0, ";", "#X", 1500, 60, 80, 321, 1, 1, 0, 0, ";", "#X", 500, 60, 80, 608, 1, 1, 0, 0, ";", "#X", 1500, 60, 80, 586, 1, 1, 0, 0, ";", "#X", 3000, 60, 80, 178, 1, 1, 0, 0, ";", "#X", 250, 60, 80, 611, 1, 1, 0, 0, ";", "#X", 875, 60, 80, 153, 1, 1, 0, 0, ";", "#X", 250, 60, 80, 153, 1, 1, 0, 0, ";", "#X", 347, 60, 80, 348, 1, 1, 0, 0, ";", "#X", 1903, 60, 80, 178, 1, 1, 0, 0, ";", "#X", 250, 60, 80, 255, 1, 1, 0, 0, ";", "#X", 291, 60, 80, 385, 1, 1, 0, 0, ";", "#X", 584, 60, 80, 808, 1, 1, 0, 0, ";", "#X", 1625, 60, 80, 511, 1, 1, 0, 0, ";", "#X", 624, 60, 80, 158, 1, 1, 0, 0, ";", "#X", 625, 60, 80, 545, 1, 1, 0, 0, ";", "#X", 750, 60, 80, 158, 1, 1, 0, 0, ";", "#X", 250, 60, 80, 491, 1, 1, 0, 0, ";", "#X", 5501, 60, 80, 559, 1, 1, 0, 0, ";", "#X", 2375, 60, 80, 117, 1, 1, 0, 0, ";", "#X", 124, 60, 80, 631, 1, 1, 0, 0, ";", "#X", "stop", ";" ]
								}

							}
, 							{
								"box" : 								{
									"maxclass" : "newobj",
									"text" : "t b i",
									"patching_rect" : [ 118.0, 251.0, 39.0, 20.0 ],
									"numinlets" : 1,
									"id" : "obj-9",
									"fontname" : "Arial",
									"numoutlets" : 2,
									"outlettype" : [ "bang", "int" ],
									"fontsize" : 11.595187
								}

							}
 ],
						"lines" : [ 							{
								"patchline" : 								{
									"source" : [ "obj-64", 0 ],
									"destination" : [ "obj-60", 2 ],
									"hidden" : 0,
									"midpoints" : [  ]
								}

							}
, 							{
								"patchline" : 								{
									"source" : [ "obj-63", 0 ],
									"destination" : [ "obj-62", 0 ],
									"hidden" : 0,
									"midpoints" : [  ]
								}

							}
, 							{
								"patchline" : 								{
									"source" : [ "obj-62", 0 ],
									"destination" : [ "obj-60", 0 ],
									"hidden" : 0,
									"midpoints" : [  ]
								}

							}
, 							{
								"patchline" : 								{
									"source" : [ "obj-60", 0 ],
									"destination" : [ "obj-8", 0 ],
									"hidden" : 0,
									"midpoints" : [  ]
								}

							}
, 							{
								"patchline" : 								{
									"source" : [ "obj-59", 0 ],
									"destination" : [ "obj-8", 0 ],
									"hidden" : 0,
									"midpoints" : [  ]
								}

							}
, 							{
								"patchline" : 								{
									"source" : [ "obj-8", 3 ],
									"destination" : [ "obj-54", 0 ],
									"hidden" : 0,
									"midpoints" : [  ]
								}

							}
, 							{
								"patchline" : 								{
									"source" : [ "obj-8", 3 ],
									"destination" : [ "obj-52", 0 ],
									"hidden" : 0,
									"midpoints" : [  ]
								}

							}
, 							{
								"patchline" : 								{
									"source" : [ "obj-11", 0 ],
									"destination" : [ "obj-8", 0 ],
									"hidden" : 0,
									"midpoints" : [ 40.5, 178.0, 127.5, 178.0 ]
								}

							}
, 							{
								"patchline" : 								{
									"source" : [ "obj-17", 0 ],
									"destination" : [ "obj-18", 0 ],
									"hidden" : 0,
									"midpoints" : [  ]
								}

							}
, 							{
								"patchline" : 								{
									"source" : [ "obj-19", 0 ],
									"destination" : [ "obj-17", 0 ],
									"hidden" : 0,
									"midpoints" : [  ]
								}

							}
, 							{
								"patchline" : 								{
									"source" : [ "obj-44", 0 ],
									"destination" : [ "obj-45", 0 ],
									"hidden" : 0,
									"midpoints" : [  ]
								}

							}
, 							{
								"patchline" : 								{
									"source" : [ "obj-42", 0 ],
									"destination" : [ "obj-44", 0 ],
									"hidden" : 0,
									"midpoints" : [  ]
								}

							}
, 							{
								"patchline" : 								{
									"source" : [ "obj-18", 0 ],
									"destination" : [ "obj-10", 0 ],
									"hidden" : 0,
									"midpoints" : [ 39.5, 357.0, 20.0, 357.0, 20.0, 189.0, 88.5, 189.0 ]
								}

							}
, 							{
								"patchline" : 								{
									"source" : [ "obj-45", 0 ],
									"destination" : [ "obj-46", 0 ],
									"hidden" : 0,
									"midpoints" : [  ]
								}

							}
, 							{
								"patchline" : 								{
									"source" : [ "obj-8", 1 ],
									"destination" : [ "obj-45", 1 ],
									"hidden" : 0,
									"midpoints" : [ 175.5, 252.0, 163.0, 252.0, 163.0, 397.0, 105.5, 397.0 ]
								}

							}
, 							{
								"patchline" : 								{
									"source" : [ "obj-12", 0 ],
									"destination" : [ "obj-15", 0 ],
									"hidden" : 0,
									"midpoints" : [  ]
								}

							}
, 							{
								"patchline" : 								{
									"source" : [ "obj-16", 0 ],
									"destination" : [ "obj-14", 0 ],
									"hidden" : 0,
									"midpoints" : [ 23.5, 117.0, 127.5, 117.0 ]
								}

							}
, 							{
								"patchline" : 								{
									"source" : [ "obj-15", 0 ],
									"destination" : [ "obj-14", 0 ],
									"hidden" : 0,
									"midpoints" : [  ]
								}

							}
, 							{
								"patchline" : 								{
									"source" : [ "obj-14", 0 ],
									"destination" : [ "obj-13", 0 ],
									"hidden" : 0,
									"midpoints" : [  ]
								}

							}
, 							{
								"patchline" : 								{
									"source" : [ "obj-13", 0 ],
									"destination" : [ "obj-8", 0 ],
									"hidden" : 0,
									"midpoints" : [  ]
								}

							}
, 							{
								"patchline" : 								{
									"source" : [ "obj-10", 0 ],
									"destination" : [ "obj-8", 0 ],
									"hidden" : 0,
									"midpoints" : [ 88.5, 218.0, 127.5, 218.0 ]
								}

							}
, 							{
								"patchline" : 								{
									"source" : [ "obj-8", 0 ],
									"destination" : [ "obj-9", 0 ],
									"hidden" : 0,
									"midpoints" : [  ]
								}

							}
, 							{
								"patchline" : 								{
									"source" : [ "obj-4", 0 ],
									"destination" : [ "obj-7", 0 ],
									"hidden" : 0,
									"midpoints" : [ 84.5, 273.0, 127.5, 273.0 ]
								}

							}
, 							{
								"patchline" : 								{
									"source" : [ "obj-9", 0 ],
									"destination" : [ "obj-7", 0 ],
									"hidden" : 0,
									"midpoints" : [  ]
								}

							}
, 							{
								"patchline" : 								{
									"source" : [ "obj-7", 0 ],
									"destination" : [ "obj-18", 1 ],
									"hidden" : 0,
									"midpoints" : [  ]
								}

							}
, 							{
								"patchline" : 								{
									"source" : [ "obj-15", 1 ],
									"destination" : [ "obj-14", 1 ],
									"hidden" : 0,
									"midpoints" : [  ]
								}

							}
, 							{
								"patchline" : 								{
									"source" : [ "obj-9", 1 ],
									"destination" : [ "obj-7", 1 ],
									"hidden" : 0,
									"midpoints" : [  ]
								}

							}
, 							{
								"patchline" : 								{
									"source" : [ "obj-15", 2 ],
									"destination" : [ "obj-13", 1 ],
									"hidden" : 0,
									"midpoints" : [  ]
								}

							}
, 							{
								"patchline" : 								{
									"source" : [ "obj-8", 1 ],
									"destination" : [ "obj-5", 0 ],
									"hidden" : 0,
									"midpoints" : [  ]
								}

							}
, 							{
								"patchline" : 								{
									"source" : [ "obj-4", 0 ],
									"destination" : [ "obj-5", 0 ],
									"hidden" : 0,
									"midpoints" : [ 84.5, 244.0, 175.5, 244.0 ]
								}

							}
, 							{
								"patchline" : 								{
									"source" : [ "obj-12", 1 ],
									"destination" : [ "obj-13", 2 ],
									"hidden" : 0,
									"midpoints" : [  ]
								}

							}
, 							{
								"patchline" : 								{
									"source" : [ "obj-8", 2 ],
									"destination" : [ "obj-5", 1 ],
									"hidden" : 0,
									"midpoints" : [  ]
								}

							}
, 							{
								"patchline" : 								{
									"source" : [ "obj-8", 3 ],
									"destination" : [ "obj-5", 2 ],
									"hidden" : 0,
									"midpoints" : [  ]
								}

							}
 ]
					}
,
					"saved_object_attributes" : 					{
						"default_fontname" : "Arial",
						"default_fontsize" : 10.0,
						"fontname" : "Arial",
						"globalpatchername" : "",
						"default_fontface" : 0,
						"fontface" : 0,
						"fontsize" : 10.0
					}

				}

			}
, 			{
				"box" : 				{
					"maxclass" : "newobj",
					"text" : "jit.lcd 4 char 360 288",
					"patching_rect" : [ 286.0, 307.0, 121.0, 20.0 ],
					"numinlets" : 1,
					"id" : "obj-23",
					"fontname" : "Arial",
					"numoutlets" : 2,
					"presentation_rect" : [ 458.0, 297.0, 0.0, 0.0 ],
					"outlettype" : [ "jit_matrix", "" ],
					"fontsize" : 12.0
				}

			}
, 			{
				"box" : 				{
					"maxclass" : "jit.pwindow",
					"patching_rect" : [ 376.0, 341.0, 256.0, 144.0 ],
					"numinlets" : 1,
					"id" : "obj-22",
					"numoutlets" : 2,
					"presentation_rect" : [ 104.0, 629.0, 256.0, 144.0 ],
					"outlettype" : [ "", "" ]
				}

			}
, 			{
				"box" : 				{
					"maxclass" : "number",
					"patching_rect" : [ 349.0, 18.0, 50.0, 20.0 ],
					"numinlets" : 1,
					"id" : "obj-21",
					"fontname" : "Arial",
					"numoutlets" : 2,
					"outlettype" : [ "int", "bang" ],
					"fontsize" : 12.0
				}

			}
, 			{
				"box" : 				{
					"maxclass" : "message",
					"text" : "textsize $1",
					"patching_rect" : [ 311.0, 46.0, 68.0, 18.0 ],
					"numinlets" : 2,
					"id" : "obj-19",
					"fontname" : "Arial",
					"numoutlets" : 1,
					"presentation_rect" : [ 311.0, 140.0, 0.0, 0.0 ],
					"outlettype" : [ "" ],
					"fontsize" : 12.0
				}

			}
, 			{
				"box" : 				{
					"maxclass" : "button",
					"patching_rect" : [ 106.0, 43.0, 20.0, 20.0 ],
					"numinlets" : 1,
					"id" : "obj-18",
					"numoutlets" : 1,
					"presentation_rect" : [ 106.0, 137.0, 0.0, 0.0 ],
					"outlettype" : [ "bang" ]
				}

			}
, 			{
				"box" : 				{
					"maxclass" : "message",
					"text" : "frgb 255 90 145",
					"patching_rect" : [ 310.0, 83.0, 95.0, 18.0 ],
					"numinlets" : 2,
					"id" : "obj-17",
					"fontname" : "Arial",
					"numoutlets" : 1,
					"outlettype" : [ "" ],
					"fontsize" : 12.0
				}

			}
, 			{
				"box" : 				{
					"maxclass" : "button",
					"patching_rect" : [ 34.0, 188.0, 20.0, 20.0 ],
					"numinlets" : 1,
					"id" : "obj-15",
					"numoutlets" : 1,
					"outlettype" : [ "bang" ]
				}

			}
, 			{
				"box" : 				{
					"maxclass" : "message",
					"text" : "compile,",
					"patching_rect" : [ 164.0, 100.0, 55.0, 18.0 ],
					"numinlets" : 2,
					"id" : "obj-7",
					"fontname" : "Arial",
					"numoutlets" : 1,
					"outlettype" : [ "" ],
					"fontsize" : 12.0
				}

			}
, 			{
				"box" : 				{
					"maxclass" : "newobj",
					"text" : "js pp.karaoke.render.js",
					"patching_rect" : [ 104.0, 158.0, 254.0, 20.0 ],
					"numinlets" : 1,
					"id" : "obj-5",
					"fontname" : "Arial",
					"numoutlets" : 2,
					"outlettype" : [ "", "" ],
					"fontsize" : 12.0
				}

			}
, 			{
				"box" : 				{
					"maxclass" : "message",
					"text" : "size 256 144",
					"patching_rect" : [ 582.0, 314.0, 79.0, 18.0 ],
					"numinlets" : 2,
					"id" : "obj-4",
					"fontname" : "Arial",
					"numoutlets" : 1,
					"outlettype" : [ "" ],
					"fontsize" : 12.0
				}

			}
, 			{
				"box" : 				{
					"maxclass" : "jit.pwindow",
					"patching_rect" : [ 104.0, 337.0, 256.0, 144.0 ],
					"numinlets" : 1,
					"id" : "obj-2",
					"numoutlets" : 2,
					"presentation_rect" : [ 0.0, 0.0, 256.0, 144.0 ],
					"outlettype" : [ "", "" ]
				}

			}
, 			{
				"box" : 				{
					"maxclass" : "newobj",
					"text" : "jit.lcd 4 char 360 288",
					"patching_rect" : [ 104.0, 296.0, 121.0, 20.0 ],
					"numinlets" : 1,
					"id" : "obj-1",
					"fontname" : "Arial",
					"numoutlets" : 2,
					"outlettype" : [ "jit_matrix", "" ],
					"fontsize" : 12.0
				}

			}
 ],
		"lines" : [ 			{
				"patchline" : 				{
					"source" : [ "obj-59", 0 ],
					"destination" : [ "obj-36", 0 ],
					"hidden" : 0,
					"midpoints" : [  ]
				}

			}
, 			{
				"patchline" : 				{
					"source" : [ "obj-58", 0 ],
					"destination" : [ "obj-47", 0 ],
					"hidden" : 0,
					"midpoints" : [  ]
				}

			}
, 			{
				"patchline" : 				{
					"source" : [ "obj-57", 0 ],
					"destination" : [ "obj-56", 0 ],
					"hidden" : 0,
					"midpoints" : [  ]
				}

			}
, 			{
				"patchline" : 				{
					"source" : [ "obj-40", 0 ],
					"destination" : [ "obj-57", 0 ],
					"hidden" : 0,
					"midpoints" : [  ]
				}

			}
, 			{
				"patchline" : 				{
					"source" : [ "obj-55", 0 ],
					"destination" : [ "obj-53", 0 ],
					"hidden" : 0,
					"midpoints" : [  ]
				}

			}
, 			{
				"patchline" : 				{
					"source" : [ "obj-4", 0 ],
					"destination" : [ "obj-22", 0 ],
					"hidden" : 0,
					"midpoints" : [  ]
				}

			}
, 			{
				"patchline" : 				{
					"source" : [ "obj-38", 0 ],
					"destination" : [ "obj-52", 0 ],
					"hidden" : 0,
					"midpoints" : [  ]
				}

			}
, 			{
				"patchline" : 				{
					"source" : [ "obj-46", 0 ],
					"destination" : [ "obj-5", 0 ],
					"hidden" : 0,
					"midpoints" : [  ]
				}

			}
, 			{
				"patchline" : 				{
					"source" : [ "obj-51", 0 ],
					"destination" : [ "obj-5", 0 ],
					"hidden" : 0,
					"midpoints" : [ 248.0, 224.0 ]
				}

			}
, 			{
				"patchline" : 				{
					"source" : [ "obj-49", 0 ],
					"destination" : [ "obj-47", 0 ],
					"hidden" : 0,
					"midpoints" : [  ]
				}

			}
, 			{
				"patchline" : 				{
					"source" : [ "obj-47", 0 ],
					"destination" : [ "obj-5", 0 ],
					"hidden" : 0,
					"midpoints" : [  ]
				}

			}
, 			{
				"patchline" : 				{
					"source" : [ "obj-25", 1 ],
					"destination" : [ "obj-46", 0 ],
					"hidden" : 0,
					"midpoints" : [ 550.5, 257.0 ]
				}

			}
, 			{
				"patchline" : 				{
					"source" : [ "obj-27", 2 ],
					"destination" : [ "obj-23", 0 ],
					"hidden" : 0,
					"midpoints" : [ 416.5, 312.0 ]
				}

			}
, 			{
				"patchline" : 				{
					"source" : [ "obj-44", 0 ],
					"destination" : [ "obj-41", 0 ],
					"hidden" : 0,
					"midpoints" : [  ]
				}

			}
, 			{
				"patchline" : 				{
					"source" : [ "obj-42", 0 ],
					"destination" : [ "obj-5", 0 ],
					"hidden" : 0,
					"midpoints" : [  ]
				}

			}
, 			{
				"patchline" : 				{
					"source" : [ "obj-41", 0 ],
					"destination" : [ "obj-42", 0 ],
					"hidden" : 0,
					"midpoints" : [  ]
				}

			}
, 			{
				"patchline" : 				{
					"source" : [ "obj-40", 0 ],
					"destination" : [ "obj-42", 0 ],
					"hidden" : 0,
					"midpoints" : [  ]
				}

			}
, 			{
				"patchline" : 				{
					"source" : [ "obj-41", 0 ],
					"destination" : [ "obj-40", 1 ],
					"hidden" : 0,
					"midpoints" : [  ]
				}

			}
, 			{
				"patchline" : 				{
					"source" : [ "obj-39", 0 ],
					"destination" : [ "obj-5", 0 ],
					"hidden" : 0,
					"midpoints" : [  ]
				}

			}
, 			{
				"patchline" : 				{
					"source" : [ "obj-37", 0 ],
					"destination" : [ "obj-5", 0 ],
					"hidden" : 0,
					"midpoints" : [  ]
				}

			}
, 			{
				"patchline" : 				{
					"source" : [ "obj-38", 0 ],
					"destination" : [ "obj-22", 0 ],
					"hidden" : 0,
					"midpoints" : [  ]
				}

			}
, 			{
				"patchline" : 				{
					"source" : [ "obj-23", 0 ],
					"destination" : [ "obj-38", 0 ],
					"hidden" : 0,
					"midpoints" : [  ]
				}

			}
, 			{
				"patchline" : 				{
					"source" : [ "obj-1", 0 ],
					"destination" : [ "obj-38", 1 ],
					"hidden" : 0,
					"midpoints" : [  ]
				}

			}
, 			{
				"patchline" : 				{
					"source" : [ "obj-36", 0 ],
					"destination" : [ "obj-5", 0 ],
					"hidden" : 0,
					"midpoints" : [  ]
				}

			}
, 			{
				"patchline" : 				{
					"source" : [ "obj-34", 0 ],
					"destination" : [ "obj-23", 0 ],
					"hidden" : 0,
					"midpoints" : [  ]
				}

			}
, 			{
				"patchline" : 				{
					"source" : [ "obj-34", 1 ],
					"destination" : [ "obj-26", 0 ],
					"hidden" : 0,
					"midpoints" : [  ]
				}

			}
, 			{
				"patchline" : 				{
					"source" : [ "obj-33", 0 ],
					"destination" : [ "obj-34", 0 ],
					"hidden" : 0,
					"midpoints" : [  ]
				}

			}
, 			{
				"patchline" : 				{
					"source" : [ "obj-33", 1 ],
					"destination" : [ "obj-26", 3 ],
					"hidden" : 0,
					"midpoints" : [ 286.0, 281.0, 401.0, 281.0 ]
				}

			}
, 			{
				"patchline" : 				{
					"source" : [ "obj-25", 0 ],
					"destination" : [ "obj-33", 0 ],
					"hidden" : 0,
					"midpoints" : [ 496.5, 259.0, 272.5, 259.0 ]
				}

			}
, 			{
				"patchline" : 				{
					"source" : [ "obj-28", 3 ],
					"destination" : [ "obj-26", 4 ],
					"hidden" : 0,
					"midpoints" : [ 402.5, 248.0, 427.5, 248.0 ]
				}

			}
, 			{
				"patchline" : 				{
					"source" : [ "obj-31", 0 ],
					"destination" : [ "obj-23", 0 ],
					"hidden" : 0,
					"midpoints" : [  ]
				}

			}
, 			{
				"patchline" : 				{
					"source" : [ "obj-30", 0 ],
					"destination" : [ "obj-25", 0 ],
					"hidden" : 0,
					"midpoints" : [  ]
				}

			}
, 			{
				"patchline" : 				{
					"source" : [ "obj-29", 0 ],
					"destination" : [ "obj-30", 0 ],
					"hidden" : 0,
					"midpoints" : [  ]
				}

			}
, 			{
				"patchline" : 				{
					"source" : [ "obj-27", 1 ],
					"destination" : [ "obj-29", 0 ],
					"hidden" : 0,
					"midpoints" : [ 382.5, 208.0, 469.0, 208.0, 469.0, 187.0, 515.5, 187.0 ]
				}

			}
, 			{
				"patchline" : 				{
					"source" : [ "obj-28", 2 ],
					"destination" : [ "obj-29", 1 ],
					"hidden" : 0,
					"midpoints" : [ 384.5, 238.0, 455.0, 238.0, 455.0, 178.0, 532.5, 178.0 ]
				}

			}
, 			{
				"patchline" : 				{
					"source" : [ "obj-26", 0 ],
					"destination" : [ "obj-23", 0 ],
					"hidden" : 0,
					"midpoints" : [ 321.5, 299.5, 295.5, 299.5 ]
				}

			}
, 			{
				"patchline" : 				{
					"source" : [ "obj-28", 0 ],
					"destination" : [ "obj-25", 0 ],
					"hidden" : 0,
					"midpoints" : [ 348.5, 235.0, 496.5, 235.0 ]
				}

			}
, 			{
				"patchline" : 				{
					"source" : [ "obj-28", 1 ],
					"destination" : [ "obj-26", 2 ],
					"hidden" : 0,
					"midpoints" : [ 366.5, 252.5, 374.5, 252.5 ]
				}

			}
, 			{
				"patchline" : 				{
					"source" : [ "obj-28", 0 ],
					"destination" : [ "obj-26", 1 ],
					"hidden" : 0,
					"midpoints" : [ 348.5, 242.0, 348.0, 242.0 ]
				}

			}
, 			{
				"patchline" : 				{
					"source" : [ "obj-27", 0 ],
					"destination" : [ "obj-28", 0 ],
					"hidden" : 0,
					"midpoints" : [  ]
				}

			}
, 			{
				"patchline" : 				{
					"source" : [ "obj-5", 1 ],
					"destination" : [ "obj-27", 0 ],
					"hidden" : 0,
					"midpoints" : [  ]
				}

			}
, 			{
				"patchline" : 				{
					"source" : [ "obj-21", 0 ],
					"destination" : [ "obj-19", 0 ],
					"hidden" : 0,
					"midpoints" : [  ]
				}

			}
, 			{
				"patchline" : 				{
					"source" : [ "obj-19", 0 ],
					"destination" : [ "obj-18", 0 ],
					"hidden" : 0,
					"midpoints" : [ 117.0, 42.0 ]
				}

			}
, 			{
				"patchline" : 				{
					"source" : [ "obj-19", 0 ],
					"destination" : [ "obj-5", 0 ],
					"hidden" : 0,
					"midpoints" : [  ]
				}

			}
, 			{
				"patchline" : 				{
					"source" : [ "obj-18", 0 ],
					"destination" : [ "obj-5", 0 ],
					"hidden" : 0,
					"midpoints" : [  ]
				}

			}
, 			{
				"patchline" : 				{
					"source" : [ "obj-17", 0 ],
					"destination" : [ "obj-5", 0 ],
					"hidden" : 0,
					"midpoints" : [  ]
				}

			}
, 			{
				"patchline" : 				{
					"source" : [ "obj-15", 0 ],
					"destination" : [ "obj-1", 0 ],
					"hidden" : 0,
					"midpoints" : [  ]
				}

			}
, 			{
				"patchline" : 				{
					"source" : [ "obj-1", 1 ],
					"destination" : [ "obj-5", 0 ],
					"hidden" : 0,
					"midpoints" : [  ]
				}

			}
, 			{
				"patchline" : 				{
					"source" : [ "obj-7", 0 ],
					"destination" : [ "obj-5", 0 ],
					"hidden" : 0,
					"midpoints" : [  ]
				}

			}
, 			{
				"patchline" : 				{
					"source" : [ "obj-5", 0 ],
					"destination" : [ "obj-1", 0 ],
					"hidden" : 0,
					"midpoints" : [  ]
				}

			}
, 			{
				"patchline" : 				{
					"source" : [ "obj-1", 0 ],
					"destination" : [ "obj-2", 0 ],
					"hidden" : 0,
					"midpoints" : [  ]
				}

			}
, 			{
				"patchline" : 				{
					"source" : [ "obj-4", 0 ],
					"destination" : [ "obj-2", 0 ],
					"hidden" : 0,
					"midpoints" : [  ]
				}

			}
 ]
	}

}
