{
	"patcher" : 	{
		"fileversion" : 1,
		"rect" : [ 439.0, 48.0, 987.0, 567.0 ],
		"bglocked" : 0,
		"defrect" : [ 439.0, 48.0, 987.0, 567.0 ],
		"openrect" : [ 0.0, 0.0, 0.0, 0.0 ],
		"openinpresentation" : 0,
		"default_fontsize" : 12.0,
		"default_fontface" : 0,
		"default_fontname" : "Arial",
		"gridonopen" : 0,
		"gridsize" : [ 15.0, 15.0 ],
		"gridsnaponopen" : 0,
		"toolbarvisible" : 1,
		"boxanimatetime" : 200,
		"imprint" : 0,
		"enablehscroll" : 1,
		"enablevscroll" : 1,
		"boxes" : [ 			{
				"box" : 				{
					"maxclass" : "message",
					"text" : "size 360 288",
					"patching_rect" : [ 62.0, 316.0, 79.0, 18.0 ],
					"fontsize" : 12.0,
					"outlettype" : [ "" ],
					"id" : "obj-57",
					"fontname" : "Arial",
					"numinlets" : 2,
					"numoutlets" : 1
				}

			}
, 			{
				"box" : 				{
					"maxclass" : "newobj",
					"text" : "route 1 2",
					"patching_rect" : [ 732.0, 269.0, 58.0, 20.0 ],
					"fontsize" : 12.0,
					"outlettype" : [ "", "", "" ],
					"id" : "obj-55",
					"fontname" : "Arial",
					"numinlets" : 1,
					"numoutlets" : 3
				}

			}
, 			{
				"box" : 				{
					"maxclass" : "newobj",
					"text" : "s to_k_text",
					"patching_rect" : [ 634.0, 367.0, 69.0, 20.0 ],
					"fontsize" : 12.0,
					"presentation_rect" : [ 634.0, 367.0, 0.0, 0.0 ],
					"id" : "obj-46",
					"fontname" : "Arial",
					"numinlets" : 1,
					"numoutlets" : 0
				}

			}
, 			{
				"box" : 				{
					"maxclass" : "newobj",
					"text" : "s to_k_text",
					"patching_rect" : [ 743.0, 385.0, 69.0, 20.0 ],
					"fontsize" : 12.0,
					"presentation_rect" : [ 743.0, 385.0, 0.0, 0.0 ],
					"id" : "obj-47",
					"fontname" : "Arial",
					"numinlets" : 1,
					"numoutlets" : 0
				}

			}
, 			{
				"box" : 				{
					"maxclass" : "newobj",
					"text" : "s to_k_text",
					"patching_rect" : [ 710.0, 460.0, 69.0, 20.0 ],
					"fontsize" : 12.0,
					"presentation_rect" : [ 710.0, 460.0, 0.0, 0.0 ],
					"id" : "obj-48",
					"fontname" : "Arial",
					"numinlets" : 1,
					"numoutlets" : 0
				}

			}
, 			{
				"box" : 				{
					"maxclass" : "newobj",
					"text" : "s to_k_text",
					"patching_rect" : [ 697.0, 533.0, 69.0, 20.0 ],
					"fontsize" : 12.0,
					"presentation_rect" : [ 697.0, 533.0, 0.0, 0.0 ],
					"id" : "obj-49",
					"fontname" : "Arial",
					"numinlets" : 1,
					"numoutlets" : 0
				}

			}
, 			{
				"box" : 				{
					"maxclass" : "newobj",
					"text" : "b 4",
					"patching_rect" : [ 683.0, 312.0, 59.5, 20.0 ],
					"fontsize" : 12.0,
					"outlettype" : [ "bang", "bang", "bang", "bang" ],
					"presentation_rect" : [ 683.0, 312.0, 0.0, 0.0 ],
					"id" : "obj-50",
					"fontname" : "Arial",
					"numinlets" : 1,
					"numoutlets" : 4
				}

			}
, 			{
				"box" : 				{
					"maxclass" : "newobj",
					"text" : "prepend text",
					"patching_rect" : [ 697.0, 511.0, 77.0, 20.0 ],
					"fontsize" : 12.0,
					"outlettype" : [ "" ],
					"presentation_rect" : [ 697.0, 511.0, 0.0, 0.0 ],
					"id" : "obj-51",
					"fontname" : "Arial",
					"numinlets" : 1,
					"numoutlets" : 1
				}

			}
, 			{
				"box" : 				{
					"maxclass" : "message",
					"patching_rect" : [ 697.0, 489.0, 168.0, 18.0 ],
					"fontsize" : 12.0,
					"outlettype" : [ "" ],
					"presentation_rect" : [ 697.0, 489.0, 0.0, 0.0 ],
					"id" : "obj-52",
					"fontname" : "Arial",
					"numinlets" : 2,
					"numoutlets" : 1
				}

			}
, 			{
				"box" : 				{
					"maxclass" : "message",
					"text" : "color 1. 1. 1. 1.",
					"patching_rect" : [ 710.0, 443.0, 90.0, 18.0 ],
					"fontsize" : 12.0,
					"outlettype" : [ "" ],
					"presentation_rect" : [ 710.0, 443.0, 0.0, 0.0 ],
					"id" : "obj-53",
					"fontname" : "Arial",
					"numinlets" : 2,
					"numoutlets" : 1
				}

			}
, 			{
				"box" : 				{
					"maxclass" : "message",
					"text" : "position -1 -0.6",
					"patching_rect" : [ 743.0, 360.0, 93.0, 18.0 ],
					"fontsize" : 12.0,
					"outlettype" : [ "" ],
					"presentation_rect" : [ 743.0, 360.0, 0.0, 0.0 ],
					"id" : "obj-54",
					"fontname" : "Arial",
					"numinlets" : 2,
					"numoutlets" : 1
				}

			}
, 			{
				"box" : 				{
					"maxclass" : "newobj",
					"text" : "s to_k_text",
					"patching_rect" : [ 419.0, 367.0, 69.0, 20.0 ],
					"fontsize" : 12.0,
					"presentation_rect" : [ 419.0, 367.0, 0.0, 0.0 ],
					"id" : "obj-45",
					"fontname" : "Arial",
					"numinlets" : 1,
					"numoutlets" : 0
				}

			}
, 			{
				"box" : 				{
					"maxclass" : "newobj",
					"text" : "s to_k_text",
					"patching_rect" : [ 528.0, 385.0, 69.0, 20.0 ],
					"fontsize" : 12.0,
					"presentation_rect" : [ 528.0, 385.0, 0.0, 0.0 ],
					"id" : "obj-41",
					"fontname" : "Arial",
					"numinlets" : 1,
					"numoutlets" : 0
				}

			}
, 			{
				"box" : 				{
					"maxclass" : "newobj",
					"text" : "s to_k_text",
					"patching_rect" : [ 270.0, 438.0, 69.0, 20.0 ],
					"fontsize" : 12.0,
					"presentation_rect" : [ 272.0, 447.0, 0.0, 0.0 ],
					"id" : "obj-39",
					"fontname" : "Arial",
					"numinlets" : 1,
					"numoutlets" : 0
				}

			}
, 			{
				"box" : 				{
					"maxclass" : "newobj",
					"text" : "prepend text",
					"patching_rect" : [ 270.0, 416.0, 77.0, 20.0 ],
					"fontsize" : 12.0,
					"outlettype" : [ "" ],
					"presentation_rect" : [ 272.0, 425.0, 0.0, 0.0 ],
					"id" : "obj-40",
					"fontname" : "Arial",
					"numinlets" : 1,
					"numoutlets" : 1
				}

			}
, 			{
				"box" : 				{
					"maxclass" : "newobj",
					"text" : "r to_k_text",
					"patching_rect" : [ 40.0, 472.0, 67.0, 20.0 ],
					"fontsize" : 12.0,
					"outlettype" : [ "" ],
					"id" : "obj-38",
					"fontname" : "Arial",
					"numinlets" : 0,
					"numoutlets" : 1
				}

			}
, 			{
				"box" : 				{
					"maxclass" : "newobj",
					"text" : "s to_k_text",
					"patching_rect" : [ 495.0, 460.0, 69.0, 20.0 ],
					"fontsize" : 12.0,
					"presentation_rect" : [ 554.0, 467.0, 0.0, 0.0 ],
					"id" : "obj-37",
					"fontname" : "Arial",
					"numinlets" : 1,
					"numoutlets" : 0
				}

			}
, 			{
				"box" : 				{
					"maxclass" : "newobj",
					"text" : "s to_k_text",
					"patching_rect" : [ 184.0, 344.0, 69.0, 20.0 ],
					"fontsize" : 12.0,
					"presentation_rect" : [ 184.0, 344.0, 0.0, 0.0 ],
					"id" : "obj-36",
					"fontname" : "Arial",
					"numinlets" : 1,
					"numoutlets" : 0
				}

			}
, 			{
				"box" : 				{
					"maxclass" : "newobj",
					"text" : "s to_k_text",
					"patching_rect" : [ 281.0, 365.0, 69.0, 20.0 ],
					"fontsize" : 12.0,
					"presentation_rect" : [ 362.0, 419.0, 0.0, 0.0 ],
					"id" : "obj-35",
					"fontname" : "Arial",
					"numinlets" : 1,
					"numoutlets" : 0
				}

			}
, 			{
				"box" : 				{
					"maxclass" : "newobj",
					"text" : "s to_k_text",
					"patching_rect" : [ 482.0, 533.0, 69.0, 20.0 ],
					"fontsize" : 12.0,
					"id" : "obj-34",
					"fontname" : "Arial",
					"numinlets" : 1,
					"numoutlets" : 0
				}

			}
, 			{
				"box" : 				{
					"maxclass" : "newobj",
					"text" : "sel 32",
					"patching_rect" : [ 240.0, 171.0, 43.0, 20.0 ],
					"fontsize" : 12.0,
					"outlettype" : [ "bang", "" ],
					"id" : "obj-32",
					"fontname" : "Arial",
					"numinlets" : 2,
					"numoutlets" : 2
				}

			}
, 			{
				"box" : 				{
					"maxclass" : "newobj",
					"text" : "key",
					"patching_rect" : [ 240.0, 131.0, 59.5, 20.0 ],
					"fontsize" : 12.0,
					"outlettype" : [ "int", "int", "int", "int" ],
					"id" : "obj-30",
					"fontname" : "Arial",
					"numinlets" : 0,
					"numoutlets" : 4
				}

			}
, 			{
				"box" : 				{
					"maxclass" : "button",
					"patching_rect" : [ 737.0, 95.0, 20.0, 20.0 ],
					"outlettype" : [ "bang" ],
					"id" : "obj-29",
					"numinlets" : 1,
					"numoutlets" : 1
				}

			}
, 			{
				"box" : 				{
					"maxclass" : "toggle",
					"patching_rect" : [ 129.0, 144.0, 20.0, 20.0 ],
					"outlettype" : [ "int" ],
					"id" : "obj-26",
					"numinlets" : 1,
					"numoutlets" : 1
				}

			}
, 			{
				"box" : 				{
					"maxclass" : "newobj",
					"text" : "b 3",
					"patching_rect" : [ 254.0, 281.0, 446.0, 20.0 ],
					"fontsize" : 12.0,
					"outlettype" : [ "bang", "bang", "bang" ],
					"id" : "obj-24",
					"fontname" : "Arial",
					"numinlets" : 1,
					"numoutlets" : 3
				}

			}
, 			{
				"box" : 				{
					"maxclass" : "newobj",
					"text" : "t b b erase",
					"patching_rect" : [ 122.0, 242.0, 67.0, 20.0 ],
					"fontsize" : 12.0,
					"outlettype" : [ "bang", "bang", "erase" ],
					"id" : "obj-16",
					"fontname" : "Arial",
					"numinlets" : 1,
					"numoutlets" : 3
				}

			}
, 			{
				"box" : 				{
					"maxclass" : "newobj",
					"text" : "qmetro 40",
					"patching_rect" : [ 111.0, 184.0, 65.0, 20.0 ],
					"fontsize" : 12.0,
					"outlettype" : [ "bang" ],
					"id" : "obj-14",
					"fontname" : "Arial",
					"numinlets" : 2,
					"numoutlets" : 1
				}

			}
, 			{
				"box" : 				{
					"maxclass" : "newobj",
					"text" : "b 4",
					"patching_rect" : [ 254.0, 309.0, 59.5, 20.0 ],
					"fontsize" : 12.0,
					"outlettype" : [ "bang", "bang", "bang", "bang" ],
					"id" : "obj-10",
					"fontname" : "Arial",
					"numinlets" : 1,
					"numoutlets" : 4
				}

			}
, 			{
				"box" : 				{
					"maxclass" : "newobj",
					"text" : "b 4",
					"patching_rect" : [ 468.0, 312.0, 59.5, 20.0 ],
					"fontsize" : 12.0,
					"outlettype" : [ "bang", "bang", "bang", "bang" ],
					"id" : "obj-9",
					"fontname" : "Arial",
					"numinlets" : 1,
					"numoutlets" : 4
				}

			}
, 			{
				"box" : 				{
					"maxclass" : "newobj",
					"text" : "prepend text",
					"patching_rect" : [ 482.0, 511.0, 77.0, 20.0 ],
					"fontsize" : 12.0,
					"outlettype" : [ "" ],
					"id" : "obj-8",
					"fontname" : "Arial",
					"numinlets" : 1,
					"numoutlets" : 1
				}

			}
, 			{
				"box" : 				{
					"maxclass" : "button",
					"patching_rect" : [ 314.0, 77.0, 20.0, 20.0 ],
					"outlettype" : [ "bang" ],
					"id" : "obj-5",
					"numinlets" : 1,
					"numoutlets" : 1
				}

			}
, 			{
				"box" : 				{
					"maxclass" : "message",
					"text" : "\"boxon:/Users/me/Documents/projets en cours/polandPolas/testtext\"",
					"patching_rect" : [ 314.0, 123.0, 418.0, 18.0 ],
					"fontsize" : 12.0,
					"outlettype" : [ "" ],
					"id" : "obj-3",
					"fontname" : "Arial",
					"numinlets" : 2,
					"numoutlets" : 1
				}

			}
, 			{
				"box" : 				{
					"maxclass" : "newobj",
					"text" : "prepend read",
					"patching_rect" : [ 314.0, 145.0, 82.0, 20.0 ],
					"fontsize" : 12.0,
					"outlettype" : [ "" ],
					"id" : "obj-2",
					"fontname" : "Arial",
					"numinlets" : 1,
					"numoutlets" : 1
				}

			}
, 			{
				"box" : 				{
					"maxclass" : "newobj",
					"text" : "opendialog",
					"patching_rect" : [ 314.0, 101.0, 69.0, 20.0 ],
					"fontsize" : 12.0,
					"outlettype" : [ "", "bang" ],
					"id" : "obj-1",
					"fontname" : "Arial",
					"numinlets" : 1,
					"numoutlets" : 2
				}

			}
, 			{
				"box" : 				{
					"maxclass" : "message",
					"text" : "compile",
					"patching_rect" : [ 738.0, 124.0, 52.0, 18.0 ],
					"fontsize" : 12.0,
					"outlettype" : [ "" ],
					"id" : "obj-31",
					"fontname" : "Arial",
					"numinlets" : 2,
					"numoutlets" : 1
				}

			}
, 			{
				"box" : 				{
					"maxclass" : "message",
					"patching_rect" : [ 270.0, 391.0, 110.0, 18.0 ],
					"fontsize" : 12.0,
					"outlettype" : [ "" ],
					"id" : "obj-23",
					"fontname" : "Arial",
					"numinlets" : 2,
					"numoutlets" : 1
				}

			}
, 			{
				"box" : 				{
					"maxclass" : "message",
					"patching_rect" : [ 482.0, 489.0, 168.0, 18.0 ],
					"fontsize" : 12.0,
					"outlettype" : [ "" ],
					"id" : "obj-22",
					"fontname" : "Arial",
					"numinlets" : 2,
					"numoutlets" : 1
				}

			}
, 			{
				"box" : 				{
					"maxclass" : "newobj",
					"text" : "js pp.textkaraoke",
					"patching_rect" : [ 288.0, 209.0, 101.0, 20.0 ],
					"fontsize" : 12.0,
					"outlettype" : [ "", "", "", "", "" ],
					"id" : "obj-21",
					"fontname" : "Arial",
					"numinlets" : 1,
					"numoutlets" : 5
				}

			}
, 			{
				"box" : 				{
					"maxclass" : "message",
					"text" : "color 1. 0. 0. 1.",
					"patching_rect" : [ 283.0, 346.0, 90.0, 18.0 ],
					"fontsize" : 12.0,
					"outlettype" : [ "" ],
					"id" : "obj-20",
					"fontname" : "Arial",
					"numinlets" : 2,
					"numoutlets" : 1
				}

			}
, 			{
				"box" : 				{
					"maxclass" : "message",
					"text" : "color 1. 1. 1. 1.",
					"patching_rect" : [ 495.0, 443.0, 90.0, 18.0 ],
					"fontsize" : 12.0,
					"outlettype" : [ "" ],
					"id" : "obj-19",
					"fontname" : "Arial",
					"numinlets" : 2,
					"numoutlets" : 1
				}

			}
, 			{
				"box" : 				{
					"maxclass" : "newobj",
					"text" : "loadbang",
					"patching_rect" : [ 124.0, 446.0, 60.0, 20.0 ],
					"fontsize" : 12.0,
					"outlettype" : [ "bang" ],
					"id" : "obj-18",
					"fontname" : "Arial",
					"numinlets" : 1,
					"numoutlets" : 1
				}

			}
, 			{
				"box" : 				{
					"maxclass" : "message",
					"text" : "position -1 -0.5",
					"patching_rect" : [ 528.0, 360.0, 93.0, 18.0 ],
					"fontsize" : 12.0,
					"outlettype" : [ "" ],
					"id" : "obj-17",
					"fontname" : "Arial",
					"numinlets" : 2,
					"numoutlets" : 1
				}

			}
, 			{
				"box" : 				{
					"maxclass" : "message",
					"text" : "font Arial, face bold, size 12",
					"patching_rect" : [ 124.0, 480.0, 158.0, 18.0 ],
					"fontsize" : 12.0,
					"outlettype" : [ "" ],
					"id" : "obj-15",
					"fontname" : "Arial",
					"numinlets" : 2,
					"numoutlets" : 1
				}

			}
, 			{
				"box" : 				{
					"maxclass" : "newobj",
					"text" : "jit.gl.render test",
					"patching_rect" : [ 122.0, 276.0, 93.0, 20.0 ],
					"fontsize" : 12.0,
					"outlettype" : [ "bang", "" ],
					"id" : "obj-13",
					"fontname" : "Arial",
					"numinlets" : 1,
					"numoutlets" : 2
				}

			}
, 			{
				"box" : 				{
					"maxclass" : "newobj",
					"text" : "jit.gl.text2d test @automatic 0",
					"patching_rect" : [ 40.0, 510.0, 168.0, 20.0 ],
					"fontsize" : 12.0,
					"outlettype" : [ "", "" ],
					"id" : "obj-12",
					"fontname" : "Arial",
					"numinlets" : 1,
					"numoutlets" : 2
				}

			}
, 			{
				"box" : 				{
					"maxclass" : "newobj",
					"text" : "jit.window test",
					"patching_rect" : [ 64.0, 368.0, 85.0, 20.0 ],
					"fontsize" : 12.0,
					"outlettype" : [ "bang", "" ],
					"id" : "obj-11",
					"fontname" : "Arial",
					"numinlets" : 1,
					"numoutlets" : 2
				}

			}
, 			{
				"box" : 				{
					"maxclass" : "number",
					"patching_rect" : [ 428.0, 205.0, 50.0, 20.0 ],
					"fontsize" : 12.0,
					"outlettype" : [ "int", "bang" ],
					"id" : "obj-7",
					"fontname" : "Arial",
					"numinlets" : 1,
					"numoutlets" : 2
				}

			}
 ],
		"lines" : [ 			{
				"patchline" : 				{
					"source" : [ "obj-57", 0 ],
					"destination" : [ "obj-11", 0 ],
					"hidden" : 0,
					"midpoints" : [  ]
				}

			}
, 			{
				"patchline" : 				{
					"source" : [ "obj-55", 0 ],
					"destination" : [ "obj-54", 1 ],
					"hidden" : 0,
					"midpoints" : [ 741.5, 305.0, 826.5, 305.0 ]
				}

			}
, 			{
				"patchline" : 				{
					"source" : [ "obj-55", 1 ],
					"destination" : [ "obj-17", 1 ],
					"hidden" : 0,
					"midpoints" : [ 761.0, 324.0, 611.5, 324.0 ]
				}

			}
, 			{
				"patchline" : 				{
					"source" : [ "obj-21", 4 ],
					"destination" : [ "obj-16", 0 ],
					"hidden" : 0,
					"midpoints" : [ 379.5, 233.0, 131.5, 233.0 ]
				}

			}
, 			{
				"patchline" : 				{
					"source" : [ "obj-21", 2 ],
					"destination" : [ "obj-52", 1 ],
					"hidden" : 0,
					"midpoints" : [ 338.5, 243.0, 855.5, 243.0 ]
				}

			}
, 			{
				"patchline" : 				{
					"source" : [ "obj-21", 1 ],
					"destination" : [ "obj-23", 1 ],
					"hidden" : 0,
					"midpoints" : [ 318.0, 229.0, 318.0, 250.0, 370.5, 250.0 ]
				}

			}
, 			{
				"patchline" : 				{
					"source" : [ "obj-24", 2 ],
					"destination" : [ "obj-50", 0 ],
					"hidden" : 0,
					"midpoints" : [  ]
				}

			}
, 			{
				"patchline" : 				{
					"source" : [ "obj-50", 1 ],
					"destination" : [ "obj-52", 0 ],
					"hidden" : 0,
					"midpoints" : [  ]
				}

			}
, 			{
				"patchline" : 				{
					"source" : [ "obj-50", 2 ],
					"destination" : [ "obj-53", 0 ],
					"hidden" : 0,
					"midpoints" : [  ]
				}

			}
, 			{
				"patchline" : 				{
					"source" : [ "obj-50", 3 ],
					"destination" : [ "obj-54", 0 ],
					"hidden" : 0,
					"midpoints" : [ 733.0, 345.5, 752.5, 345.5 ]
				}

			}
, 			{
				"patchline" : 				{
					"source" : [ "obj-52", 0 ],
					"destination" : [ "obj-51", 0 ],
					"hidden" : 0,
					"midpoints" : [  ]
				}

			}
, 			{
				"patchline" : 				{
					"source" : [ "obj-51", 0 ],
					"destination" : [ "obj-49", 0 ],
					"hidden" : 0,
					"midpoints" : [  ]
				}

			}
, 			{
				"patchline" : 				{
					"source" : [ "obj-53", 0 ],
					"destination" : [ "obj-48", 0 ],
					"hidden" : 0,
					"midpoints" : [  ]
				}

			}
, 			{
				"patchline" : 				{
					"source" : [ "obj-54", 0 ],
					"destination" : [ "obj-47", 0 ],
					"hidden" : 0,
					"midpoints" : [  ]
				}

			}
, 			{
				"patchline" : 				{
					"source" : [ "obj-50", 0 ],
					"destination" : [ "obj-46", 0 ],
					"hidden" : 0,
					"midpoints" : [ 692.5, 349.0, 643.5, 349.0 ]
				}

			}
, 			{
				"patchline" : 				{
					"source" : [ "obj-9", 0 ],
					"destination" : [ "obj-45", 0 ],
					"hidden" : 0,
					"midpoints" : [ 477.5, 349.0, 428.5, 349.0 ]
				}

			}
, 			{
				"patchline" : 				{
					"source" : [ "obj-17", 0 ],
					"destination" : [ "obj-41", 0 ],
					"hidden" : 0,
					"midpoints" : [  ]
				}

			}
, 			{
				"patchline" : 				{
					"source" : [ "obj-15", 0 ],
					"destination" : [ "obj-12", 0 ],
					"hidden" : 0,
					"midpoints" : [  ]
				}

			}
, 			{
				"patchline" : 				{
					"source" : [ "obj-23", 0 ],
					"destination" : [ "obj-40", 0 ],
					"hidden" : 0,
					"midpoints" : [  ]
				}

			}
, 			{
				"patchline" : 				{
					"source" : [ "obj-40", 0 ],
					"destination" : [ "obj-39", 0 ],
					"hidden" : 0,
					"midpoints" : [  ]
				}

			}
, 			{
				"patchline" : 				{
					"source" : [ "obj-38", 0 ],
					"destination" : [ "obj-12", 0 ],
					"hidden" : 0,
					"midpoints" : [ 49.5, 500.5, 49.5, 500.5 ]
				}

			}
, 			{
				"patchline" : 				{
					"source" : [ "obj-19", 0 ],
					"destination" : [ "obj-37", 0 ],
					"hidden" : 0,
					"midpoints" : [  ]
				}

			}
, 			{
				"patchline" : 				{
					"source" : [ "obj-10", 0 ],
					"destination" : [ "obj-36", 0 ],
					"hidden" : 0,
					"midpoints" : [ 263.5, 334.0, 193.5, 334.0 ]
				}

			}
, 			{
				"patchline" : 				{
					"source" : [ "obj-20", 0 ],
					"destination" : [ "obj-35", 0 ],
					"hidden" : 0,
					"midpoints" : [  ]
				}

			}
, 			{
				"patchline" : 				{
					"source" : [ "obj-8", 0 ],
					"destination" : [ "obj-34", 0 ],
					"hidden" : 0,
					"midpoints" : [  ]
				}

			}
, 			{
				"patchline" : 				{
					"source" : [ "obj-31", 0 ],
					"destination" : [ "obj-21", 0 ],
					"hidden" : 0,
					"midpoints" : [ 747.5, 175.0, 297.5, 175.0 ]
				}

			}
, 			{
				"patchline" : 				{
					"source" : [ "obj-21", 0 ],
					"destination" : [ "obj-22", 1 ],
					"hidden" : 0,
					"midpoints" : [ 297.5, 273.5, 640.5, 273.5 ]
				}

			}
, 			{
				"patchline" : 				{
					"source" : [ "obj-2", 0 ],
					"destination" : [ "obj-21", 0 ],
					"hidden" : 0,
					"midpoints" : [ 323.5, 186.5, 297.5, 186.5 ]
				}

			}
, 			{
				"patchline" : 				{
					"source" : [ "obj-32", 0 ],
					"destination" : [ "obj-21", 0 ],
					"hidden" : 0,
					"midpoints" : [ 249.5, 199.5, 297.5, 199.5 ]
				}

			}
, 			{
				"patchline" : 				{
					"source" : [ "obj-16", 1 ],
					"destination" : [ "obj-24", 0 ],
					"hidden" : 0,
					"midpoints" : [ 155.5, 271.0, 263.5, 271.0 ]
				}

			}
, 			{
				"patchline" : 				{
					"source" : [ "obj-24", 0 ],
					"destination" : [ "obj-10", 0 ],
					"hidden" : 0,
					"midpoints" : [  ]
				}

			}
, 			{
				"patchline" : 				{
					"source" : [ "obj-24", 1 ],
					"destination" : [ "obj-9", 0 ],
					"hidden" : 0,
					"midpoints" : [  ]
				}

			}
, 			{
				"patchline" : 				{
					"source" : [ "obj-18", 0 ],
					"destination" : [ "obj-15", 0 ],
					"hidden" : 0,
					"midpoints" : [  ]
				}

			}
, 			{
				"patchline" : 				{
					"source" : [ "obj-1", 0 ],
					"destination" : [ "obj-2", 0 ],
					"hidden" : 0,
					"midpoints" : [  ]
				}

			}
, 			{
				"patchline" : 				{
					"source" : [ "obj-3", 0 ],
					"destination" : [ "obj-2", 0 ],
					"hidden" : 0,
					"midpoints" : [  ]
				}

			}
, 			{
				"patchline" : 				{
					"source" : [ "obj-5", 0 ],
					"destination" : [ "obj-1", 0 ],
					"hidden" : 0,
					"midpoints" : [  ]
				}

			}
, 			{
				"patchline" : 				{
					"source" : [ "obj-1", 0 ],
					"destination" : [ "obj-3", 1 ],
					"hidden" : 0,
					"midpoints" : [  ]
				}

			}
, 			{
				"patchline" : 				{
					"source" : [ "obj-22", 0 ],
					"destination" : [ "obj-8", 0 ],
					"hidden" : 0,
					"midpoints" : [  ]
				}

			}
, 			{
				"patchline" : 				{
					"source" : [ "obj-9", 3 ],
					"destination" : [ "obj-17", 0 ],
					"hidden" : 0,
					"midpoints" : [ 518.0, 345.5, 537.5, 345.5 ]
				}

			}
, 			{
				"patchline" : 				{
					"source" : [ "obj-9", 2 ],
					"destination" : [ "obj-19", 0 ],
					"hidden" : 0,
					"midpoints" : [  ]
				}

			}
, 			{
				"patchline" : 				{
					"source" : [ "obj-9", 1 ],
					"destination" : [ "obj-22", 0 ],
					"hidden" : 0,
					"midpoints" : [  ]
				}

			}
, 			{
				"patchline" : 				{
					"source" : [ "obj-10", 3 ],
					"destination" : [ "obj-17", 0 ],
					"hidden" : 0,
					"midpoints" : [ 304.0, 344.0, 537.5, 344.0 ]
				}

			}
, 			{
				"patchline" : 				{
					"source" : [ "obj-10", 2 ],
					"destination" : [ "obj-20", 0 ],
					"hidden" : 0,
					"midpoints" : [  ]
				}

			}
, 			{
				"patchline" : 				{
					"source" : [ "obj-10", 1 ],
					"destination" : [ "obj-23", 0 ],
					"hidden" : 0,
					"midpoints" : [  ]
				}

			}
, 			{
				"patchline" : 				{
					"source" : [ "obj-16", 2 ],
					"destination" : [ "obj-13", 0 ],
					"hidden" : 0,
					"midpoints" : [ 179.5, 268.5, 131.5, 268.5 ]
				}

			}
, 			{
				"patchline" : 				{
					"source" : [ "obj-16", 0 ],
					"destination" : [ "obj-13", 0 ],
					"hidden" : 0,
					"midpoints" : [  ]
				}

			}
, 			{
				"patchline" : 				{
					"source" : [ "obj-26", 0 ],
					"destination" : [ "obj-14", 0 ],
					"hidden" : 0,
					"midpoints" : [  ]
				}

			}
, 			{
				"patchline" : 				{
					"source" : [ "obj-29", 0 ],
					"destination" : [ "obj-31", 0 ],
					"hidden" : 0,
					"midpoints" : [  ]
				}

			}
, 			{
				"patchline" : 				{
					"source" : [ "obj-29", 0 ],
					"destination" : [ "obj-3", 0 ],
					"hidden" : 0,
					"midpoints" : [  ]
				}

			}
, 			{
				"patchline" : 				{
					"source" : [ "obj-30", 0 ],
					"destination" : [ "obj-32", 0 ],
					"hidden" : 0,
					"midpoints" : [  ]
				}

			}
 ]
	}

}
