{
	"patcher" : 	{
		"fileversion" : 1,
		"rect" : [ 101.0, 48.0, 1286.0, 599.0 ],
		"bglocked" : 0,
		"defrect" : [ 101.0, 48.0, 1286.0, 599.0 ],
		"openrect" : [ 0.0, 0.0, 0.0, 0.0 ],
		"openinpresentation" : 0,
		"default_fontsize" : 12.0,
		"default_fontface" : 0,
		"default_fontname" : "Arial",
		"gridonopen" : 0,
		"gridsize" : [ 15.0, 15.0 ],
		"gridsnaponopen" : 0,
		"toolbarvisible" : 1,
		"boxanimatetime" : 200,
		"imprint" : 0,
		"enablehscroll" : 1,
		"enablevscroll" : 1,
		"boxes" : [ 			{
				"box" : 				{
					"maxclass" : "newobj",
					"text" : "print",
					"id" : "obj-8",
					"fontsize" : 12.0,
					"patching_rect" : [ 416.0, 279.0, 34.0, 20.0 ],
					"numinlets" : 1,
					"numoutlets" : 0,
					"fontname" : "Arial"
				}

			}
, 			{
				"box" : 				{
					"maxclass" : "newobj",
					"text" : "print",
					"id" : "obj-6",
					"fontsize" : 12.0,
					"patching_rect" : [ 426.0, 320.0, 34.0, 20.0 ],
					"numinlets" : 1,
					"numoutlets" : 0,
					"fontname" : "Arial"
				}

			}
, 			{
				"box" : 				{
					"maxclass" : "newobj",
					"text" : "vb.databasepath",
					"id" : "obj-4",
					"fontsize" : 12.0,
					"patching_rect" : [ 288.0, 123.0, 99.0, 20.0 ],
					"numinlets" : 0,
					"numoutlets" : 1,
					"fontname" : "Arial",
					"outlettype" : [ "" ]
				}

			}
, 			{
				"box" : 				{
					"maxclass" : "message",
					"text" : "exec \"DELETE FROM known_clips WHERE id=954\"",
					"id" : "obj-3",
					"fontsize" : 12.0,
					"patching_rect" : [ 85.0, 64.0, 289.0, 18.0 ],
					"numinlets" : 2,
					"numoutlets" : 1,
					"fontname" : "Arial",
					"outlettype" : [ "" ]
				}

			}
, 			{
				"box" : 				{
					"maxclass" : "message",
					"text" : "exec \"SELECT * FROM known_clips WHERE path LIKE'%app%'\"",
					"id" : "obj-60",
					"fontsize" : 12.0,
					"patching_rect" : [ 767.0, 143.0, 360.0, 18.0 ],
					"numinlets" : 2,
					"numoutlets" : 1,
					"fontname" : "Arial",
					"outlettype" : [ "" ]
				}

			}
, 			{
				"box" : 				{
					"maxclass" : "newobj",
					"text" : "t stop",
					"id" : "obj-59",
					"fontsize" : 12.0,
					"patching_rect" : [ 260.0, 710.0, 40.0, 20.0 ],
					"numinlets" : 1,
					"numoutlets" : 1,
					"fontname" : "Arial",
					"outlettype" : [ "stop" ]
				}

			}
, 			{
				"box" : 				{
					"maxclass" : "newobj",
					"text" : "t start",
					"id" : "obj-58",
					"fontsize" : 12.0,
					"patching_rect" : [ 265.0, 655.0, 41.0, 20.0 ],
					"numinlets" : 1,
					"numoutlets" : 1,
					"fontname" : "Arial",
					"outlettype" : [ "start" ]
				}

			}
, 			{
				"box" : 				{
					"maxclass" : "newobj",
					"text" : "sel 0 1",
					"id" : "obj-57",
					"fontsize" : 12.0,
					"patching_rect" : [ 248.0, 634.0, 46.0, 20.0 ],
					"numinlets" : 1,
					"numoutlets" : 3,
					"fontname" : "Arial",
					"outlettype" : [ "bang", "bang", "" ]
				}

			}
, 			{
				"box" : 				{
					"maxclass" : "toggle",
					"id" : "obj-56",
					"patching_rect" : [ 241.0, 611.0, 20.0, 20.0 ],
					"numinlets" : 1,
					"numoutlets" : 1,
					"outlettype" : [ "int" ]
				}

			}
, 			{
				"box" : 				{
					"maxclass" : "newobj",
					"text" : "qmetro 2",
					"id" : "obj-54",
					"fontsize" : 12.0,
					"patching_rect" : [ 157.0, 660.0, 58.0, 20.0 ],
					"hidden" : 1,
					"numinlets" : 2,
					"numoutlets" : 1,
					"fontname" : "Arial",
					"outlettype" : [ "bang" ]
				}

			}
, 			{
				"box" : 				{
					"maxclass" : "jit.pwindow",
					"presentation_rect" : [ 0.0, 0.0, 160.0, 144.0 ],
					"id" : "obj-48",
					"patching_rect" : [ 29.0, 211.0, 188.0, 136.0 ],
					"numinlets" : 1,
					"numoutlets" : 2,
					"outlettype" : [ "", "" ]
				}

			}
, 			{
				"box" : 				{
					"maxclass" : "newobj",
					"text" : "prepend read",
					"id" : "obj-47",
					"fontsize" : 12.0,
					"patching_rect" : [ 76.0, 661.0, 82.0, 20.0 ],
					"hidden" : 1,
					"numinlets" : 1,
					"numoutlets" : 1,
					"fontname" : "Arial",
					"outlettype" : [ "" ]
				}

			}
, 			{
				"box" : 				{
					"maxclass" : "newobj",
					"text" : "jit.qt.movie",
					"id" : "obj-45",
					"fontsize" : 12.0,
					"patching_rect" : [ 75.0, 690.0, 68.0, 20.0 ],
					"hidden" : 1,
					"numinlets" : 1,
					"numoutlets" : 2,
					"fontname" : "Arial",
					"outlettype" : [ "jit_matrix", "" ]
				}

			}
, 			{
				"box" : 				{
					"maxclass" : "newobj",
					"text" : "unpack 0 0 s s s l",
					"id" : "obj-43",
					"fontsize" : 12.0,
					"patching_rect" : [ 8.0, 637.0, 103.0, 20.0 ],
					"hidden" : 1,
					"numinlets" : 1,
					"numoutlets" : 6,
					"fontname" : "Arial",
					"outlettype" : [ "int", "int", "", "", "", "" ]
				}

			}
, 			{
				"box" : 				{
					"maxclass" : "number",
					"id" : "obj-36",
					"fontsize" : 12.0,
					"patching_rect" : [ 1144.0, 352.0, 50.0, 20.0 ],
					"numinlets" : 1,
					"numoutlets" : 2,
					"fontname" : "Arial",
					"outlettype" : [ "int", "bang" ]
				}

			}
, 			{
				"box" : 				{
					"maxclass" : "newobj",
					"text" : "fromsymbol",
					"id" : "obj-28",
					"fontsize" : 12.0,
					"patching_rect" : [ 384.0, 200.0, 73.0, 20.0 ],
					"numinlets" : 1,
					"numoutlets" : 1,
					"fontname" : "Arial",
					"outlettype" : [ "" ]
				}

			}
, 			{
				"box" : 				{
					"maxclass" : "newobj",
					"text" : "prepend set",
					"id" : "obj-24",
					"fontsize" : 12.0,
					"patching_rect" : [ 384.0, 248.0, 74.0, 20.0 ],
					"numinlets" : 1,
					"numoutlets" : 1,
					"fontname" : "Arial",
					"outlettype" : [ "" ]
				}

			}
, 			{
				"box" : 				{
					"maxclass" : "newobj",
					"text" : "zl slice 1",
					"id" : "obj-10",
					"fontsize" : 12.0,
					"patching_rect" : [ 384.0, 223.0, 57.0, 20.0 ],
					"numinlets" : 2,
					"numoutlets" : 2,
					"fontname" : "Arial",
					"outlettype" : [ "", "" ]
				}

			}
, 			{
				"box" : 				{
					"maxclass" : "number",
					"id" : "obj-21",
					"fontsize" : 12.0,
					"patching_rect" : [ 508.0, 354.0, 50.0, 20.0 ],
					"numinlets" : 1,
					"numoutlets" : 2,
					"fontname" : "Arial",
					"outlettype" : [ "int", "bang" ]
				}

			}
, 			{
				"box" : 				{
					"maxclass" : "newobj",
					"text" : "deferlow",
					"id" : "obj-34",
					"fontsize" : 12.0,
					"patching_rect" : [ 877.0, 265.0, 56.0, 20.0 ],
					"numinlets" : 1,
					"numoutlets" : 1,
					"fontname" : "Arial",
					"outlettype" : [ "" ]
				}

			}
, 			{
				"box" : 				{
					"maxclass" : "newobj",
					"text" : "t b",
					"id" : "obj-31",
					"fontsize" : 12.0,
					"patching_rect" : [ 877.0, 239.0, 24.0, 20.0 ],
					"numinlets" : 1,
					"numoutlets" : 1,
					"fontname" : "Arial",
					"outlettype" : [ "bang" ]
				}

			}
, 			{
				"box" : 				{
					"maxclass" : "message",
					"text" : "check_next_remote_clip",
					"id" : "obj-23",
					"fontsize" : 12.0,
					"patching_rect" : [ 877.0, 286.0, 140.0, 18.0 ],
					"numinlets" : 2,
					"numoutlets" : 1,
					"fontname" : "Arial",
					"outlettype" : [ "" ]
				}

			}
, 			{
				"box" : 				{
					"maxclass" : "toggle",
					"id" : "obj-22",
					"patching_rect" : [ 583.0, 248.0, 20.0, 20.0 ],
					"numinlets" : 1,
					"numoutlets" : 1,
					"outlettype" : [ "int" ]
				}

			}
, 			{
				"box" : 				{
					"maxclass" : "newobj",
					"text" : "pak setminmax 0 0",
					"id" : "obj-17",
					"fontsize" : 12.0,
					"patching_rect" : [ 730.0, 253.0, 111.0, 20.0 ],
					"numinlets" : 3,
					"numoutlets" : 1,
					"fontname" : "Arial",
					"outlettype" : [ "" ]
				}

			}
, 			{
				"box" : 				{
					"maxclass" : "slider",
					"id" : "obj-16",
					"patching_rect" : [ 562.0, 354.0, 579.0, 19.0 ],
					"floatoutput" : 1,
					"numinlets" : 1,
					"numoutlets" : 1,
					"outlettype" : [ "" ],
					"size" : 9.0
				}

			}
, 			{
				"box" : 				{
					"maxclass" : "newobj",
					"text" : "route status current max message next",
					"id" : "obj-15",
					"fontsize" : 12.0,
					"patching_rect" : [ 612.0, 209.0, 218.0, 20.0 ],
					"numinlets" : 1,
					"numoutlets" : 6,
					"fontname" : "Arial",
					"outlettype" : [ "", "", "", "", "", "" ]
				}

			}
, 			{
				"box" : 				{
					"maxclass" : "newobj",
					"text" : "prepend collect_file",
					"id" : "obj-13",
					"fontsize" : 12.0,
					"patching_rect" : [ 460.0, 270.0, 114.0, 20.0 ],
					"numinlets" : 1,
					"numoutlets" : 1,
					"fontname" : "Arial",
					"outlettype" : [ "" ]
				}

			}
, 			{
				"box" : 				{
					"maxclass" : "newobj",
					"text" : "aka.shell",
					"id" : "obj-12",
					"fontsize" : 12.0,
					"patching_rect" : [ 460.0, 246.0, 58.0, 20.0 ],
					"numinlets" : 1,
					"numoutlets" : 1,
					"fontname" : "Arial",
					"outlettype" : [ "" ]
				}

			}
, 			{
				"box" : 				{
					"maxclass" : "newobj",
					"text" : "prepend set",
					"id" : "obj-20",
					"fontsize" : 12.0,
					"patching_rect" : [ 638.0, 294.0, 74.0, 20.0 ],
					"numinlets" : 1,
					"numoutlets" : 1,
					"fontname" : "Arial",
					"outlettype" : [ "" ]
				}

			}
, 			{
				"box" : 				{
					"maxclass" : "textedit",
					"text" : "Done.",
					"id" : "obj-18",
					"fontsize" : 12.0,
					"patching_rect" : [ 635.0, 319.0, 513.0, 19.0 ],
					"numinlets" : 1,
					"numoutlets" : 4,
					"fontname" : "Arial",
					"outlettype" : [ "", "int", "", "" ]
				}

			}
, 			{
				"box" : 				{
					"maxclass" : "newobj",
					"text" : "tosymbol",
					"id" : "obj-50",
					"fontsize" : 12.0,
					"patching_rect" : [ 319.0, 226.0, 59.0, 20.0 ],
					"numinlets" : 1,
					"numoutlets" : 1,
					"fontname" : "Arial",
					"outlettype" : [ "" ]
				}

			}
, 			{
				"box" : 				{
					"maxclass" : "newobj",
					"text" : "prepend",
					"id" : "obj-46",
					"fontsize" : 12.0,
					"patching_rect" : [ 319.0, 272.0, 55.0, 20.0 ],
					"numinlets" : 1,
					"numoutlets" : 1,
					"fontname" : "Arial",
					"outlettype" : [ "" ]
				}

			}
, 			{
				"box" : 				{
					"maxclass" : "newobj",
					"text" : "aka.shell",
					"id" : "obj-14",
					"fontsize" : 12.0,
					"patching_rect" : [ 319.0, 249.0, 58.0, 20.0 ],
					"numinlets" : 1,
					"numoutlets" : 1,
					"fontname" : "Arial",
					"outlettype" : [ "" ]
				}

			}
, 			{
				"box" : 				{
					"maxclass" : "newobj",
					"text" : "p",
					"id" : "obj-39",
					"fontsize" : 12.0,
					"patching_rect" : [ 24.0, 351.0, 100.0, 20.0 ],
					"numinlets" : 0,
					"numoutlets" : 1,
					"fontname" : "Arial",
					"outlettype" : [ "" ],
					"patcher" : 					{
						"fileversion" : 1,
						"rect" : [ 54.0, 94.0, 944.0, 393.0 ],
						"bglocked" : 0,
						"defrect" : [ 54.0, 94.0, 944.0, 393.0 ],
						"openrect" : [ 0.0, 0.0, 0.0, 0.0 ],
						"openinpresentation" : 0,
						"default_fontsize" : 12.0,
						"default_fontface" : 0,
						"default_fontname" : "Arial",
						"gridonopen" : 0,
						"gridsize" : [ 15.0, 15.0 ],
						"gridsnaponopen" : 0,
						"toolbarvisible" : 1,
						"boxanimatetime" : 200,
						"imprint" : 0,
						"enablehscroll" : 1,
						"enablevscroll" : 1,
						"boxes" : [ 							{
								"box" : 								{
									"maxclass" : "message",
									"text" : "col 2 width 400",
									"id" : "obj-3",
									"fontsize" : 12.0,
									"patching_rect" : [ 289.0, 63.0, 91.0, 18.0 ],
									"numinlets" : 2,
									"numoutlets" : 1,
									"fontname" : "Arial",
									"outlettype" : [ "" ]
								}

							}
, 							{
								"box" : 								{
									"maxclass" : "message",
									"text" : "col 0 just 2",
									"id" : "obj-2",
									"fontsize" : 12.0,
									"patching_rect" : [ 184.0, 63.0, 68.0, 18.0 ],
									"numinlets" : 2,
									"numoutlets" : 1,
									"fontname" : "Arial",
									"outlettype" : [ "" ]
								}

							}
, 							{
								"box" : 								{
									"maxclass" : "message",
									"text" : "just 2, col 3 just 0, col 1 just 0, col 2 just 0",
									"id" : "obj-1",
									"fontsize" : 12.0,
									"patching_rect" : [ 173.0, 114.0, 231.0, 18.0 ],
									"numinlets" : 2,
									"numoutlets" : 1,
									"fontname" : "Arial",
									"outlettype" : [ "" ]
								}

							}
, 							{
								"box" : 								{
									"maxclass" : "message",
									"text" : "row 0 readonly 1",
									"id" : "obj-35",
									"fontsize" : 12.0,
									"patching_rect" : [ 10.0, 164.0, 99.0, 18.0 ],
									"numinlets" : 2,
									"numoutlets" : 1,
									"fontname" : "Arial",
									"outlettype" : [ "" ]
								}

							}
, 							{
								"box" : 								{
									"maxclass" : "message",
									"text" : "col 0 width 30, col 1 width 200, col 2 width 300, col 3 width 80, col 4 width 30, col 5 width 30, col 6 width 30, col 7 width 50, col 8 width 50, col 9 width 50, col 10 width 50, col 11 width 20, col 12 width 80, col 13 width 20, col 14 width 100, col 15 width 100",
									"linecount" : 3,
									"id" : "obj-34",
									"fontsize" : 12.0,
									"patching_rect" : [ 51.0, 201.0, 603.0, 46.0 ],
									"numinlets" : 2,
									"numoutlets" : 1,
									"fontname" : "Arial",
									"outlettype" : [ "" ]
								}

							}
, 							{
								"box" : 								{
									"maxclass" : "message",
									"text" : "headercolor 0.6 0.6 0.6 1.",
									"id" : "obj-24",
									"fontsize" : 12.0,
									"patching_rect" : [ 497.0, 100.0, 147.0, 18.0 ],
									"numinlets" : 2,
									"numoutlets" : 1,
									"fontname" : "Arial",
									"outlettype" : [ "" ]
								}

							}
, 							{
								"box" : 								{
									"maxclass" : "outlet",
									"id" : "obj-38",
									"patching_rect" : [ 203.0, 293.0, 25.0, 25.0 ],
									"numinlets" : 1,
									"numoutlets" : 0,
									"comment" : ""
								}

							}
 ],
						"lines" : [ 							{
								"patchline" : 								{
									"source" : [ "obj-3", 0 ],
									"destination" : [ "obj-38", 0 ],
									"hidden" : 0,
									"midpoints" : [  ]
								}

							}
, 							{
								"patchline" : 								{
									"source" : [ "obj-24", 0 ],
									"destination" : [ "obj-38", 0 ],
									"hidden" : 0,
									"midpoints" : [  ]
								}

							}
, 							{
								"patchline" : 								{
									"source" : [ "obj-35", 0 ],
									"destination" : [ "obj-38", 0 ],
									"hidden" : 0,
									"midpoints" : [  ]
								}

							}
, 							{
								"patchline" : 								{
									"source" : [ "obj-34", 0 ],
									"destination" : [ "obj-38", 0 ],
									"hidden" : 0,
									"midpoints" : [  ]
								}

							}
, 							{
								"patchline" : 								{
									"source" : [ "obj-1", 0 ],
									"destination" : [ "obj-38", 0 ],
									"hidden" : 0,
									"midpoints" : [  ]
								}

							}
, 							{
								"patchline" : 								{
									"source" : [ "obj-2", 0 ],
									"destination" : [ "obj-38", 0 ],
									"hidden" : 0,
									"midpoints" : [  ]
								}

							}
 ]
					}
,
					"saved_object_attributes" : 					{
						"fontface" : 0,
						"fontsize" : 12.0,
						"default_fontface" : 0,
						"globalpatchername" : "",
						"default_fontname" : "Arial",
						"fontname" : "Arial",
						"default_fontsize" : 12.0
					}

				}

			}
, 			{
				"box" : 				{
					"maxclass" : "newobj",
					"text" : "prepend scan_folder",
					"id" : "obj-29",
					"fontsize" : 12.0,
					"patching_rect" : [ 444.0, 116.0, 120.0, 20.0 ],
					"numinlets" : 1,
					"numoutlets" : 1,
					"fontname" : "Arial",
					"outlettype" : [ "" ]
				}

			}
, 			{
				"box" : 				{
					"maxclass" : "button",
					"id" : "obj-26",
					"patching_rect" : [ 444.0, 63.0, 20.0, 20.0 ],
					"numinlets" : 1,
					"numoutlets" : 1,
					"outlettype" : [ "bang" ]
				}

			}
, 			{
				"box" : 				{
					"maxclass" : "newobj",
					"text" : "opendialog fold",
					"id" : "obj-27",
					"fontsize" : 12.0,
					"patching_rect" : [ 444.0, 88.0, 92.0, 20.0 ],
					"numinlets" : 1,
					"numoutlets" : 2,
					"fontname" : "Arial",
					"outlettype" : [ "", "bang" ]
				}

			}
, 			{
				"box" : 				{
					"maxclass" : "message",
					"text" : "exec \"SELECT * FROM known_clips\"",
					"id" : "obj-11",
					"fontsize" : 12.0,
					"patching_rect" : [ 61.0, 18.0, 210.0, 18.0 ],
					"numinlets" : 2,
					"numoutlets" : 1,
					"fontname" : "Arial",
					"outlettype" : [ "" ]
				}

			}
, 			{
				"box" : 				{
					"maxclass" : "jit.cellblock",
					"just" : 2,
					"id" : "obj-5",
					"fontsize" : 10.0,
					"outmode" : 1,
					"headercolor" : [ 0.6, 0.6, 0.6, 1.0 ],
					"colhead" : 1,
					"patching_rect" : [ 5.0, 382.0, 1230.0, 225.0 ],
					"numinlets" : 2,
					"colwidth" : 85,
					"textcolor" : [ 1.0, 1.0, 1.0, 1.0 ],
					"numoutlets" : 4,
					"cols" : 18,
					"fontname" : "Arial",
					"selmode" : 3,
					"outlettype" : [ "list", "", "", "" ],
					"rows" : 1568,
					"rowdef" : [ [ 0, 0, 1, 1.0, 1.0, 1.0, 1, 1.0, 1.0, 1.0, -1, -1, 1 ] ],
					"coldef" : [ [ 0, 30, 1, 1.0, 1.0, 1.0, 1, 1.0, 1.0, 1.0, 2, -1, -1 ], [ 15, 100, 1, 1.0, 1.0, 1.0, 1, 1.0, 1.0, 1.0, -1, -1, -1 ], [ 14, 100, 1, 1.0, 1.0, 1.0, 1, 1.0, 1.0, 1.0, -1, -1, -1 ], [ 1, 200, 1, 1.0, 1.0, 1.0, 1, 1.0, 1.0, 1.0, 0, -1, -1 ], [ 2, 400, 1, 1.0, 1.0, 1.0, 1, 1.0, 1.0, 1.0, 0, -1, -1 ], [ 3, 80, 1, 1.0, 1.0, 1.0, 1, 1.0, 1.0, 1.0, 0, -1, -1 ], [ 4, 30, 1, 1.0, 1.0, 1.0, 1, 1.0, 1.0, 1.0, 2, -1, -1 ], [ 5, 30, 1, 1.0, 1.0, 1.0, 1, 1.0, 1.0, 1.0, 2, -1, -1 ], [ 6, 30, 1, 1.0, 1.0, 1.0, 1, 1.0, 1.0, 1.0, 2, -1, -1 ], [ 7, 50, 1, 1.0, 1.0, 1.0, 1, 1.0, 1.0, 1.0, 2, -1, -1 ], [ 8, 50, 1, 1.0, 1.0, 1.0, 1, 1.0, 1.0, 1.0, 2, -1, -1 ], [ 9, 50, 1, 1.0, 1.0, 1.0, 1, 1.0, 1.0, 1.0, 2, -1, -1 ], [ 10, 50, 1, 1.0, 1.0, 1.0, 1, 1.0, 1.0, 1.0, 2, -1, -1 ], [ 11, 20, 1, 1.0, 1.0, 1.0, 1, 1.0, 1.0, 1.0, -1, -1, -1 ], [ 12, 80, 1, 1.0, 1.0, 1.0, 1, 1.0, 1.0, 1.0, -1, -1, -1 ], [ 13, 20, 1, 1.0, 1.0, 1.0, 1, 1.0, 1.0, 1.0, -1, -1, -1 ] ]
				}

			}
, 			{
				"box" : 				{
					"maxclass" : "message",
					"text" : "init",
					"id" : "obj-9",
					"fontsize" : 12.0,
					"patching_rect" : [ 224.666656, 108.0, 32.0, 18.0 ],
					"numinlets" : 2,
					"numoutlets" : 1,
					"fontname" : "Arial",
					"outlettype" : [ "" ]
				}

			}
, 			{
				"box" : 				{
					"maxclass" : "newobj",
					"text" : "prepend clip_info",
					"id" : "obj-7",
					"fontsize" : 12.0,
					"patching_rect" : [ 292.0, 300.0, 102.0, 20.0 ],
					"numinlets" : 1,
					"numoutlets" : 1,
					"fontname" : "Arial",
					"outlettype" : [ "" ]
				}

			}
, 			{
				"box" : 				{
					"maxclass" : "newobj",
					"text" : "js vb.clipmanager.js",
					"id" : "obj-2",
					"fontsize" : 12.0,
					"patching_rect" : [ 242.0, 159.0, 116.0, 20.0 ],
					"numinlets" : 1,
					"numoutlets" : 5,
					"fontname" : "Arial",
					"outlettype" : [ "", "", "", "", "" ]
				}

			}
, 			{
				"box" : 				{
					"maxclass" : "newobj",
					"text" : "jit.qt.movie @autostart 0",
					"id" : "obj-1",
					"fontsize" : 12.0,
					"patching_rect" : [ 243.0, 272.0, 140.0, 20.0 ],
					"numinlets" : 1,
					"numoutlets" : 2,
					"fontname" : "Arial",
					"outlettype" : [ "jit_matrix", "" ]
				}

			}
 ],
		"lines" : [ 			{
				"patchline" : 				{
					"source" : [ "obj-3", 0 ],
					"destination" : [ "obj-2", 0 ],
					"hidden" : 0,
					"midpoints" : [  ]
				}

			}
, 			{
				"patchline" : 				{
					"source" : [ "obj-15", 2 ],
					"destination" : [ "obj-36", 0 ],
					"hidden" : 0,
					"midpoints" : [  ]
				}

			}
, 			{
				"patchline" : 				{
					"source" : [ "obj-34", 0 ],
					"destination" : [ "obj-23", 0 ],
					"hidden" : 0,
					"midpoints" : [  ]
				}

			}
, 			{
				"patchline" : 				{
					"source" : [ "obj-31", 0 ],
					"destination" : [ "obj-34", 0 ],
					"hidden" : 0,
					"midpoints" : [  ]
				}

			}
, 			{
				"patchline" : 				{
					"source" : [ "obj-15", 1 ],
					"destination" : [ "obj-21", 0 ],
					"hidden" : 0,
					"midpoints" : [  ]
				}

			}
, 			{
				"patchline" : 				{
					"source" : [ "obj-50", 0 ],
					"destination" : [ "obj-14", 0 ],
					"hidden" : 0,
					"midpoints" : [  ]
				}

			}
, 			{
				"patchline" : 				{
					"source" : [ "obj-46", 0 ],
					"destination" : [ "obj-7", 0 ],
					"hidden" : 0,
					"midpoints" : [ 328.5, 294.0, 301.5, 294.0 ]
				}

			}
, 			{
				"patchline" : 				{
					"source" : [ "obj-14", 0 ],
					"destination" : [ "obj-46", 0 ],
					"hidden" : 0,
					"midpoints" : [  ]
				}

			}
, 			{
				"patchline" : 				{
					"source" : [ "obj-11", 0 ],
					"destination" : [ "obj-2", 0 ],
					"hidden" : 0,
					"midpoints" : [ 70.5, 36.0, 45.0, 36.0, 45.0, 144.0, 251.5, 144.0 ]
				}

			}
, 			{
				"patchline" : 				{
					"source" : [ "obj-7", 0 ],
					"destination" : [ "obj-2", 0 ],
					"hidden" : 0,
					"midpoints" : [ 301.5, 348.0, 225.0, 348.0, 225.0, 153.0, 251.5, 153.0 ]
				}

			}
, 			{
				"patchline" : 				{
					"source" : [ "obj-9", 0 ],
					"destination" : [ "obj-2", 0 ],
					"hidden" : 0,
					"midpoints" : [ 234.166656, 144.0, 251.5, 144.0 ]
				}

			}
, 			{
				"patchline" : 				{
					"source" : [ "obj-26", 0 ],
					"destination" : [ "obj-27", 0 ],
					"hidden" : 0,
					"midpoints" : [  ]
				}

			}
, 			{
				"patchline" : 				{
					"source" : [ "obj-27", 0 ],
					"destination" : [ "obj-29", 0 ],
					"hidden" : 0,
					"midpoints" : [  ]
				}

			}
, 			{
				"patchline" : 				{
					"source" : [ "obj-29", 0 ],
					"destination" : [ "obj-2", 0 ],
					"hidden" : 0,
					"midpoints" : [ 453.5, 156.0, 251.5, 156.0 ]
				}

			}
, 			{
				"patchline" : 				{
					"source" : [ "obj-39", 0 ],
					"destination" : [ "obj-5", 0 ],
					"hidden" : 0,
					"midpoints" : [ 33.5, 372.0, 15.0, 372.0, 15.0, 378.0, 14.5, 378.0 ]
				}

			}
, 			{
				"patchline" : 				{
					"source" : [ "obj-2", 1 ],
					"destination" : [ "obj-50", 0 ],
					"hidden" : 0,
					"midpoints" : [ 275.75, 208.0, 328.5, 208.0 ]
				}

			}
, 			{
				"patchline" : 				{
					"source" : [ "obj-2", 2 ],
					"destination" : [ "obj-12", 0 ],
					"hidden" : 0,
					"midpoints" : [ 300.0, 197.0, 469.5, 197.0 ]
				}

			}
, 			{
				"patchline" : 				{
					"source" : [ "obj-12", 0 ],
					"destination" : [ "obj-13", 0 ],
					"hidden" : 0,
					"midpoints" : [  ]
				}

			}
, 			{
				"patchline" : 				{
					"source" : [ "obj-13", 0 ],
					"destination" : [ "obj-2", 0 ],
					"hidden" : 0,
					"midpoints" : [ 469.5, 348.0, 225.0, 348.0, 225.0, 153.0, 251.5, 153.0 ]
				}

			}
, 			{
				"patchline" : 				{
					"source" : [ "obj-2", 3 ],
					"destination" : [ "obj-5", 0 ],
					"hidden" : 0,
					"midpoints" : [ 324.25, 190.0, 14.5, 190.0 ]
				}

			}
, 			{
				"patchline" : 				{
					"source" : [ "obj-20", 0 ],
					"destination" : [ "obj-18", 0 ],
					"hidden" : 0,
					"midpoints" : [  ]
				}

			}
, 			{
				"patchline" : 				{
					"source" : [ "obj-17", 0 ],
					"destination" : [ "obj-16", 0 ],
					"hidden" : 0,
					"midpoints" : [  ]
				}

			}
, 			{
				"patchline" : 				{
					"source" : [ "obj-15", 0 ],
					"destination" : [ "obj-22", 0 ],
					"hidden" : 0,
					"midpoints" : [  ]
				}

			}
, 			{
				"patchline" : 				{
					"source" : [ "obj-15", 1 ],
					"destination" : [ "obj-16", 0 ],
					"hidden" : 0,
					"midpoints" : [  ]
				}

			}
, 			{
				"patchline" : 				{
					"source" : [ "obj-15", 2 ],
					"destination" : [ "obj-17", 2 ],
					"hidden" : 0,
					"midpoints" : [  ]
				}

			}
, 			{
				"patchline" : 				{
					"source" : [ "obj-15", 3 ],
					"destination" : [ "obj-20", 0 ],
					"hidden" : 0,
					"midpoints" : [  ]
				}

			}
, 			{
				"patchline" : 				{
					"source" : [ "obj-23", 0 ],
					"destination" : [ "obj-2", 0 ],
					"hidden" : 0,
					"midpoints" : [ 886.5, 361.0, 222.0, 361.0, 222.0, 150.0, 251.5, 150.0 ]
				}

			}
, 			{
				"patchline" : 				{
					"source" : [ "obj-2", 4 ],
					"destination" : [ "obj-15", 0 ],
					"hidden" : 0,
					"midpoints" : [ 348.5, 182.0, 621.5, 182.0 ]
				}

			}
, 			{
				"patchline" : 				{
					"source" : [ "obj-24", 0 ],
					"destination" : [ "obj-46", 0 ],
					"hidden" : 0,
					"midpoints" : [ 393.5, 273.0, 328.5, 273.0 ]
				}

			}
, 			{
				"patchline" : 				{
					"source" : [ "obj-2", 1 ],
					"destination" : [ "obj-28", 0 ],
					"hidden" : 0,
					"midpoints" : [ 275.75, 203.0, 393.5, 203.0 ]
				}

			}
, 			{
				"patchline" : 				{
					"source" : [ "obj-28", 0 ],
					"destination" : [ "obj-10", 0 ],
					"hidden" : 0,
					"midpoints" : [  ]
				}

			}
, 			{
				"patchline" : 				{
					"source" : [ "obj-10", 0 ],
					"destination" : [ "obj-24", 0 ],
					"hidden" : 0,
					"midpoints" : [  ]
				}

			}
, 			{
				"patchline" : 				{
					"source" : [ "obj-5", 0 ],
					"destination" : [ "obj-43", 0 ],
					"hidden" : 0,
					"midpoints" : [  ]
				}

			}
, 			{
				"patchline" : 				{
					"source" : [ "obj-43", 4 ],
					"destination" : [ "obj-47", 0 ],
					"hidden" : 1,
					"midpoints" : [  ]
				}

			}
, 			{
				"patchline" : 				{
					"source" : [ "obj-47", 0 ],
					"destination" : [ "obj-45", 0 ],
					"hidden" : 1,
					"midpoints" : [  ]
				}

			}
, 			{
				"patchline" : 				{
					"source" : [ "obj-45", 0 ],
					"destination" : [ "obj-48", 0 ],
					"hidden" : 1,
					"midpoints" : [  ]
				}

			}
, 			{
				"patchline" : 				{
					"source" : [ "obj-54", 0 ],
					"destination" : [ "obj-45", 0 ],
					"hidden" : 1,
					"midpoints" : [  ]
				}

			}
, 			{
				"patchline" : 				{
					"source" : [ "obj-56", 0 ],
					"destination" : [ "obj-54", 0 ],
					"hidden" : 1,
					"midpoints" : [  ]
				}

			}
, 			{
				"patchline" : 				{
					"source" : [ "obj-56", 0 ],
					"destination" : [ "obj-57", 0 ],
					"hidden" : 0,
					"midpoints" : [  ]
				}

			}
, 			{
				"patchline" : 				{
					"source" : [ "obj-57", 1 ],
					"destination" : [ "obj-58", 0 ],
					"hidden" : 0,
					"midpoints" : [  ]
				}

			}
, 			{
				"patchline" : 				{
					"source" : [ "obj-57", 0 ],
					"destination" : [ "obj-59", 0 ],
					"hidden" : 0,
					"midpoints" : [  ]
				}

			}
, 			{
				"patchline" : 				{
					"source" : [ "obj-59", 0 ],
					"destination" : [ "obj-45", 0 ],
					"hidden" : 0,
					"midpoints" : [  ]
				}

			}
, 			{
				"patchline" : 				{
					"source" : [ "obj-58", 0 ],
					"destination" : [ "obj-45", 0 ],
					"hidden" : 0,
					"midpoints" : [  ]
				}

			}
, 			{
				"patchline" : 				{
					"source" : [ "obj-60", 0 ],
					"destination" : [ "obj-2", 0 ],
					"hidden" : 0,
					"midpoints" : [  ]
				}

			}
, 			{
				"patchline" : 				{
					"source" : [ "obj-4", 0 ],
					"destination" : [ "obj-2", 0 ],
					"hidden" : 0,
					"midpoints" : [  ]
				}

			}
, 			{
				"patchline" : 				{
					"source" : [ "obj-2", 0 ],
					"destination" : [ "obj-1", 0 ],
					"hidden" : 0,
					"midpoints" : [  ]
				}

			}
, 			{
				"patchline" : 				{
					"source" : [ "obj-1", 1 ],
					"destination" : [ "obj-7", 0 ],
					"hidden" : 0,
					"midpoints" : [  ]
				}

			}
, 			{
				"patchline" : 				{
					"source" : [ "obj-15", 4 ],
					"destination" : [ "obj-31", 0 ],
					"hidden" : 0,
					"midpoints" : [  ]
				}

			}
, 			{
				"patchline" : 				{
					"source" : [ "obj-2", 0 ],
					"destination" : [ "obj-6", 0 ],
					"hidden" : 0,
					"midpoints" : [  ]
				}

			}
, 			{
				"patchline" : 				{
					"source" : [ "obj-7", 0 ],
					"destination" : [ "obj-8", 0 ],
					"hidden" : 0,
					"midpoints" : [  ]
				}

			}
 ]
	}

}
