{
	"patcher" : 	{
		"fileversion" : 1,
		"rect" : [ 29.0, 69.0, 1003.0, 556.0 ],
		"bgcolor" : [ 0.843137, 0.843137, 0.843137, 1.0 ],
		"bglocked" : 0,
		"defrect" : [ 29.0, 69.0, 1003.0, 556.0 ],
		"openrect" : [ 0.0, 0.0, 0.0, 0.0 ],
		"openinpresentation" : 0,
		"default_fontsize" : 12.0,
		"default_fontface" : 0,
		"default_fontname" : "Arial",
		"gridonopen" : 0,
		"gridsize" : [ 15.0, 15.0 ],
		"gridsnaponopen" : 0,
		"toolbarvisible" : 1,
		"boxanimatetime" : 200,
		"imprint" : 0,
		"enablehscroll" : 1,
		"enablevscroll" : 1,
		"boxes" : [ 			{
				"box" : 				{
					"maxclass" : "inlet",
					"hidden" : 1,
					"patching_rect" : [ 605.0, 151.0, 25.0, 25.0 ],
					"numinlets" : 0,
					"id" : "obj-6",
					"numoutlets" : 1,
					"outlettype" : [ "" ],
					"comment" : ""
				}

			}
, 			{
				"box" : 				{
					"maxclass" : "newobj",
					"text" : "p printsettings",
					"fontsize" : 12.0,
					"hidden" : 1,
					"patching_rect" : [ 604.0, 91.0, 85.0, 20.0 ],
					"numinlets" : 0,
					"id" : "obj-1",
					"numoutlets" : 0,
					"fontname" : "Arial",
					"patcher" : 					{
						"fileversion" : 1,
						"rect" : [ 54.0, 94.0, 640.0, 480.0 ],
						"bglocked" : 0,
						"defrect" : [ 54.0, 94.0, 640.0, 480.0 ],
						"openrect" : [ 0.0, 0.0, 0.0, 0.0 ],
						"openinpresentation" : 0,
						"default_fontsize" : 12.0,
						"default_fontface" : 0,
						"default_fontname" : "Arial",
						"gridonopen" : 0,
						"gridsize" : [ 15.0, 15.0 ],
						"gridsnaponopen" : 0,
						"toolbarvisible" : 1,
						"boxanimatetime" : 200,
						"imprint" : 0,
						"enablehscroll" : 1,
						"enablevscroll" : 1,
						"boxes" : [ 							{
								"box" : 								{
									"maxclass" : "newobj",
									"text" : "fromsymbol",
									"fontsize" : 12.0,
									"patching_rect" : [ 41.0, 164.0, 73.0, 20.0 ],
									"numinlets" : 1,
									"id" : "obj-3",
									"numoutlets" : 1,
									"fontname" : "Arial",
									"outlettype" : [ "" ]
								}

							}
, 							{
								"box" : 								{
									"maxclass" : "newobj",
									"text" : "gate",
									"fontsize" : 12.0,
									"patching_rect" : [ 33.0, 209.0, 34.0, 20.0 ],
									"numinlets" : 2,
									"id" : "obj-2",
									"numoutlets" : 1,
									"fontname" : "Arial",
									"outlettype" : [ "" ]
								}

							}
, 							{
								"box" : 								{
									"maxclass" : "newobj",
									"text" : "route print_settings",
									"fontsize" : 12.0,
									"patching_rect" : [ 50.0, 132.0, 113.0, 20.0 ],
									"numinlets" : 1,
									"id" : "obj-1",
									"numoutlets" : 2,
									"fontname" : "Arial",
									"outlettype" : [ "", "" ]
								}

							}
, 							{
								"box" : 								{
									"maxclass" : "newobj",
									"text" : "print",
									"fontsize" : 12.0,
									"hidden" : 1,
									"patching_rect" : [ 32.0, 238.0, 34.0, 20.0 ],
									"numinlets" : 1,
									"id" : "obj-40",
									"numoutlets" : 0,
									"fontname" : "Arial"
								}

							}
, 							{
								"box" : 								{
									"maxclass" : "newobj",
									"text" : "r vb_settings",
									"fontsize" : 12.0,
									"hidden" : 1,
									"patching_rect" : [ 50.0, 100.0, 79.0, 20.0 ],
									"numinlets" : 0,
									"id" : "obj-39",
									"numoutlets" : 1,
									"fontname" : "Arial",
									"outlettype" : [ "" ]
								}

							}
 ],
						"lines" : [ 							{
								"patchline" : 								{
									"source" : [ "obj-3", 0 ],
									"destination" : [ "obj-2", 0 ],
									"hidden" : 0,
									"midpoints" : [  ]
								}

							}
, 							{
								"patchline" : 								{
									"source" : [ "obj-1", 0 ],
									"destination" : [ "obj-3", 0 ],
									"hidden" : 0,
									"midpoints" : [  ]
								}

							}
, 							{
								"patchline" : 								{
									"source" : [ "obj-2", 0 ],
									"destination" : [ "obj-40", 0 ],
									"hidden" : 0,
									"midpoints" : [  ]
								}

							}
, 							{
								"patchline" : 								{
									"source" : [ "obj-1", 1 ],
									"destination" : [ "obj-2", 1 ],
									"hidden" : 0,
									"midpoints" : [ 153.5, 199.0, 57.5, 199.0 ]
								}

							}
, 							{
								"patchline" : 								{
									"source" : [ "obj-39", 0 ],
									"destination" : [ "obj-1", 0 ],
									"hidden" : 0,
									"midpoints" : [  ]
								}

							}
 ]
					}
,
					"saved_object_attributes" : 					{
						"fontface" : 0,
						"fontsize" : 12.0,
						"default_fontface" : 0,
						"default_fontname" : "Arial",
						"fontname" : "Arial",
						"default_fontsize" : 12.0,
						"globalpatchername" : ""
					}

				}

			}
, 			{
				"box" : 				{
					"maxclass" : "comment",
					"text" : "Reload current profile",
					"fontsize" : 12.0,
					"patching_rect" : [ 62.0, 157.0, 125.0, 20.0 ],
					"numinlets" : 1,
					"id" : "obj-5",
					"numoutlets" : 0,
					"fontname" : "Arial"
				}

			}
, 			{
				"box" : 				{
					"maxclass" : "button",
					"patching_rect" : [ 40.0, 160.0, 20.0, 20.0 ],
					"numinlets" : 1,
					"id" : "obj-4",
					"numoutlets" : 1,
					"outlettype" : [ "bang" ]
				}

			}
, 			{
				"box" : 				{
					"maxclass" : "newobj",
					"text" : "p",
					"fontsize" : 12.0,
					"hidden" : 1,
					"patching_rect" : [ 371.0, 162.0, 100.0, 20.0 ],
					"numinlets" : 1,
					"id" : "obj-7",
					"numoutlets" : 1,
					"fontname" : "Arial",
					"outlettype" : [ "" ],
					"patcher" : 					{
						"fileversion" : 1,
						"rect" : [ 140.0, 282.0, 640.0, 480.0 ],
						"bglocked" : 0,
						"defrect" : [ 140.0, 282.0, 640.0, 480.0 ],
						"openrect" : [ 0.0, 0.0, 0.0, 0.0 ],
						"openinpresentation" : 0,
						"default_fontsize" : 12.0,
						"default_fontface" : 0,
						"default_fontname" : "Arial",
						"gridonopen" : 0,
						"gridsize" : [ 15.0, 15.0 ],
						"gridsnaponopen" : 0,
						"toolbarvisible" : 1,
						"boxanimatetime" : 200,
						"imprint" : 0,
						"enablehscroll" : 1,
						"enablevscroll" : 1,
						"boxes" : [ 							{
								"box" : 								{
									"maxclass" : "newobj",
									"text" : "t b l",
									"fontsize" : 12.0,
									"patching_rect" : [ 189.0, 85.0, 32.5, 20.0 ],
									"numinlets" : 1,
									"id" : "obj-6",
									"numoutlets" : 2,
									"fontname" : "Arial",
									"outlettype" : [ "bang", "" ]
								}

							}
, 							{
								"box" : 								{
									"maxclass" : "newobj",
									"text" : "vb.databasepath",
									"fontsize" : 12.0,
									"patching_rect" : [ 188.0, 41.0, 99.0, 20.0 ],
									"numinlets" : 0,
									"id" : "obj-3",
									"numoutlets" : 1,
									"fontname" : "Arial",
									"outlettype" : [ "" ]
								}

							}
, 							{
								"box" : 								{
									"maxclass" : "inlet",
									"patching_rect" : [ 49.0, 52.0, 25.0, 25.0 ],
									"numinlets" : 0,
									"id" : "obj-2",
									"numoutlets" : 1,
									"outlettype" : [ "bang" ],
									"comment" : ""
								}

							}
, 							{
								"box" : 								{
									"maxclass" : "newobj",
									"text" : "s vb_settings",
									"fontsize" : 12.0,
									"patching_rect" : [ 255.0, 363.0, 81.0, 20.0 ],
									"numinlets" : 1,
									"id" : "obj-36",
									"numoutlets" : 0,
									"fontname" : "Arial"
								}

							}
, 							{
								"box" : 								{
									"maxclass" : "message",
									"text" : "get_current_profile",
									"fontsize" : 12.0,
									"patching_rect" : [ 50.0, 122.0, 111.0, 18.0 ],
									"numinlets" : 2,
									"id" : "obj-37",
									"numoutlets" : 1,
									"fontname" : "Arial",
									"outlettype" : [ "" ]
								}

							}
, 							{
								"box" : 								{
									"maxclass" : "button",
									"patching_rect" : [ 83.0, 292.0, 20.0, 20.0 ],
									"numinlets" : 1,
									"id" : "obj-97",
									"numoutlets" : 1,
									"outlettype" : [ "bang" ]
								}

							}
, 							{
								"box" : 								{
									"maxclass" : "message",
									"text" : "col 1 width 30, col 2 width 150, col 3 width 200, col 4 width 400, col 5 width 90",
									"fontsize" : 12.0,
									"patching_rect" : [ 211.0, 295.0, 424.0, 18.0 ],
									"numinlets" : 2,
									"id" : "obj-95",
									"numoutlets" : 1,
									"fontname" : "Arial",
									"outlettype" : [ "" ]
								}

							}
, 							{
								"box" : 								{
									"maxclass" : "newobj",
									"text" : "s profile_menu",
									"fontsize" : 12.0,
									"patching_rect" : [ 111.0, 293.0, 89.0, 20.0 ],
									"numinlets" : 1,
									"id" : "obj-62",
									"numoutlets" : 0,
									"fontname" : "Arial"
								}

							}
, 							{
								"box" : 								{
									"maxclass" : "newobj",
									"text" : "r to_settings",
									"fontsize" : 12.0,
									"patching_rect" : [ 82.0, 156.0, 76.0, 20.0 ],
									"numinlets" : 0,
									"id" : "obj-11",
									"numoutlets" : 1,
									"fontname" : "Arial",
									"outlettype" : [ "" ]
								}

							}
, 							{
								"box" : 								{
									"maxclass" : "message",
									"text" : "compile, bang",
									"fontsize" : 12.0,
									"patching_rect" : [ 103.0, 182.0, 85.0, 18.0 ],
									"numinlets" : 2,
									"id" : "obj-5",
									"numoutlets" : 1,
									"fontname" : "Arial",
									"outlettype" : [ "" ]
								}

							}
, 							{
								"box" : 								{
									"maxclass" : "newobj",
									"text" : "js vb.settings.js",
									"fontsize" : 12.0,
									"patching_rect" : [ 75.0, 270.0, 92.0, 20.0 ],
									"numinlets" : 1,
									"id" : "obj-1",
									"numoutlets" : 3,
									"fontname" : "Arial",
									"outlettype" : [ "", "", "" ]
								}

							}
, 							{
								"box" : 								{
									"maxclass" : "outlet",
									"patching_rect" : [ 65.0, 410.5, 25.0, 25.0 ],
									"numinlets" : 1,
									"id" : "obj-4",
									"numoutlets" : 0,
									"comment" : ""
								}

							}
 ],
						"lines" : [ 							{
								"patchline" : 								{
									"source" : [ "obj-1", 2 ],
									"destination" : [ "obj-36", 0 ],
									"hidden" : 0,
									"midpoints" : [  ]
								}

							}
, 							{
								"patchline" : 								{
									"source" : [ "obj-37", 0 ],
									"destination" : [ "obj-1", 0 ],
									"hidden" : 0,
									"midpoints" : [ 59.5, 204.5, 84.5, 204.5 ]
								}

							}
, 							{
								"patchline" : 								{
									"source" : [ "obj-1", 0 ],
									"destination" : [ "obj-97", 0 ],
									"hidden" : 0,
									"midpoints" : [  ]
								}

							}
, 							{
								"patchline" : 								{
									"source" : [ "obj-97", 0 ],
									"destination" : [ "obj-95", 0 ],
									"hidden" : 0,
									"midpoints" : [  ]
								}

							}
, 							{
								"patchline" : 								{
									"source" : [ "obj-1", 1 ],
									"destination" : [ "obj-62", 0 ],
									"hidden" : 0,
									"midpoints" : [  ]
								}

							}
, 							{
								"patchline" : 								{
									"source" : [ "obj-5", 0 ],
									"destination" : [ "obj-1", 0 ],
									"hidden" : 0,
									"midpoints" : [ 112.5, 234.5, 84.5, 234.5 ]
								}

							}
, 							{
								"patchline" : 								{
									"source" : [ "obj-11", 0 ],
									"destination" : [ "obj-1", 0 ],
									"hidden" : 0,
									"midpoints" : [ 91.5, 222.5, 84.5, 222.5 ]
								}

							}
, 							{
								"patchline" : 								{
									"source" : [ "obj-1", 0 ],
									"destination" : [ "obj-4", 0 ],
									"hidden" : 0,
									"midpoints" : [  ]
								}

							}
, 							{
								"patchline" : 								{
									"source" : [ "obj-95", 0 ],
									"destination" : [ "obj-4", 0 ],
									"hidden" : 0,
									"midpoints" : [  ]
								}

							}
, 							{
								"patchline" : 								{
									"source" : [ "obj-3", 0 ],
									"destination" : [ "obj-6", 0 ],
									"hidden" : 0,
									"midpoints" : [  ]
								}

							}
, 							{
								"patchline" : 								{
									"source" : [ "obj-6", 1 ],
									"destination" : [ "obj-1", 0 ],
									"hidden" : 0,
									"midpoints" : [ 212.0, 263.0, 84.5, 263.0 ]
								}

							}
, 							{
								"patchline" : 								{
									"source" : [ "obj-2", 0 ],
									"destination" : [ "obj-37", 0 ],
									"hidden" : 0,
									"midpoints" : [  ]
								}

							}
, 							{
								"patchline" : 								{
									"source" : [ "obj-6", 0 ],
									"destination" : [ "obj-37", 0 ],
									"hidden" : 0,
									"midpoints" : [ 198.5, 110.0, 59.5, 110.0 ]
								}

							}
 ]
					}
,
					"saved_object_attributes" : 					{
						"fontface" : 0,
						"fontsize" : 12.0,
						"default_fontface" : 0,
						"default_fontname" : "Arial",
						"fontname" : "Arial",
						"default_fontsize" : 12.0,
						"globalpatchername" : ""
					}

				}

			}
, 			{
				"box" : 				{
					"maxclass" : "comment",
					"text" : "order",
					"fontsize" : 12.0,
					"patching_rect" : [ 46.0, 108.0, 68.0, 20.0 ],
					"numinlets" : 1,
					"id" : "obj-3",
					"numoutlets" : 0,
					"fontname" : "Arial"
				}

			}
, 			{
				"box" : 				{
					"maxclass" : "textedit",
					"text" : "order_nr",
					"fontsize" : 12.0,
					"patching_rect" : [ 114.0, 108.0, 318.0, 20.0 ],
					"numinlets" : 1,
					"id" : "obj-2",
					"numoutlets" : 4,
					"fontname" : "Arial",
					"outlettype" : [ "", "int", "", "" ]
				}

			}
, 			{
				"box" : 				{
					"maxclass" : "newobj",
					"text" : "p",
					"fontsize" : 12.0,
					"hidden" : 1,
					"patching_rect" : [ 224.0, 136.0, 100.0, 20.0 ],
					"numinlets" : 11,
					"id" : "obj-35",
					"numoutlets" : 6,
					"fontname" : "Arial",
					"outlettype" : [ "", "", "", "", "", "bang" ],
					"patcher" : 					{
						"fileversion" : 1,
						"rect" : [ 90.0, 298.0, 1054.0, 667.0 ],
						"bglocked" : 0,
						"defrect" : [ 90.0, 298.0, 1054.0, 667.0 ],
						"openrect" : [ 0.0, 0.0, 0.0, 0.0 ],
						"openinpresentation" : 0,
						"default_fontsize" : 12.0,
						"default_fontface" : 0,
						"default_fontname" : "Arial",
						"gridonopen" : 0,
						"gridsize" : [ 15.0, 15.0 ],
						"gridsnaponopen" : 0,
						"toolbarvisible" : 1,
						"boxanimatetime" : 200,
						"imprint" : 0,
						"enablehscroll" : 1,
						"enablevscroll" : 1,
						"boxes" : [ 							{
								"box" : 								{
									"maxclass" : "inlet",
									"patching_rect" : [ 840.0, 39.0, 25.0, 25.0 ],
									"numinlets" : 0,
									"id" : "obj-38",
									"numoutlets" : 1,
									"outlettype" : [ "int" ],
									"comment" : ""
								}

							}
, 							{
								"box" : 								{
									"maxclass" : "message",
									"text" : "77",
									"fontsize" : 12.0,
									"patching_rect" : [ 909.0, 148.0, 32.5, 18.0 ],
									"numinlets" : 2,
									"id" : "obj-29",
									"numoutlets" : 1,
									"fontname" : "Arial",
									"outlettype" : [ "" ]
								}

							}
, 							{
								"box" : 								{
									"maxclass" : "message",
									"text" : "select",
									"fontsize" : 12.0,
									"patching_rect" : [ 668.0, 300.0, 42.0, 18.0 ],
									"numinlets" : 2,
									"id" : "obj-18",
									"numoutlets" : 1,
									"fontname" : "Arial",
									"outlettype" : [ "" ]
								}

							}
, 							{
								"box" : 								{
									"maxclass" : "newobj",
									"text" : "sel 9",
									"fontsize" : 12.0,
									"patching_rect" : [ 623.0, 300.0, 36.0, 20.0 ],
									"numinlets" : 2,
									"id" : "obj-21",
									"numoutlets" : 2,
									"fontname" : "Arial",
									"outlettype" : [ "bang", "" ]
								}

							}
, 							{
								"box" : 								{
									"maxclass" : "newobj",
									"text" : "route text",
									"fontsize" : 12.0,
									"patching_rect" : [ 559.0, 299.0, 61.0, 20.0 ],
									"numinlets" : 1,
									"id" : "obj-23",
									"numoutlets" : 2,
									"fontname" : "Arial",
									"outlettype" : [ "", "" ]
								}

							}
, 							{
								"box" : 								{
									"maxclass" : "inlet",
									"patching_rect" : [ 804.0, 39.0, 25.0, 25.0 ],
									"numinlets" : 0,
									"id" : "obj-12",
									"numoutlets" : 1,
									"outlettype" : [ "" ],
									"comment" : ""
								}

							}
, 							{
								"box" : 								{
									"maxclass" : "outlet",
									"patching_rect" : [ 667.0, 468.0, 25.0, 25.0 ],
									"numinlets" : 1,
									"id" : "obj-11",
									"numoutlets" : 0,
									"comment" : ""
								}

							}
, 							{
								"box" : 								{
									"maxclass" : "newobj",
									"text" : "fromsymbol",
									"fontsize" : 12.0,
									"patching_rect" : [ 807.0, 166.0, 73.0, 20.0 ],
									"numinlets" : 1,
									"id" : "obj-1",
									"numoutlets" : 1,
									"fontname" : "Arial",
									"outlettype" : [ "" ]
								}

							}
, 							{
								"box" : 								{
									"maxclass" : "newobj",
									"text" : "prepend set",
									"fontsize" : 12.0,
									"patching_rect" : [ 808.0, 189.0, 74.0, 20.0 ],
									"numinlets" : 1,
									"id" : "obj-8",
									"numoutlets" : 1,
									"fontname" : "Arial",
									"outlettype" : [ "" ]
								}

							}
, 							{
								"box" : 								{
									"maxclass" : "button",
									"patching_rect" : [ 140.0, 168.0, 20.0, 20.0 ],
									"numinlets" : 1,
									"id" : "obj-5",
									"numoutlets" : 1,
									"outlettype" : [ "bang" ]
								}

							}
, 							{
								"box" : 								{
									"maxclass" : "newobj",
									"text" : "fromsymbol",
									"fontsize" : 12.0,
									"patching_rect" : [ 259.0, 162.0, 73.0, 20.0 ],
									"numinlets" : 1,
									"id" : "obj-118",
									"numoutlets" : 1,
									"fontname" : "Arial",
									"outlettype" : [ "" ]
								}

							}
, 							{
								"box" : 								{
									"maxclass" : "newobj",
									"text" : "fromsymbol",
									"fontsize" : 12.0,
									"patching_rect" : [ 342.0, 162.0, 73.0, 20.0 ],
									"numinlets" : 1,
									"id" : "obj-117",
									"numoutlets" : 1,
									"fontname" : "Arial",
									"outlettype" : [ "" ]
								}

							}
, 							{
								"box" : 								{
									"maxclass" : "newobj",
									"text" : "fromsymbol",
									"fontsize" : 12.0,
									"patching_rect" : [ 420.0, 163.0, 73.0, 20.0 ],
									"numinlets" : 1,
									"id" : "obj-116",
									"numoutlets" : 1,
									"fontname" : "Arial",
									"outlettype" : [ "" ]
								}

							}
, 							{
								"box" : 								{
									"maxclass" : "newobj",
									"text" : "fromsymbol",
									"fontsize" : 12.0,
									"patching_rect" : [ 492.0, 163.0, 73.0, 20.0 ],
									"numinlets" : 1,
									"id" : "obj-115",
									"numoutlets" : 1,
									"fontname" : "Arial",
									"outlettype" : [ "" ]
								}

							}
, 							{
								"box" : 								{
									"maxclass" : "newobj",
									"text" : "prepend set",
									"fontsize" : 12.0,
									"patching_rect" : [ 493.0, 186.0, 74.0, 20.0 ],
									"numinlets" : 1,
									"id" : "obj-114",
									"numoutlets" : 1,
									"fontname" : "Arial",
									"outlettype" : [ "" ]
								}

							}
, 							{
								"box" : 								{
									"maxclass" : "newobj",
									"text" : "prepend set",
									"fontsize" : 12.0,
									"patching_rect" : [ 420.0, 186.0, 74.0, 20.0 ],
									"numinlets" : 1,
									"id" : "obj-113",
									"numoutlets" : 1,
									"fontname" : "Arial",
									"outlettype" : [ "" ]
								}

							}
, 							{
								"box" : 								{
									"maxclass" : "newobj",
									"text" : "prepend set",
									"fontsize" : 12.0,
									"patching_rect" : [ 347.0, 186.0, 74.0, 20.0 ],
									"numinlets" : 1,
									"id" : "obj-112",
									"numoutlets" : 1,
									"fontname" : "Arial",
									"outlettype" : [ "" ]
								}

							}
, 							{
								"box" : 								{
									"maxclass" : "newobj",
									"text" : "prepend set",
									"fontsize" : 12.0,
									"patching_rect" : [ 272.0, 186.0, 74.0, 20.0 ],
									"numinlets" : 1,
									"id" : "obj-111",
									"numoutlets" : 1,
									"fontname" : "Arial",
									"outlettype" : [ "" ]
								}

							}
, 							{
								"box" : 								{
									"maxclass" : "newobj",
									"text" : "unpack i i s s s s s s",
									"fontsize" : 12.0,
									"patching_rect" : [ 120.0, 122.0, 749.0, 20.0 ],
									"numinlets" : 1,
									"id" : "obj-108",
									"numoutlets" : 8,
									"fontname" : "Arial",
									"outlettype" : [ "int", "int", "", "", "", "", "", "" ]
								}

							}
, 							{
								"box" : 								{
									"maxclass" : "newobj",
									"text" : "r settings_from_cellblock",
									"fontsize" : 12.0,
									"patching_rect" : [ 120.0, 100.0, 143.0, 20.0 ],
									"numinlets" : 0,
									"id" : "obj-107",
									"numoutlets" : 1,
									"fontname" : "Arial",
									"outlettype" : [ "" ]
								}

							}
, 							{
								"box" : 								{
									"maxclass" : "newobj",
									"text" : "loadbang",
									"fontsize" : 12.0,
									"patching_rect" : [ 50.0, 219.0, 60.0, 20.0 ],
									"numinlets" : 1,
									"id" : "obj-71",
									"numoutlets" : 1,
									"fontname" : "Arial",
									"outlettype" : [ "bang" ]
								}

							}
, 							{
								"box" : 								{
									"maxclass" : "newobj",
									"text" : "tosymbol",
									"fontsize" : 12.0,
									"patching_rect" : [ 435.0, 336.0, 59.0, 20.0 ],
									"numinlets" : 1,
									"id" : "obj-55",
									"numoutlets" : 1,
									"fontname" : "Arial",
									"outlettype" : [ "" ]
								}

							}
, 							{
								"box" : 								{
									"maxclass" : "newobj",
									"text" : "tosymbol",
									"fontsize" : 12.0,
									"patching_rect" : [ 382.0, 336.0, 59.0, 20.0 ],
									"numinlets" : 1,
									"id" : "obj-54",
									"numoutlets" : 1,
									"fontname" : "Arial",
									"outlettype" : [ "" ]
								}

							}
, 							{
								"box" : 								{
									"maxclass" : "newobj",
									"text" : "tosymbol",
									"fontsize" : 12.0,
									"patching_rect" : [ 329.0, 336.0, 59.0, 20.0 ],
									"numinlets" : 1,
									"id" : "obj-53",
									"numoutlets" : 1,
									"fontname" : "Arial",
									"outlettype" : [ "" ]
								}

							}
, 							{
								"box" : 								{
									"maxclass" : "newobj",
									"text" : "tosymbol",
									"fontsize" : 12.0,
									"patching_rect" : [ 261.0, 336.0, 59.0, 20.0 ],
									"numinlets" : 1,
									"id" : "obj-52",
									"numoutlets" : 1,
									"fontname" : "Arial",
									"outlettype" : [ "" ]
								}

							}
, 							{
								"box" : 								{
									"maxclass" : "message",
									"text" : "select",
									"fontsize" : 12.0,
									"patching_rect" : [ 662.0, 277.0, 42.0, 18.0 ],
									"numinlets" : 2,
									"id" : "obj-48",
									"numoutlets" : 1,
									"fontname" : "Arial",
									"outlettype" : [ "" ]
								}

							}
, 							{
								"box" : 								{
									"maxclass" : "newobj",
									"text" : "sel 9",
									"fontsize" : 12.0,
									"patching_rect" : [ 617.0, 277.0, 36.0, 20.0 ],
									"numinlets" : 2,
									"id" : "obj-49",
									"numoutlets" : 2,
									"fontname" : "Arial",
									"outlettype" : [ "bang", "" ]
								}

							}
, 							{
								"box" : 								{
									"maxclass" : "message",
									"text" : "select",
									"fontsize" : 12.0,
									"patching_rect" : [ 662.0, 253.0, 42.0, 18.0 ],
									"numinlets" : 2,
									"id" : "obj-46",
									"numoutlets" : 1,
									"fontname" : "Arial",
									"outlettype" : [ "" ]
								}

							}
, 							{
								"box" : 								{
									"maxclass" : "newobj",
									"text" : "sel 9",
									"fontsize" : 12.0,
									"patching_rect" : [ 617.0, 253.0, 36.0, 20.0 ],
									"numinlets" : 2,
									"id" : "obj-47",
									"numoutlets" : 2,
									"fontname" : "Arial",
									"outlettype" : [ "bang", "" ]
								}

							}
, 							{
								"box" : 								{
									"maxclass" : "message",
									"text" : "select",
									"fontsize" : 12.0,
									"patching_rect" : [ 662.0, 229.0, 42.0, 18.0 ],
									"numinlets" : 2,
									"id" : "obj-44",
									"numoutlets" : 1,
									"fontname" : "Arial",
									"outlettype" : [ "" ]
								}

							}
, 							{
								"box" : 								{
									"maxclass" : "newobj",
									"text" : "sel 9",
									"fontsize" : 12.0,
									"patching_rect" : [ 617.0, 229.0, 36.0, 20.0 ],
									"numinlets" : 2,
									"id" : "obj-45",
									"numoutlets" : 2,
									"fontname" : "Arial",
									"outlettype" : [ "bang", "" ]
								}

							}
, 							{
								"box" : 								{
									"maxclass" : "message",
									"text" : "select",
									"fontsize" : 12.0,
									"patching_rect" : [ 662.0, 205.0, 42.0, 18.0 ],
									"numinlets" : 2,
									"id" : "obj-43",
									"numoutlets" : 1,
									"fontname" : "Arial",
									"outlettype" : [ "" ]
								}

							}
, 							{
								"box" : 								{
									"maxclass" : "newobj",
									"text" : "sel 9",
									"fontsize" : 12.0,
									"patching_rect" : [ 617.0, 205.0, 36.0, 20.0 ],
									"numinlets" : 2,
									"id" : "obj-42",
									"numoutlets" : 2,
									"fontname" : "Arial",
									"outlettype" : [ "bang", "" ]
								}

							}
, 							{
								"box" : 								{
									"maxclass" : "newobj",
									"text" : "t b b",
									"fontsize" : 12.0,
									"patching_rect" : [ 202.0, 323.0, 34.0, 20.0 ],
									"numinlets" : 1,
									"id" : "obj-37",
									"numoutlets" : 2,
									"fontname" : "Arial",
									"outlettype" : [ "bang", "bang" ]
								}

							}
, 							{
								"box" : 								{
									"maxclass" : "message",
									"text" : "set",
									"fontsize" : 12.0,
									"patching_rect" : [ 53.0, 254.0, 32.5, 18.0 ],
									"numinlets" : 2,
									"id" : "obj-36",
									"numoutlets" : 1,
									"fontname" : "Arial",
									"outlettype" : [ "" ]
								}

							}
, 							{
								"box" : 								{
									"maxclass" : "newobj",
									"text" : "route text",
									"fontsize" : 12.0,
									"patching_rect" : [ 556.0, 272.0, 61.0, 20.0 ],
									"numinlets" : 1,
									"id" : "obj-28",
									"numoutlets" : 2,
									"fontname" : "Arial",
									"outlettype" : [ "", "" ]
								}

							}
, 							{
								"box" : 								{
									"maxclass" : "newobj",
									"text" : "route text",
									"fontsize" : 12.0,
									"patching_rect" : [ 556.0, 250.0, 61.0, 20.0 ],
									"numinlets" : 1,
									"id" : "obj-25",
									"numoutlets" : 2,
									"fontname" : "Arial",
									"outlettype" : [ "", "" ]
								}

							}
, 							{
								"box" : 								{
									"maxclass" : "newobj",
									"text" : "route text",
									"fontsize" : 12.0,
									"patching_rect" : [ 556.0, 228.0, 61.0, 20.0 ],
									"numinlets" : 1,
									"id" : "obj-22",
									"numoutlets" : 2,
									"fontname" : "Arial",
									"outlettype" : [ "", "" ]
								}

							}
, 							{
								"box" : 								{
									"maxclass" : "newobj",
									"text" : "route text",
									"fontsize" : 12.0,
									"patching_rect" : [ 556.0, 205.0, 61.0, 20.0 ],
									"numinlets" : 1,
									"id" : "obj-13",
									"numoutlets" : 2,
									"fontname" : "Arial",
									"outlettype" : [ "", "" ]
								}

							}
, 							{
								"box" : 								{
									"maxclass" : "newobj",
									"text" : "s to_settings",
									"fontsize" : 12.0,
									"patching_rect" : [ 154.0, 446.0, 78.0, 20.0 ],
									"numinlets" : 1,
									"id" : "obj-10",
									"numoutlets" : 0,
									"fontname" : "Arial"
								}

							}
, 							{
								"box" : 								{
									"maxclass" : "newobj",
									"text" : "pack update name value description profile 0",
									"fontsize" : 12.0,
									"patching_rect" : [ 154.0, 423.0, 249.0, 20.0 ],
									"numinlets" : 6,
									"id" : "obj-9",
									"numoutlets" : 1,
									"fontname" : "Arial",
									"outlettype" : [ "" ]
								}

							}
, 							{
								"box" : 								{
									"maxclass" : "inlet",
									"patching_rect" : [ 207.0, 40.0, 25.0, 25.0 ],
									"numinlets" : 0,
									"id" : "obj-2",
									"numoutlets" : 1,
									"outlettype" : [ "" ],
									"comment" : ""
								}

							}
, 							{
								"box" : 								{
									"maxclass" : "inlet",
									"patching_rect" : [ 561.0, 40.0, 25.0, 25.0 ],
									"numinlets" : 0,
									"id" : "obj-3",
									"numoutlets" : 1,
									"outlettype" : [ "" ],
									"comment" : ""
								}

							}
, 							{
								"box" : 								{
									"maxclass" : "inlet",
									"patching_rect" : [ 591.0, 40.0, 25.0, 25.0 ],
									"numinlets" : 0,
									"id" : "obj-4",
									"numoutlets" : 1,
									"outlettype" : [ "" ],
									"comment" : ""
								}

							}
, 							{
								"box" : 								{
									"maxclass" : "inlet",
									"patching_rect" : [ 621.0, 40.0, 25.0, 25.0 ],
									"numinlets" : 0,
									"id" : "obj-6",
									"numoutlets" : 1,
									"outlettype" : [ "" ],
									"comment" : ""
								}

							}
, 							{
								"box" : 								{
									"maxclass" : "inlet",
									"patching_rect" : [ 651.0, 40.0, 25.0, 25.0 ],
									"numinlets" : 0,
									"id" : "obj-7",
									"numoutlets" : 1,
									"outlettype" : [ "" ],
									"comment" : ""
								}

							}
, 							{
								"box" : 								{
									"maxclass" : "inlet",
									"patching_rect" : [ 681.0, 40.0, 25.0, 25.0 ],
									"numinlets" : 0,
									"id" : "obj-14",
									"numoutlets" : 1,
									"outlettype" : [ "int" ],
									"comment" : ""
								}

							}
, 							{
								"box" : 								{
									"maxclass" : "inlet",
									"patching_rect" : [ 711.0, 40.0, 25.0, 25.0 ],
									"numinlets" : 0,
									"id" : "obj-15",
									"numoutlets" : 1,
									"outlettype" : [ "int" ],
									"comment" : ""
								}

							}
, 							{
								"box" : 								{
									"maxclass" : "inlet",
									"patching_rect" : [ 741.0, 40.0, 25.0, 25.0 ],
									"numinlets" : 0,
									"id" : "obj-16",
									"numoutlets" : 1,
									"outlettype" : [ "int" ],
									"comment" : ""
								}

							}
, 							{
								"box" : 								{
									"maxclass" : "inlet",
									"patching_rect" : [ 771.0, 40.0, 25.0, 25.0 ],
									"numinlets" : 0,
									"id" : "obj-17",
									"numoutlets" : 1,
									"outlettype" : [ "int" ],
									"comment" : ""
								}

							}
, 							{
								"box" : 								{
									"maxclass" : "outlet",
									"patching_rect" : [ 58.0, 471.0, 25.0, 25.0 ],
									"numinlets" : 1,
									"id" : "obj-19",
									"numoutlets" : 0,
									"comment" : ""
								}

							}
, 							{
								"box" : 								{
									"maxclass" : "outlet",
									"patching_rect" : [ 476.0, 471.0, 25.0, 25.0 ],
									"numinlets" : 1,
									"id" : "obj-20",
									"numoutlets" : 0,
									"comment" : ""
								}

							}
, 							{
								"box" : 								{
									"maxclass" : "outlet",
									"patching_rect" : [ 514.0, 471.0, 25.0, 25.0 ],
									"numinlets" : 1,
									"id" : "obj-31",
									"numoutlets" : 0,
									"comment" : ""
								}

							}
, 							{
								"box" : 								{
									"maxclass" : "outlet",
									"patching_rect" : [ 550.0, 471.0, 25.0, 25.0 ],
									"numinlets" : 1,
									"id" : "obj-33",
									"numoutlets" : 0,
									"comment" : ""
								}

							}
, 							{
								"box" : 								{
									"maxclass" : "outlet",
									"patching_rect" : [ 587.0, 471.0, 25.0, 25.0 ],
									"numinlets" : 1,
									"id" : "obj-34",
									"numoutlets" : 0,
									"comment" : ""
								}

							}
 ],
						"lines" : [ 							{
								"patchline" : 								{
									"source" : [ "obj-23", 0 ],
									"destination" : [ "obj-9", 5 ],
									"hidden" : 0,
									"midpoints" : [  ]
								}

							}
, 							{
								"patchline" : 								{
									"source" : [ "obj-38", 0 ],
									"destination" : [ "obj-21", 0 ],
									"hidden" : 0,
									"midpoints" : [  ]
								}

							}
, 							{
								"patchline" : 								{
									"source" : [ "obj-12", 0 ],
									"destination" : [ "obj-23", 0 ],
									"hidden" : 0,
									"midpoints" : [  ]
								}

							}
, 							{
								"patchline" : 								{
									"source" : [ "obj-29", 0 ],
									"destination" : [ "obj-8", 0 ],
									"hidden" : 0,
									"midpoints" : [  ]
								}

							}
, 							{
								"patchline" : 								{
									"source" : [ "obj-5", 0 ],
									"destination" : [ "obj-11", 0 ],
									"hidden" : 0,
									"midpoints" : [  ]
								}

							}
, 							{
								"patchline" : 								{
									"source" : [ "obj-37", 0 ],
									"destination" : [ "obj-9", 0 ],
									"hidden" : 0,
									"midpoints" : [  ]
								}

							}
, 							{
								"patchline" : 								{
									"source" : [ "obj-55", 0 ],
									"destination" : [ "obj-9", 4 ],
									"hidden" : 0,
									"midpoints" : [  ]
								}

							}
, 							{
								"patchline" : 								{
									"source" : [ "obj-54", 0 ],
									"destination" : [ "obj-9", 3 ],
									"hidden" : 0,
									"midpoints" : [  ]
								}

							}
, 							{
								"patchline" : 								{
									"source" : [ "obj-53", 0 ],
									"destination" : [ "obj-9", 2 ],
									"hidden" : 0,
									"midpoints" : [  ]
								}

							}
, 							{
								"patchline" : 								{
									"source" : [ "obj-52", 0 ],
									"destination" : [ "obj-9", 1 ],
									"hidden" : 0,
									"midpoints" : [  ]
								}

							}
, 							{
								"patchline" : 								{
									"source" : [ "obj-9", 0 ],
									"destination" : [ "obj-10", 0 ],
									"hidden" : 0,
									"midpoints" : [  ]
								}

							}
, 							{
								"patchline" : 								{
									"source" : [ "obj-108", 7 ],
									"destination" : [ "obj-115", 0 ],
									"hidden" : 0,
									"midpoints" : [ 531.0, 184.0 ]
								}

							}
, 							{
								"patchline" : 								{
									"source" : [ "obj-108", 6 ],
									"destination" : [ "obj-116", 0 ],
									"hidden" : 0,
									"midpoints" : [  ]
								}

							}
, 							{
								"patchline" : 								{
									"source" : [ "obj-108", 5 ],
									"destination" : [ "obj-117", 0 ],
									"hidden" : 0,
									"midpoints" : [  ]
								}

							}
, 							{
								"patchline" : 								{
									"source" : [ "obj-108", 4 ],
									"destination" : [ "obj-118", 0 ],
									"hidden" : 0,
									"midpoints" : [  ]
								}

							}
, 							{
								"patchline" : 								{
									"source" : [ "obj-108", 3 ],
									"destination" : [ "obj-1", 0 ],
									"hidden" : 0,
									"midpoints" : [  ]
								}

							}
, 							{
								"patchline" : 								{
									"source" : [ "obj-48", 0 ],
									"destination" : [ "obj-11", 0 ],
									"hidden" : 0,
									"midpoints" : [  ]
								}

							}
, 							{
								"patchline" : 								{
									"source" : [ "obj-18", 0 ],
									"destination" : [ "obj-20", 0 ],
									"hidden" : 0,
									"midpoints" : [  ]
								}

							}
, 							{
								"patchline" : 								{
									"source" : [ "obj-21", 0 ],
									"destination" : [ "obj-18", 0 ],
									"hidden" : 0,
									"midpoints" : [  ]
								}

							}
, 							{
								"patchline" : 								{
									"source" : [ "obj-8", 0 ],
									"destination" : [ "obj-11", 0 ],
									"hidden" : 0,
									"midpoints" : [  ]
								}

							}
, 							{
								"patchline" : 								{
									"source" : [ "obj-1", 0 ],
									"destination" : [ "obj-8", 0 ],
									"hidden" : 0,
									"midpoints" : [  ]
								}

							}
, 							{
								"patchline" : 								{
									"source" : [ "obj-108", 0 ],
									"destination" : [ "obj-5", 0 ],
									"hidden" : 0,
									"midpoints" : [  ]
								}

							}
, 							{
								"patchline" : 								{
									"source" : [ "obj-107", 0 ],
									"destination" : [ "obj-108", 0 ],
									"hidden" : 0,
									"midpoints" : [  ]
								}

							}
, 							{
								"patchline" : 								{
									"source" : [ "obj-46", 0 ],
									"destination" : [ "obj-34", 0 ],
									"hidden" : 0,
									"midpoints" : [  ]
								}

							}
, 							{
								"patchline" : 								{
									"source" : [ "obj-114", 0 ],
									"destination" : [ "obj-34", 0 ],
									"hidden" : 0,
									"midpoints" : [  ]
								}

							}
, 							{
								"patchline" : 								{
									"source" : [ "obj-43", 0 ],
									"destination" : [ "obj-33", 0 ],
									"hidden" : 0,
									"midpoints" : [  ]
								}

							}
, 							{
								"patchline" : 								{
									"source" : [ "obj-113", 0 ],
									"destination" : [ "obj-33", 0 ],
									"hidden" : 0,
									"midpoints" : [  ]
								}

							}
, 							{
								"patchline" : 								{
									"source" : [ "obj-44", 0 ],
									"destination" : [ "obj-31", 0 ],
									"hidden" : 0,
									"midpoints" : [  ]
								}

							}
, 							{
								"patchline" : 								{
									"source" : [ "obj-112", 0 ],
									"destination" : [ "obj-31", 0 ],
									"hidden" : 0,
									"midpoints" : [  ]
								}

							}
, 							{
								"patchline" : 								{
									"source" : [ "obj-111", 0 ],
									"destination" : [ "obj-20", 0 ],
									"hidden" : 0,
									"midpoints" : [  ]
								}

							}
, 							{
								"patchline" : 								{
									"source" : [ "obj-36", 0 ],
									"destination" : [ "obj-19", 0 ],
									"hidden" : 0,
									"midpoints" : [  ]
								}

							}
, 							{
								"patchline" : 								{
									"source" : [ "obj-17", 0 ],
									"destination" : [ "obj-49", 0 ],
									"hidden" : 0,
									"midpoints" : [  ]
								}

							}
, 							{
								"patchline" : 								{
									"source" : [ "obj-16", 0 ],
									"destination" : [ "obj-47", 0 ],
									"hidden" : 0,
									"midpoints" : [  ]
								}

							}
, 							{
								"patchline" : 								{
									"source" : [ "obj-15", 0 ],
									"destination" : [ "obj-45", 0 ],
									"hidden" : 0,
									"midpoints" : [  ]
								}

							}
, 							{
								"patchline" : 								{
									"source" : [ "obj-14", 0 ],
									"destination" : [ "obj-42", 0 ],
									"hidden" : 0,
									"midpoints" : [  ]
								}

							}
, 							{
								"patchline" : 								{
									"source" : [ "obj-7", 0 ],
									"destination" : [ "obj-28", 0 ],
									"hidden" : 0,
									"midpoints" : [  ]
								}

							}
, 							{
								"patchline" : 								{
									"source" : [ "obj-6", 0 ],
									"destination" : [ "obj-25", 0 ],
									"hidden" : 0,
									"midpoints" : [  ]
								}

							}
, 							{
								"patchline" : 								{
									"source" : [ "obj-4", 0 ],
									"destination" : [ "obj-22", 0 ],
									"hidden" : 0,
									"midpoints" : [  ]
								}

							}
, 							{
								"patchline" : 								{
									"source" : [ "obj-3", 0 ],
									"destination" : [ "obj-13", 0 ],
									"hidden" : 0,
									"midpoints" : [  ]
								}

							}
, 							{
								"patchline" : 								{
									"source" : [ "obj-2", 0 ],
									"destination" : [ "obj-37", 0 ],
									"hidden" : 0,
									"midpoints" : [  ]
								}

							}
, 							{
								"patchline" : 								{
									"source" : [ "obj-118", 0 ],
									"destination" : [ "obj-111", 0 ],
									"hidden" : 0,
									"midpoints" : [  ]
								}

							}
, 							{
								"patchline" : 								{
									"source" : [ "obj-117", 0 ],
									"destination" : [ "obj-112", 0 ],
									"hidden" : 0,
									"midpoints" : [  ]
								}

							}
, 							{
								"patchline" : 								{
									"source" : [ "obj-116", 0 ],
									"destination" : [ "obj-113", 0 ],
									"hidden" : 0,
									"midpoints" : [  ]
								}

							}
, 							{
								"patchline" : 								{
									"source" : [ "obj-115", 0 ],
									"destination" : [ "obj-114", 0 ],
									"hidden" : 0,
									"midpoints" : [  ]
								}

							}
, 							{
								"patchline" : 								{
									"source" : [ "obj-71", 0 ],
									"destination" : [ "obj-36", 0 ],
									"hidden" : 0,
									"midpoints" : [  ]
								}

							}
, 							{
								"patchline" : 								{
									"source" : [ "obj-13", 0 ],
									"destination" : [ "obj-52", 0 ],
									"hidden" : 0,
									"midpoints" : [  ]
								}

							}
, 							{
								"patchline" : 								{
									"source" : [ "obj-42", 0 ],
									"destination" : [ "obj-43", 0 ],
									"hidden" : 0,
									"midpoints" : [  ]
								}

							}
, 							{
								"patchline" : 								{
									"source" : [ "obj-45", 0 ],
									"destination" : [ "obj-44", 0 ],
									"hidden" : 0,
									"midpoints" : [  ]
								}

							}
, 							{
								"patchline" : 								{
									"source" : [ "obj-47", 0 ],
									"destination" : [ "obj-46", 0 ],
									"hidden" : 0,
									"midpoints" : [  ]
								}

							}
, 							{
								"patchline" : 								{
									"source" : [ "obj-49", 0 ],
									"destination" : [ "obj-48", 0 ],
									"hidden" : 0,
									"midpoints" : [  ]
								}

							}
, 							{
								"patchline" : 								{
									"source" : [ "obj-22", 0 ],
									"destination" : [ "obj-53", 0 ],
									"hidden" : 0,
									"midpoints" : [  ]
								}

							}
, 							{
								"patchline" : 								{
									"source" : [ "obj-25", 0 ],
									"destination" : [ "obj-54", 0 ],
									"hidden" : 0,
									"midpoints" : [  ]
								}

							}
, 							{
								"patchline" : 								{
									"source" : [ "obj-28", 0 ],
									"destination" : [ "obj-55", 0 ],
									"hidden" : 0,
									"midpoints" : [  ]
								}

							}
, 							{
								"patchline" : 								{
									"source" : [ "obj-5", 0 ],
									"destination" : [ "obj-34", 0 ],
									"hidden" : 0,
									"midpoints" : [  ]
								}

							}
, 							{
								"patchline" : 								{
									"source" : [ "obj-5", 0 ],
									"destination" : [ "obj-33", 0 ],
									"hidden" : 0,
									"midpoints" : [  ]
								}

							}
, 							{
								"patchline" : 								{
									"source" : [ "obj-5", 0 ],
									"destination" : [ "obj-31", 0 ],
									"hidden" : 0,
									"midpoints" : [  ]
								}

							}
, 							{
								"patchline" : 								{
									"source" : [ "obj-5", 0 ],
									"destination" : [ "obj-20", 0 ],
									"hidden" : 0,
									"midpoints" : [  ]
								}

							}
, 							{
								"patchline" : 								{
									"source" : [ "obj-37", 1 ],
									"destination" : [ "obj-5", 0 ],
									"hidden" : 0,
									"midpoints" : [  ]
								}

							}
 ]
					}
,
					"saved_object_attributes" : 					{
						"fontface" : 0,
						"fontsize" : 12.0,
						"default_fontface" : 0,
						"default_fontname" : "Arial",
						"fontname" : "Arial",
						"default_fontsize" : 12.0,
						"globalpatchername" : ""
					}

				}

			}
, 			{
				"box" : 				{
					"maxclass" : "comment",
					"text" : "show settings for profile",
					"fontsize" : 12.0,
					"patching_rect" : [ 706.0, 156.0, 137.0, 20.0 ],
					"numinlets" : 1,
					"id" : "obj-106",
					"numoutlets" : 0,
					"fontname" : "Arial"
				}

			}
, 			{
				"box" : 				{
					"maxclass" : "newobj",
					"text" : "s settings_from_cellblock",
					"fontsize" : 12.0,
					"hidden" : 1,
					"patching_rect" : [ 40.0, 557.0, 145.0, 20.0 ],
					"numinlets" : 1,
					"id" : "obj-104",
					"numoutlets" : 0,
					"fontname" : "Arial"
				}

			}
, 			{
				"box" : 				{
					"maxclass" : "newobj",
					"text" : "p",
					"fontsize" : 12.0,
					"hidden" : 1,
					"patching_rect" : [ 432.0, 131.0, 100.0, 20.0 ],
					"numinlets" : 1,
					"id" : "obj-103",
					"numoutlets" : 0,
					"fontname" : "Arial",
					"patcher" : 					{
						"fileversion" : 1,
						"rect" : [ 639.0, 145.0, 640.0, 480.0 ],
						"bglocked" : 0,
						"defrect" : [ 639.0, 145.0, 640.0, 480.0 ],
						"openrect" : [ 0.0, 0.0, 0.0, 0.0 ],
						"openinpresentation" : 0,
						"default_fontsize" : 12.0,
						"default_fontface" : 0,
						"default_fontname" : "Arial",
						"gridonopen" : 0,
						"gridsize" : [ 15.0, 15.0 ],
						"gridsnaponopen" : 0,
						"toolbarvisible" : 1,
						"boxanimatetime" : 200,
						"imprint" : 0,
						"enablehscroll" : 1,
						"enablevscroll" : 1,
						"boxes" : [ 							{
								"box" : 								{
									"maxclass" : "newobj",
									"text" : "r settings_from_cellblock",
									"fontsize" : 12.0,
									"patching_rect" : [ 52.0, 63.0, 143.0, 20.0 ],
									"numinlets" : 0,
									"id" : "obj-105",
									"numoutlets" : 1,
									"fontname" : "Arial",
									"outlettype" : [ "" ]
								}

							}
, 							{
								"box" : 								{
									"maxclass" : "newobj",
									"text" : "s to_settings",
									"fontsize" : 12.0,
									"hidden" : 1,
									"patching_rect" : [ 299.0, 209.0, 78.0, 20.0 ],
									"numinlets" : 1,
									"id" : "obj-33",
									"numoutlets" : 0,
									"fontname" : "Arial"
								}

							}
, 							{
								"box" : 								{
									"maxclass" : "newobj",
									"text" : "aalert \"Delete setting\" \"Do you really want to delete selected setting?\" Yes No",
									"fontsize" : 12.0,
									"hidden" : 1,
									"patching_rect" : [ 301.0, 83.0, 422.0, 20.0 ],
									"numinlets" : 1,
									"id" : "obj-31",
									"numoutlets" : 3,
									"fontname" : "Arial",
									"outlettype" : [ "bang", "bang", "bang" ]
								}

							}
, 							{
								"box" : 								{
									"maxclass" : "newobj",
									"text" : "pack delete_id i",
									"fontsize" : 12.0,
									"hidden" : 1,
									"patching_rect" : [ 299.0, 187.0, 94.0, 20.0 ],
									"numinlets" : 2,
									"id" : "obj-17",
									"numoutlets" : 1,
									"fontname" : "Arial",
									"outlettype" : [ "" ]
								}

							}
, 							{
								"box" : 								{
									"maxclass" : "newobj",
									"text" : "fromsymbol",
									"fontsize" : 12.0,
									"hidden" : 1,
									"patching_rect" : [ 52.0, 125.0, 73.0, 20.0 ],
									"numinlets" : 1,
									"id" : "obj-16",
									"numoutlets" : 1,
									"fontname" : "Arial",
									"outlettype" : [ "" ]
								}

							}
, 							{
								"box" : 								{
									"maxclass" : "newobj",
									"text" : "unpack s s s s",
									"fontsize" : 12.0,
									"hidden" : 1,
									"patching_rect" : [ 52.0, 100.0, 87.0, 20.0 ],
									"numinlets" : 1,
									"id" : "obj-15",
									"numoutlets" : 4,
									"fontname" : "Arial",
									"outlettype" : [ "", "", "", "" ]
								}

							}
, 							{
								"box" : 								{
									"maxclass" : "inlet",
									"patching_rect" : [ 301.0, 12.0, 25.0, 25.0 ],
									"numinlets" : 0,
									"id" : "obj-102",
									"numoutlets" : 1,
									"outlettype" : [ "" ],
									"comment" : ""
								}

							}
 ],
						"lines" : [ 							{
								"patchline" : 								{
									"source" : [ "obj-102", 0 ],
									"destination" : [ "obj-31", 0 ],
									"hidden" : 0,
									"midpoints" : [  ]
								}

							}
, 							{
								"patchline" : 								{
									"source" : [ "obj-17", 0 ],
									"destination" : [ "obj-33", 0 ],
									"hidden" : 1,
									"midpoints" : [  ]
								}

							}
, 							{
								"patchline" : 								{
									"source" : [ "obj-31", 0 ],
									"destination" : [ "obj-17", 0 ],
									"hidden" : 1,
									"midpoints" : [  ]
								}

							}
, 							{
								"patchline" : 								{
									"source" : [ "obj-16", 0 ],
									"destination" : [ "obj-17", 1 ],
									"hidden" : 1,
									"midpoints" : [  ]
								}

							}
, 							{
								"patchline" : 								{
									"source" : [ "obj-15", 2 ],
									"destination" : [ "obj-16", 0 ],
									"hidden" : 1,
									"midpoints" : [  ]
								}

							}
, 							{
								"patchline" : 								{
									"source" : [ "obj-105", 0 ],
									"destination" : [ "obj-15", 0 ],
									"hidden" : 0,
									"midpoints" : [  ]
								}

							}
 ]
					}
,
					"saved_object_attributes" : 					{
						"fontface" : 0,
						"fontsize" : 12.0,
						"default_fontface" : 0,
						"default_fontname" : "Arial",
						"fontname" : "Arial",
						"default_fontsize" : 12.0,
						"globalpatchername" : ""
					}

				}

			}
, 			{
				"box" : 				{
					"maxclass" : "newobj",
					"text" : "p",
					"fontsize" : 12.0,
					"hidden" : 1,
					"patching_rect" : [ 843.0, 133.0, 100.0, 20.0 ],
					"numinlets" : 1,
					"id" : "obj-100",
					"numoutlets" : 1,
					"fontname" : "Arial",
					"outlettype" : [ "" ],
					"patcher" : 					{
						"fileversion" : 1,
						"rect" : [ 0.0, 0.0, 640.0, 480.0 ],
						"bglocked" : 0,
						"defrect" : [ 0.0, 0.0, 640.0, 480.0 ],
						"openrect" : [ 0.0, 0.0, 0.0, 0.0 ],
						"openinpresentation" : 0,
						"default_fontsize" : 12.0,
						"default_fontface" : 0,
						"default_fontname" : "Arial",
						"gridonopen" : 0,
						"gridsize" : [ 15.0, 15.0 ],
						"gridsnaponopen" : 0,
						"toolbarvisible" : 1,
						"boxanimatetime" : 200,
						"imprint" : 0,
						"enablehscroll" : 1,
						"enablevscroll" : 1,
						"boxes" : [ 							{
								"box" : 								{
									"maxclass" : "newobj",
									"text" : "prepend append",
									"fontsize" : 12.0,
									"patching_rect" : [ 50.0, 200.0, 98.0, 20.0 ],
									"numinlets" : 1,
									"id" : "obj-93",
									"numoutlets" : 1,
									"fontname" : "Arial",
									"outlettype" : [ "" ]
								}

							}
, 							{
								"box" : 								{
									"maxclass" : "newobj",
									"text" : "t all none",
									"fontsize" : 12.0,
									"patching_rect" : [ 50.0, 172.0, 59.0, 20.0 ],
									"numinlets" : 1,
									"id" : "obj-92",
									"numoutlets" : 2,
									"fontname" : "Arial",
									"outlettype" : [ "all", "none" ]
								}

							}
, 							{
								"box" : 								{
									"maxclass" : "newobj",
									"text" : "route none",
									"fontsize" : 12.0,
									"patching_rect" : [ 50.0, 146.0, 68.0, 20.0 ],
									"numinlets" : 1,
									"id" : "obj-91",
									"numoutlets" : 2,
									"fontname" : "Arial",
									"outlettype" : [ "", "" ]
								}

							}
, 							{
								"box" : 								{
									"maxclass" : "newobj",
									"text" : "s to_settings",
									"fontsize" : 12.0,
									"hidden" : 1,
									"patching_rect" : [ 108.0, 319.0, 78.0, 20.0 ],
									"numinlets" : 1,
									"id" : "obj-90",
									"numoutlets" : 0,
									"fontname" : "Arial"
								}

							}
, 							{
								"box" : 								{
									"maxclass" : "newobj",
									"text" : "tosymbol",
									"fontsize" : 12.0,
									"patching_rect" : [ 108.0, 275.0, 59.0, 20.0 ],
									"numinlets" : 1,
									"id" : "obj-89",
									"numoutlets" : 1,
									"fontname" : "Arial",
									"outlettype" : [ "" ]
								}

							}
, 							{
								"box" : 								{
									"maxclass" : "newobj",
									"text" : "prepend select_profile",
									"fontsize" : 12.0,
									"patching_rect" : [ 108.0, 297.0, 129.0, 20.0 ],
									"numinlets" : 1,
									"id" : "obj-88",
									"numoutlets" : 1,
									"fontname" : "Arial",
									"outlettype" : [ "" ]
								}

							}
, 							{
								"box" : 								{
									"maxclass" : "newobj",
									"text" : "route append",
									"fontsize" : 12.0,
									"patching_rect" : [ 50.0, 123.0, 81.0, 20.0 ],
									"numinlets" : 1,
									"id" : "obj-83",
									"numoutlets" : 2,
									"fontname" : "Arial",
									"outlettype" : [ "", "" ]
								}

							}
, 							{
								"box" : 								{
									"maxclass" : "newobj",
									"text" : "r profile_menu",
									"fontsize" : 12.0,
									"hidden" : 1,
									"patching_rect" : [ 50.0, 100.0, 87.0, 20.0 ],
									"numinlets" : 0,
									"id" : "obj-81",
									"numoutlets" : 1,
									"fontname" : "Arial",
									"outlettype" : [ "" ]
								}

							}
, 							{
								"box" : 								{
									"maxclass" : "inlet",
									"patching_rect" : [ 113.0, 40.0, 25.0, 25.0 ],
									"numinlets" : 0,
									"id" : "obj-98",
									"numoutlets" : 1,
									"outlettype" : [ "" ],
									"comment" : ""
								}

							}
, 							{
								"box" : 								{
									"maxclass" : "outlet",
									"patching_rect" : [ 50.0, 399.0, 25.0, 25.0 ],
									"numinlets" : 1,
									"id" : "obj-99",
									"numoutlets" : 0,
									"comment" : ""
								}

							}
 ],
						"lines" : [ 							{
								"patchline" : 								{
									"source" : [ "obj-83", 1 ],
									"destination" : [ "obj-99", 0 ],
									"hidden" : 0,
									"midpoints" : [  ]
								}

							}
, 							{
								"patchline" : 								{
									"source" : [ "obj-93", 0 ],
									"destination" : [ "obj-99", 0 ],
									"hidden" : 0,
									"midpoints" : [  ]
								}

							}
, 							{
								"patchline" : 								{
									"source" : [ "obj-98", 0 ],
									"destination" : [ "obj-89", 0 ],
									"hidden" : 0,
									"midpoints" : [  ]
								}

							}
, 							{
								"patchline" : 								{
									"source" : [ "obj-88", 0 ],
									"destination" : [ "obj-90", 0 ],
									"hidden" : 0,
									"midpoints" : [  ]
								}

							}
, 							{
								"patchline" : 								{
									"source" : [ "obj-89", 0 ],
									"destination" : [ "obj-88", 0 ],
									"hidden" : 0,
									"midpoints" : [  ]
								}

							}
, 							{
								"patchline" : 								{
									"source" : [ "obj-91", 1 ],
									"destination" : [ "obj-93", 0 ],
									"hidden" : 0,
									"midpoints" : [  ]
								}

							}
, 							{
								"patchline" : 								{
									"source" : [ "obj-92", 0 ],
									"destination" : [ "obj-93", 0 ],
									"hidden" : 0,
									"midpoints" : [  ]
								}

							}
, 							{
								"patchline" : 								{
									"source" : [ "obj-92", 1 ],
									"destination" : [ "obj-93", 0 ],
									"hidden" : 0,
									"midpoints" : [  ]
								}

							}
, 							{
								"patchline" : 								{
									"source" : [ "obj-91", 0 ],
									"destination" : [ "obj-92", 0 ],
									"hidden" : 0,
									"midpoints" : [  ]
								}

							}
, 							{
								"patchline" : 								{
									"source" : [ "obj-83", 0 ],
									"destination" : [ "obj-91", 0 ],
									"hidden" : 0,
									"midpoints" : [  ]
								}

							}
, 							{
								"patchline" : 								{
									"source" : [ "obj-81", 0 ],
									"destination" : [ "obj-83", 0 ],
									"hidden" : 0,
									"midpoints" : [  ]
								}

							}
 ]
					}
,
					"saved_object_attributes" : 					{
						"fontface" : 0,
						"fontsize" : 12.0,
						"default_fontface" : 0,
						"default_fontname" : "Arial",
						"fontname" : "Arial",
						"default_fontsize" : 12.0,
						"globalpatchername" : ""
					}

				}

			}
, 			{
				"box" : 				{
					"maxclass" : "umenu",
					"types" : [  ],
					"fontsize" : 12.0,
					"items" : [ "none", ",", "all", ",", "global", ",", "me", ",", "vb" ],
					"patching_rect" : [ 844.0, 156.0, 100.0, 20.0 ],
					"numinlets" : 1,
					"id" : "obj-82",
					"numoutlets" : 3,
					"fontname" : "Arial",
					"outlettype" : [ "int", "", "" ]
				}

			}
, 			{
				"box" : 				{
					"maxclass" : "newobj",
					"text" : "p",
					"fontsize" : 12.0,
					"hidden" : 1,
					"patching_rect" : [ 795.0, 44.0, 100.0, 20.0 ],
					"numinlets" : 3,
					"id" : "obj-80",
					"numoutlets" : 1,
					"fontname" : "Arial",
					"outlettype" : [ "" ],
					"patcher" : 					{
						"fileversion" : 1,
						"rect" : [ 0.0, 0.0, 640.0, 480.0 ],
						"bglocked" : 0,
						"defrect" : [ 0.0, 0.0, 640.0, 480.0 ],
						"openrect" : [ 0.0, 0.0, 0.0, 0.0 ],
						"openinpresentation" : 0,
						"default_fontsize" : 12.0,
						"default_fontface" : 0,
						"default_fontname" : "Arial",
						"gridonopen" : 0,
						"gridsize" : [ 15.0, 15.0 ],
						"gridsnaponopen" : 0,
						"toolbarvisible" : 1,
						"boxanimatetime" : 200,
						"imprint" : 0,
						"enablehscroll" : 1,
						"enablevscroll" : 1,
						"boxes" : [ 							{
								"box" : 								{
									"maxclass" : "newobj",
									"text" : "r profile_menu",
									"fontsize" : 12.0,
									"hidden" : 1,
									"patching_rect" : [ 74.0, 100.0, 87.0, 20.0 ],
									"numinlets" : 0,
									"id" : "obj-63",
									"numoutlets" : 1,
									"fontname" : "Arial",
									"outlettype" : [ "" ]
								}

							}
, 							{
								"box" : 								{
									"maxclass" : "newobj",
									"text" : "s to_settings",
									"fontsize" : 12.0,
									"hidden" : 1,
									"patching_rect" : [ 57.0, 199.0, 78.0, 20.0 ],
									"numinlets" : 1,
									"id" : "obj-61",
									"numoutlets" : 0,
									"fontname" : "Arial"
								}

							}
, 							{
								"box" : 								{
									"maxclass" : "newobj",
									"text" : "tosymbol",
									"fontsize" : 12.0,
									"hidden" : 1,
									"patching_rect" : [ 394.0, 149.0, 59.0, 20.0 ],
									"numinlets" : 1,
									"id" : "obj-50",
									"numoutlets" : 1,
									"fontname" : "Arial",
									"outlettype" : [ "" ]
								}

							}
, 							{
								"box" : 								{
									"maxclass" : "newobj",
									"text" : "route text",
									"fontsize" : 12.0,
									"hidden" : 1,
									"patching_rect" : [ 394.0, 126.0, 61.0, 20.0 ],
									"numinlets" : 1,
									"id" : "obj-56",
									"numoutlets" : 2,
									"fontname" : "Arial",
									"outlettype" : [ "", "" ]
								}

							}
, 							{
								"box" : 								{
									"maxclass" : "newobj",
									"text" : "tosymbol",
									"fontsize" : 12.0,
									"hidden" : 1,
									"patching_rect" : [ 113.0, 147.0, 59.0, 20.0 ],
									"numinlets" : 1,
									"id" : "obj-41",
									"numoutlets" : 1,
									"fontname" : "Arial",
									"outlettype" : [ "" ]
								}

							}
, 							{
								"box" : 								{
									"maxclass" : "newobj",
									"text" : "pack duplicate_profile s s",
									"fontsize" : 12.0,
									"hidden" : 1,
									"patching_rect" : [ 50.0, 169.0, 145.0, 20.0 ],
									"numinlets" : 3,
									"id" : "obj-40",
									"numoutlets" : 1,
									"fontname" : "Arial",
									"outlettype" : [ "" ]
								}

							}
, 							{
								"box" : 								{
									"maxclass" : "message",
									"text" : "duplicate_profile default me",
									"fontsize" : 12.0,
									"hidden" : 1,
									"patching_rect" : [ 217.0, 170.0, 157.0, 18.0 ],
									"numinlets" : 2,
									"id" : "obj-35",
									"numoutlets" : 1,
									"fontname" : "Arial",
									"outlettype" : [ "" ]
								}

							}
, 							{
								"box" : 								{
									"maxclass" : "inlet",
									"patching_rect" : [ 55.0, 40.0, 25.0, 25.0 ],
									"numinlets" : 0,
									"id" : "obj-76",
									"numoutlets" : 1,
									"outlettype" : [ "" ],
									"comment" : ""
								}

							}
, 							{
								"box" : 								{
									"maxclass" : "inlet",
									"patching_rect" : [ 118.0, 40.0, 25.0, 25.0 ],
									"numinlets" : 0,
									"id" : "obj-77",
									"numoutlets" : 1,
									"outlettype" : [ "" ],
									"comment" : ""
								}

							}
, 							{
								"box" : 								{
									"maxclass" : "inlet",
									"patching_rect" : [ 399.0, 40.0, 25.0, 25.0 ],
									"numinlets" : 0,
									"id" : "obj-78",
									"numoutlets" : 1,
									"outlettype" : [ "" ],
									"comment" : ""
								}

							}
, 							{
								"box" : 								{
									"maxclass" : "outlet",
									"patching_rect" : [ 79.0, 279.0, 25.0, 25.0 ],
									"numinlets" : 1,
									"id" : "obj-79",
									"numoutlets" : 0,
									"comment" : ""
								}

							}
 ],
						"lines" : [ 							{
								"patchline" : 								{
									"source" : [ "obj-63", 0 ],
									"destination" : [ "obj-79", 0 ],
									"hidden" : 0,
									"midpoints" : [  ]
								}

							}
, 							{
								"patchline" : 								{
									"source" : [ "obj-78", 0 ],
									"destination" : [ "obj-56", 0 ],
									"hidden" : 0,
									"midpoints" : [  ]
								}

							}
, 							{
								"patchline" : 								{
									"source" : [ "obj-77", 0 ],
									"destination" : [ "obj-41", 0 ],
									"hidden" : 0,
									"midpoints" : [  ]
								}

							}
, 							{
								"patchline" : 								{
									"source" : [ "obj-76", 0 ],
									"destination" : [ "obj-40", 0 ],
									"hidden" : 0,
									"midpoints" : [  ]
								}

							}
, 							{
								"patchline" : 								{
									"source" : [ "obj-40", 0 ],
									"destination" : [ "obj-61", 0 ],
									"hidden" : 1,
									"midpoints" : [  ]
								}

							}
, 							{
								"patchline" : 								{
									"source" : [ "obj-50", 0 ],
									"destination" : [ "obj-40", 2 ],
									"hidden" : 1,
									"midpoints" : [  ]
								}

							}
, 							{
								"patchline" : 								{
									"source" : [ "obj-56", 0 ],
									"destination" : [ "obj-50", 0 ],
									"hidden" : 1,
									"midpoints" : [  ]
								}

							}
, 							{
								"patchline" : 								{
									"source" : [ "obj-41", 0 ],
									"destination" : [ "obj-40", 1 ],
									"hidden" : 1,
									"midpoints" : [  ]
								}

							}
 ]
					}
,
					"saved_object_attributes" : 					{
						"fontface" : 0,
						"fontsize" : 12.0,
						"default_fontface" : 0,
						"default_fontname" : "Arial",
						"fontname" : "Arial",
						"default_fontsize" : 12.0,
						"globalpatchername" : ""
					}

				}

			}
, 			{
				"box" : 				{
					"maxclass" : "newobj",
					"text" : "p",
					"fontsize" : 12.0,
					"hidden" : 1,
					"patching_rect" : [ 720.0, 46.0, 100.0, 20.0 ],
					"numinlets" : 2,
					"id" : "obj-75",
					"numoutlets" : 1,
					"fontname" : "Arial",
					"outlettype" : [ "" ],
					"patcher" : 					{
						"fileversion" : 1,
						"rect" : [ 0.0, 0.0, 640.0, 480.0 ],
						"bglocked" : 0,
						"defrect" : [ 0.0, 0.0, 640.0, 480.0 ],
						"openrect" : [ 0.0, 0.0, 0.0, 0.0 ],
						"openinpresentation" : 0,
						"default_fontsize" : 12.0,
						"default_fontface" : 0,
						"default_fontname" : "Arial",
						"gridonopen" : 0,
						"gridsize" : [ 15.0, 15.0 ],
						"gridsnaponopen" : 0,
						"toolbarvisible" : 1,
						"boxanimatetime" : 200,
						"imprint" : 0,
						"enablehscroll" : 1,
						"enablevscroll" : 1,
						"boxes" : [ 							{
								"box" : 								{
									"maxclass" : "newobj",
									"text" : "s to_settings",
									"fontsize" : 12.0,
									"hidden" : 1,
									"patching_rect" : [ 505.0, 224.0, 78.0, 20.0 ],
									"numinlets" : 1,
									"id" : "obj-70",
									"numoutlets" : 0,
									"fontname" : "Arial"
								}

							}
, 							{
								"box" : 								{
									"maxclass" : "newobj",
									"text" : "pack delete_profile s",
									"fontsize" : 12.0,
									"hidden" : 1,
									"patching_rect" : [ 506.0, 198.0, 121.0, 20.0 ],
									"numinlets" : 2,
									"id" : "obj-69",
									"numoutlets" : 1,
									"fontname" : "Arial",
									"outlettype" : [ "" ]
								}

							}
, 							{
								"box" : 								{
									"maxclass" : "newobj",
									"text" : "aalert \"Delete profile\" \"Do you really want to delete this profile?\" Yes No",
									"fontsize" : 12.0,
									"hidden" : 1,
									"patching_rect" : [ 50.0, 179.0, 390.0, 20.0 ],
									"numinlets" : 1,
									"id" : "obj-68",
									"numoutlets" : 3,
									"fontname" : "Arial",
									"outlettype" : [ "bang", "bang", "bang" ]
								}

							}
, 							{
								"box" : 								{
									"maxclass" : "newobj",
									"text" : "r profile_menu",
									"fontsize" : 12.0,
									"hidden" : 1,
									"patching_rect" : [ 458.0, 100.0, 87.0, 20.0 ],
									"numinlets" : 0,
									"id" : "obj-65",
									"numoutlets" : 1,
									"fontname" : "Arial",
									"outlettype" : [ "" ]
								}

							}
, 							{
								"box" : 								{
									"maxclass" : "newobj",
									"text" : "tosymbol",
									"fontsize" : 12.0,
									"hidden" : 1,
									"patching_rect" : [ 499.0, 171.0, 59.0, 20.0 ],
									"numinlets" : 1,
									"id" : "obj-66",
									"numoutlets" : 1,
									"fontname" : "Arial",
									"outlettype" : [ "" ]
								}

							}
, 							{
								"box" : 								{
									"maxclass" : "inlet",
									"patching_rect" : [ 55.0, 40.0, 25.0, 25.0 ],
									"numinlets" : 0,
									"id" : "obj-72",
									"numoutlets" : 1,
									"outlettype" : [ "" ],
									"comment" : ""
								}

							}
, 							{
								"box" : 								{
									"maxclass" : "inlet",
									"patching_rect" : [ 504.0, 40.0, 25.0, 25.0 ],
									"numinlets" : 0,
									"id" : "obj-73",
									"numoutlets" : 1,
									"outlettype" : [ "" ],
									"comment" : ""
								}

							}
, 							{
								"box" : 								{
									"maxclass" : "outlet",
									"patching_rect" : [ 463.0, 304.0, 25.0, 25.0 ],
									"numinlets" : 1,
									"id" : "obj-74",
									"numoutlets" : 0,
									"comment" : ""
								}

							}
 ],
						"lines" : [ 							{
								"patchline" : 								{
									"source" : [ "obj-65", 0 ],
									"destination" : [ "obj-74", 0 ],
									"hidden" : 0,
									"midpoints" : [  ]
								}

							}
, 							{
								"patchline" : 								{
									"source" : [ "obj-73", 0 ],
									"destination" : [ "obj-66", 0 ],
									"hidden" : 0,
									"midpoints" : [  ]
								}

							}
, 							{
								"patchline" : 								{
									"source" : [ "obj-72", 0 ],
									"destination" : [ "obj-68", 0 ],
									"hidden" : 0,
									"midpoints" : [  ]
								}

							}
, 							{
								"patchline" : 								{
									"source" : [ "obj-69", 0 ],
									"destination" : [ "obj-70", 0 ],
									"hidden" : 0,
									"midpoints" : [  ]
								}

							}
, 							{
								"patchline" : 								{
									"source" : [ "obj-68", 0 ],
									"destination" : [ "obj-69", 0 ],
									"hidden" : 0,
									"midpoints" : [  ]
								}

							}
, 							{
								"patchline" : 								{
									"source" : [ "obj-66", 0 ],
									"destination" : [ "obj-69", 1 ],
									"hidden" : 0,
									"midpoints" : [  ]
								}

							}
 ]
					}
,
					"saved_object_attributes" : 					{
						"fontface" : 0,
						"fontsize" : 12.0,
						"default_fontface" : 0,
						"default_fontname" : "Arial",
						"fontname" : "Arial",
						"default_fontsize" : 12.0,
						"globalpatchername" : ""
					}

				}

			}
, 			{
				"box" : 				{
					"maxclass" : "umenu",
					"types" : [  ],
					"fontsize" : 12.0,
					"items" : [ "none", ",", "global", ",", "me", ",", "vb" ],
					"patching_rect" : [ 619.0, 46.0, 100.0, 20.0 ],
					"numinlets" : 1,
					"id" : "obj-67",
					"numoutlets" : 3,
					"fontname" : "Arial",
					"outlettype" : [ "int", "", "" ]
				}

			}
, 			{
				"box" : 				{
					"maxclass" : "textbutton",
					"fontsize" : 12.0,
					"patching_rect" : [ 517.0, 47.0, 100.0, 20.0 ],
					"numinlets" : 1,
					"id" : "obj-64",
					"text" : "Delete profile:",
					"numoutlets" : 3,
					"fontname" : "Arial",
					"outlettype" : [ "", "", "int" ]
				}

			}
, 			{
				"box" : 				{
					"maxclass" : "comment",
					"text" : "to",
					"fontsize" : 12.0,
					"patching_rect" : [ 722.0, 21.0, 20.0, 20.0 ],
					"numinlets" : 1,
					"id" : "obj-60",
					"numoutlets" : 0,
					"fontname" : "Arial"
				}

			}
, 			{
				"box" : 				{
					"maxclass" : "textbutton",
					"fontsize" : 12.0,
					"patching_rect" : [ 517.0, 21.0, 100.0, 20.0 ],
					"numinlets" : 1,
					"id" : "obj-58",
					"text" : "Duplicate profile:",
					"numoutlets" : 3,
					"fontname" : "Arial",
					"outlettype" : [ "", "", "int" ]
				}

			}
, 			{
				"box" : 				{
					"maxclass" : "textedit",
					"text" : "me",
					"fontsize" : 12.0,
					"patching_rect" : [ 743.0, 21.0, 195.0, 21.0 ],
					"numinlets" : 1,
					"id" : "obj-57",
					"numoutlets" : 4,
					"fontname" : "Arial",
					"outlettype" : [ "", "int", "", "" ]
				}

			}
, 			{
				"box" : 				{
					"maxclass" : "umenu",
					"types" : [  ],
					"fontsize" : 12.0,
					"items" : [ "none", ",", "global", ",", "me", ",", "vb" ],
					"patching_rect" : [ 619.0, 22.0, 100.0, 20.0 ],
					"numinlets" : 1,
					"id" : "obj-38",
					"numoutlets" : 3,
					"fontname" : "Arial",
					"outlettype" : [ "int", "", "" ]
				}

			}
, 			{
				"box" : 				{
					"maxclass" : "textbutton",
					"fontsize" : 12.0,
					"patching_rect" : [ 331.0, 132.0, 100.0, 20.0 ],
					"numinlets" : 1,
					"id" : "obj-30",
					"text" : "Delete Setting",
					"numoutlets" : 3,
					"fontname" : "Arial",
					"outlettype" : [ "", "", "int" ]
				}

			}
, 			{
				"box" : 				{
					"maxclass" : "textbutton",
					"fontsize" : 12.0,
					"patching_rect" : [ 113.0, 131.0, 100.0, 20.0 ],
					"numinlets" : 1,
					"id" : "obj-32",
					"text" : "Save",
					"numoutlets" : 3,
					"fontname" : "Arial",
					"outlettype" : [ "", "", "int" ]
				}

			}
, 			{
				"box" : 				{
					"maxclass" : "comment",
					"text" : "profile",
					"fontsize" : 12.0,
					"patching_rect" : [ 46.0, 86.0, 68.0, 20.0 ],
					"numinlets" : 1,
					"id" : "obj-27",
					"numoutlets" : 0,
					"fontname" : "Arial"
				}

			}
, 			{
				"box" : 				{
					"maxclass" : "textedit",
					"text" : "profile",
					"fontsize" : 12.0,
					"patching_rect" : [ 114.0, 86.0, 318.0, 20.0 ],
					"numinlets" : 1,
					"id" : "obj-29",
					"numoutlets" : 4,
					"fontname" : "Arial",
					"outlettype" : [ "", "int", "", "" ]
				}

			}
, 			{
				"box" : 				{
					"maxclass" : "comment",
					"text" : "description",
					"fontsize" : 12.0,
					"patching_rect" : [ 46.0, 64.0, 68.0, 20.0 ],
					"numinlets" : 1,
					"id" : "obj-24",
					"numoutlets" : 0,
					"fontname" : "Arial"
				}

			}
, 			{
				"box" : 				{
					"maxclass" : "textedit",
					"text" : "description",
					"fontsize" : 12.0,
					"patching_rect" : [ 114.0, 64.0, 318.0, 20.0 ],
					"numinlets" : 1,
					"id" : "obj-26",
					"numoutlets" : 4,
					"fontname" : "Arial",
					"outlettype" : [ "", "int", "", "" ]
				}

			}
, 			{
				"box" : 				{
					"maxclass" : "comment",
					"text" : "value",
					"fontsize" : 12.0,
					"patching_rect" : [ 46.0, 42.0, 53.0, 20.0 ],
					"numinlets" : 1,
					"id" : "obj-21",
					"numoutlets" : 0,
					"fontname" : "Arial"
				}

			}
, 			{
				"box" : 				{
					"maxclass" : "textedit",
					"text" : "value",
					"fontsize" : 12.0,
					"patching_rect" : [ 114.0, 42.0, 318.0, 20.0 ],
					"numinlets" : 1,
					"id" : "obj-23",
					"numoutlets" : 4,
					"fontname" : "Arial",
					"outlettype" : [ "", "int", "", "" ]
				}

			}
, 			{
				"box" : 				{
					"maxclass" : "comment",
					"text" : "name",
					"fontsize" : 12.0,
					"patching_rect" : [ 46.0, 19.0, 53.0, 20.0 ],
					"numinlets" : 1,
					"id" : "obj-18",
					"numoutlets" : 0,
					"fontname" : "Arial"
				}

			}
, 			{
				"box" : 				{
					"maxclass" : "textedit",
					"text" : "name",
					"fontsize" : 12.0,
					"patching_rect" : [ 114.0, 19.0, 318.0, 20.0 ],
					"numinlets" : 1,
					"id" : "obj-12",
					"numoutlets" : 4,
					"fontname" : "Arial",
					"outlettype" : [ "", "int", "", "" ]
				}

			}
, 			{
				"box" : 				{
					"maxclass" : "jit.cellblock",
					"just" : 2,
					"fontsize" : 10.0,
					"headercolor" : [ 0.5, 0.5, 0.7, 1.0 ],
					"colhead" : 1,
					"textcolor" : [ 1.0, 1.0, 1.0, 1.0 ],
					"outmode" : 1,
					"colwidth" : 85,
					"patching_rect" : [ 40.0, 181.0, 924.0, 359.0 ],
					"numinlets" : 2,
					"id" : "obj-8",
					"cols" : 6,
					"numoutlets" : 4,
					"fontname" : "Arial",
					"rows" : 59,
					"outlettype" : [ "list", "", "", "" ],
					"selmode" : 3,
					"rowdef" : [ [ 0, 0, 1, 1.0, 1.0, 1.0, 1, 1.0, 1.0, 1.0, -1, -1, 1 ] ],
					"coldef" : [ [ 0, 30, 1, 1.0, 1.0, 1.0, 1, 1.0, 1.0, 1.0, 2, -1, -1 ], [ 15, 100, 1, 1.0, 1.0, 1.0, 1, 1.0, 1.0, 1.0, -1, -1, -1 ], [ 14, 100, 1, 1.0, 1.0, 1.0, 1, 1.0, 1.0, 1.0, -1, -1, -1 ], [ 1, 30, 1, 1.0, 1.0, 1.0, 1, 1.0, 1.0, 1.0, 0, -1, -1 ], [ 2, 150, 1, 1.0, 1.0, 1.0, 1, 1.0, 1.0, 1.0, 0, -1, -1 ], [ 3, 200, 1, 1.0, 1.0, 1.0, 1, 1.0, 1.0, 1.0, 0, -1, -1 ], [ 4, 400, 1, 1.0, 1.0, 1.0, 1, 1.0, 1.0, 1.0, 0, -1, -1 ], [ 5, 90, 1, 1.0, 1.0, 1.0, 1, 1.0, 1.0, 1.0, 2, -1, -1 ], [ 6, 30, 1, 1.0, 1.0, 1.0, 1, 1.0, 1.0, 1.0, 2, -1, -1 ], [ 7, 50, 1, 1.0, 1.0, 1.0, 1, 1.0, 1.0, 1.0, 2, -1, -1 ], [ 8, 50, 1, 1.0, 1.0, 1.0, 1, 1.0, 1.0, 1.0, 2, -1, -1 ], [ 9, 50, 1, 1.0, 1.0, 1.0, 1, 1.0, 1.0, 1.0, 2, -1, -1 ], [ 10, 50, 1, 1.0, 1.0, 1.0, 1, 1.0, 1.0, 1.0, 2, -1, -1 ], [ 11, 20, 1, 1.0, 1.0, 1.0, 1, 1.0, 1.0, 1.0, -1, -1, -1 ], [ 12, 80, 1, 1.0, 1.0, 1.0, 1, 1.0, 1.0, 1.0, -1, -1, -1 ], [ 13, 20, 1, 1.0, 1.0, 1.0, 1, 1.0, 1.0, 1.0, -1, -1, -1 ] ]
				}

			}
 ],
		"lines" : [ 			{
				"patchline" : 				{
					"source" : [ "obj-4", 0 ],
					"destination" : [ "obj-7", 0 ],
					"hidden" : 1,
					"midpoints" : [  ]
				}

			}
, 			{
				"patchline" : 				{
					"source" : [ "obj-7", 0 ],
					"destination" : [ "obj-8", 0 ],
					"hidden" : 1,
					"midpoints" : [  ]
				}

			}
, 			{
				"patchline" : 				{
					"source" : [ "obj-2", 1 ],
					"destination" : [ "obj-35", 10 ],
					"hidden" : 1,
					"midpoints" : [  ]
				}

			}
, 			{
				"patchline" : 				{
					"source" : [ "obj-2", 0 ],
					"destination" : [ "obj-35", 9 ],
					"hidden" : 1,
					"midpoints" : [  ]
				}

			}
, 			{
				"patchline" : 				{
					"source" : [ "obj-35", 0 ],
					"destination" : [ "obj-2", 0 ],
					"hidden" : 1,
					"midpoints" : [  ]
				}

			}
, 			{
				"patchline" : 				{
					"source" : [ "obj-35", 0 ],
					"destination" : [ "obj-29", 0 ],
					"hidden" : 1,
					"midpoints" : [  ]
				}

			}
, 			{
				"patchline" : 				{
					"source" : [ "obj-35", 5 ],
					"destination" : [ "obj-2", 0 ],
					"hidden" : 1,
					"midpoints" : [  ]
				}

			}
, 			{
				"patchline" : 				{
					"source" : [ "obj-75", 0 ],
					"destination" : [ "obj-67", 0 ],
					"hidden" : 1,
					"midpoints" : [  ]
				}

			}
, 			{
				"patchline" : 				{
					"source" : [ "obj-67", 1 ],
					"destination" : [ "obj-75", 1 ],
					"hidden" : 1,
					"midpoints" : [  ]
				}

			}
, 			{
				"patchline" : 				{
					"source" : [ "obj-64", 0 ],
					"destination" : [ "obj-75", 0 ],
					"hidden" : 1,
					"midpoints" : [  ]
				}

			}
, 			{
				"patchline" : 				{
					"source" : [ "obj-80", 0 ],
					"destination" : [ "obj-38", 0 ],
					"hidden" : 1,
					"midpoints" : [  ]
				}

			}
, 			{
				"patchline" : 				{
					"source" : [ "obj-57", 0 ],
					"destination" : [ "obj-80", 2 ],
					"hidden" : 1,
					"midpoints" : [  ]
				}

			}
, 			{
				"patchline" : 				{
					"source" : [ "obj-38", 1 ],
					"destination" : [ "obj-80", 1 ],
					"hidden" : 1,
					"midpoints" : [  ]
				}

			}
, 			{
				"patchline" : 				{
					"source" : [ "obj-58", 0 ],
					"destination" : [ "obj-80", 0 ],
					"hidden" : 1,
					"midpoints" : [  ]
				}

			}
, 			{
				"patchline" : 				{
					"source" : [ "obj-100", 0 ],
					"destination" : [ "obj-82", 0 ],
					"hidden" : 1,
					"midpoints" : [  ]
				}

			}
, 			{
				"patchline" : 				{
					"source" : [ "obj-82", 1 ],
					"destination" : [ "obj-100", 0 ],
					"hidden" : 1,
					"midpoints" : [  ]
				}

			}
, 			{
				"patchline" : 				{
					"source" : [ "obj-30", 0 ],
					"destination" : [ "obj-103", 0 ],
					"hidden" : 1,
					"midpoints" : [  ]
				}

			}
, 			{
				"patchline" : 				{
					"source" : [ "obj-8", 0 ],
					"destination" : [ "obj-104", 0 ],
					"hidden" : 1,
					"midpoints" : [  ]
				}

			}
, 			{
				"patchline" : 				{
					"source" : [ "obj-35", 4 ],
					"destination" : [ "obj-29", 0 ],
					"hidden" : 1,
					"midpoints" : [  ]
				}

			}
, 			{
				"patchline" : 				{
					"source" : [ "obj-35", 3 ],
					"destination" : [ "obj-23", 0 ],
					"hidden" : 1,
					"midpoints" : [  ]
				}

			}
, 			{
				"patchline" : 				{
					"source" : [ "obj-35", 2 ],
					"destination" : [ "obj-26", 0 ],
					"hidden" : 1,
					"midpoints" : [  ]
				}

			}
, 			{
				"patchline" : 				{
					"source" : [ "obj-35", 1 ],
					"destination" : [ "obj-12", 0 ],
					"hidden" : 1,
					"midpoints" : [  ]
				}

			}
, 			{
				"patchline" : 				{
					"source" : [ "obj-35", 0 ],
					"destination" : [ "obj-12", 0 ],
					"hidden" : 1,
					"midpoints" : [  ]
				}

			}
, 			{
				"patchline" : 				{
					"source" : [ "obj-35", 0 ],
					"destination" : [ "obj-23", 0 ],
					"hidden" : 1,
					"midpoints" : [  ]
				}

			}
, 			{
				"patchline" : 				{
					"source" : [ "obj-35", 0 ],
					"destination" : [ "obj-26", 0 ],
					"hidden" : 1,
					"midpoints" : [  ]
				}

			}
, 			{
				"patchline" : 				{
					"source" : [ "obj-29", 1 ],
					"destination" : [ "obj-35", 8 ],
					"hidden" : 1,
					"midpoints" : [  ]
				}

			}
, 			{
				"patchline" : 				{
					"source" : [ "obj-26", 1 ],
					"destination" : [ "obj-35", 7 ],
					"hidden" : 1,
					"midpoints" : [  ]
				}

			}
, 			{
				"patchline" : 				{
					"source" : [ "obj-23", 1 ],
					"destination" : [ "obj-35", 6 ],
					"hidden" : 1,
					"midpoints" : [  ]
				}

			}
, 			{
				"patchline" : 				{
					"source" : [ "obj-12", 1 ],
					"destination" : [ "obj-35", 5 ],
					"hidden" : 1,
					"midpoints" : [  ]
				}

			}
, 			{
				"patchline" : 				{
					"source" : [ "obj-29", 0 ],
					"destination" : [ "obj-35", 4 ],
					"hidden" : 1,
					"midpoints" : [  ]
				}

			}
, 			{
				"patchline" : 				{
					"source" : [ "obj-26", 0 ],
					"destination" : [ "obj-35", 3 ],
					"hidden" : 1,
					"midpoints" : [  ]
				}

			}
, 			{
				"patchline" : 				{
					"source" : [ "obj-23", 0 ],
					"destination" : [ "obj-35", 2 ],
					"hidden" : 1,
					"midpoints" : [  ]
				}

			}
, 			{
				"patchline" : 				{
					"source" : [ "obj-12", 0 ],
					"destination" : [ "obj-35", 1 ],
					"hidden" : 1,
					"midpoints" : [  ]
				}

			}
, 			{
				"patchline" : 				{
					"source" : [ "obj-32", 0 ],
					"destination" : [ "obj-35", 0 ],
					"hidden" : 1,
					"midpoints" : [  ]
				}

			}
 ]
	}

}
