{
	"patcher" : 	{
		"fileversion" : 1,
		"rect" : [ 25.0, 69.0, 923.0, 630.0 ],
		"bglocked" : 0,
		"defrect" : [ 25.0, 69.0, 923.0, 630.0 ],
		"openrect" : [ 0.0, 0.0, 0.0, 0.0 ],
		"openinpresentation" : 0,
		"default_fontsize" : 12.0,
		"default_fontface" : 0,
		"default_fontname" : "Arial",
		"gridonopen" : 0,
		"gridsize" : [ 15.0, 15.0 ],
		"gridsnaponopen" : 0,
		"toolbarvisible" : 1,
		"boxanimatetime" : 200,
		"imprint" : 0,
		"boxes" : [ 			{
				"box" : 				{
					"maxclass" : "newobj",
					"varname" : "fb_send",
					"text" : "pattr fb_send",
					"id" : "obj-35",
					"fontsize" : 12.0,
					"patching_rect" : [ 617.0, 190.0, 81.0, 20.0 ],
					"numinlets" : 1,
					"numoutlets" : 3,
					"fontname" : "Arial",
					"outlettype" : [ "", "", "" ],
					"restore" : [ 0 ],
					"saved_object_attributes" : 					{

					}

				}

			}
, 			{
				"box" : 				{
					"maxclass" : "newobj",
					"varname" : "alt_send",
					"text" : "pattr alt_send",
					"id" : "obj-34",
					"fontsize" : 12.0,
					"patching_rect" : [ 520.0, 191.0, 83.0, 20.0 ],
					"numinlets" : 1,
					"numoutlets" : 3,
					"fontname" : "Arial",
					"outlettype" : [ "", "", "" ],
					"restore" : [ 0 ],
					"saved_object_attributes" : 					{

					}

				}

			}
, 			{
				"box" : 				{
					"maxclass" : "newobj",
					"varname" : "source_send",
					"text" : "pattr source_send",
					"id" : "obj-33",
					"fontsize" : 12.0,
					"patching_rect" : [ 378.0, 191.0, 107.0, 20.0 ],
					"numinlets" : 1,
					"numoutlets" : 3,
					"fontname" : "Arial",
					"outlettype" : [ "", "", "" ],
					"restore" : [ 0 ],
					"saved_object_attributes" : 					{

					}

				}

			}
, 			{
				"box" : 				{
					"maxclass" : "outlet",
					"id" : "obj-32",
					"patching_rect" : [ 699.0, 427.0, 25.0, 25.0 ],
					"numinlets" : 1,
					"numoutlets" : 0,
					"comment" : ""
				}

			}
, 			{
				"box" : 				{
					"maxclass" : "newobj",
					"varname" : "sketch_send",
					"text" : "pattr sketch_send",
					"id" : "obj-31",
					"fontsize" : 12.0,
					"patching_rect" : [ 237.0, 191.0, 105.0, 20.0 ],
					"numinlets" : 1,
					"numoutlets" : 3,
					"fontname" : "Arial",
					"outlettype" : [ "", "", "" ],
					"restore" : [ 0 ],
					"saved_object_attributes" : 					{

					}

				}

			}
, 			{
				"box" : 				{
					"maxclass" : "newobj",
					"text" : "pattrhub",
					"id" : "obj-28",
					"fontsize" : 12.0,
					"patching_rect" : [ 95.0, 102.0, 55.0, 20.0 ],
					"numinlets" : 1,
					"numoutlets" : 2,
					"fontname" : "Arial",
					"outlettype" : [ "", "" ]
				}

			}
, 			{
				"box" : 				{
					"maxclass" : "newobj",
					"text" : "- #2",
					"id" : "obj-24",
					"fontsize" : 12.0,
					"patching_rect" : [ 506.0, 69.0, 32.5, 20.0 ],
					"numinlets" : 2,
					"numoutlets" : 1,
					"fontname" : "Arial",
					"outlettype" : [ "int" ]
				}

			}
, 			{
				"box" : 				{
					"maxclass" : "newobj",
					"text" : "pack 0 0.",
					"id" : "obj-23",
					"fontsize" : 12.0,
					"patching_rect" : [ 506.0, 109.0, 59.0, 20.0 ],
					"numinlets" : 2,
					"numoutlets" : 1,
					"fontname" : "Arial",
					"outlettype" : [ "" ]
				}

			}
, 			{
				"box" : 				{
					"maxclass" : "newobj",
					"text" : "/ 255.",
					"id" : "obj-22",
					"fontsize" : 12.0,
					"patching_rect" : [ 556.0, 69.0, 41.0, 20.0 ],
					"numinlets" : 2,
					"numoutlets" : 1,
					"fontname" : "Arial",
					"outlettype" : [ "float" ]
				}

			}
, 			{
				"box" : 				{
					"maxclass" : "newobj",
					"text" : "unpack 0 0",
					"id" : "obj-19",
					"fontsize" : 12.0,
					"patching_rect" : [ 506.0, 34.0, 69.0, 20.0 ],
					"numinlets" : 1,
					"numoutlets" : 2,
					"fontname" : "Arial",
					"outlettype" : [ "int", "int" ]
				}

			}
, 			{
				"box" : 				{
					"maxclass" : "newobj",
					"text" : "route 6 15 24 33 42",
					"id" : "obj-14",
					"fontsize" : 12.0,
					"patching_rect" : [ 506.0, 136.0, 115.0, 20.0 ],
					"numinlets" : 1,
					"numoutlets" : 6,
					"fontname" : "Arial",
					"outlettype" : [ "", "", "", "", "", "" ]
				}

			}
, 			{
				"box" : 				{
					"maxclass" : "newobj",
					"text" : "r from_vmix",
					"id" : "obj-9",
					"fontsize" : 12.0,
					"patching_rect" : [ 506.0, 1.0, 73.0, 20.0 ],
					"numinlets" : 0,
					"numoutlets" : 1,
					"fontname" : "Arial",
					"outlettype" : [ "" ]
				}

			}
, 			{
				"box" : 				{
					"maxclass" : "newobj",
					"text" : "t b",
					"id" : "obj-20",
					"fontsize" : 12.0,
					"patching_rect" : [ 96.0, 277.0, 24.0, 20.0 ],
					"numinlets" : 1,
					"numoutlets" : 1,
					"fontname" : "Arial",
					"outlettype" : [ "bang" ]
				}

			}
, 			{
				"box" : 				{
					"maxclass" : "newobj",
					"text" : "route bang",
					"id" : "obj-8",
					"fontsize" : 12.0,
					"patching_rect" : [ 95.0, 159.0, 68.0, 20.0 ],
					"numinlets" : 1,
					"numoutlets" : 2,
					"fontname" : "Arial",
					"outlettype" : [ "", "" ]
				}

			}
, 			{
				"box" : 				{
					"maxclass" : "inlet",
					"id" : "obj-2",
					"patching_rect" : [ 94.0, 44.0, 25.0, 25.0 ],
					"numinlets" : 0,
					"numoutlets" : 1,
					"outlettype" : [ "" ],
					"comment" : ""
				}

			}
, 			{
				"box" : 				{
					"maxclass" : "newobj",
					"text" : "prepend param",
					"id" : "obj-21",
					"fontsize" : 12.0,
					"patching_rect" : [ 236.0, 257.0, 92.0, 20.0 ],
					"numinlets" : 1,
					"numoutlets" : 1,
					"fontname" : "Arial",
					"outlettype" : [ "" ]
				}

			}
, 			{
				"box" : 				{
					"maxclass" : "newobj",
					"text" : "prepend d",
					"id" : "obj-17",
					"fontsize" : 12.0,
					"patching_rect" : [ 617.0, 219.0, 65.0, 20.0 ],
					"numinlets" : 1,
					"numoutlets" : 1,
					"fontname" : "Arial",
					"outlettype" : [ "" ]
				}

			}
, 			{
				"box" : 				{
					"maxclass" : "newobj",
					"text" : "prepend c",
					"id" : "obj-11",
					"fontsize" : 12.0,
					"patching_rect" : [ 518.0, 222.0, 64.0, 20.0 ],
					"numinlets" : 1,
					"numoutlets" : 1,
					"fontname" : "Arial",
					"outlettype" : [ "" ]
				}

			}
, 			{
				"box" : 				{
					"maxclass" : "newobj",
					"text" : "prepend a",
					"id" : "obj-7",
					"fontsize" : 12.0,
					"patching_rect" : [ 378.0, 221.0, 65.0, 20.0 ],
					"numinlets" : 1,
					"numoutlets" : 1,
					"fontname" : "Arial",
					"outlettype" : [ "" ]
				}

			}
, 			{
				"box" : 				{
					"maxclass" : "newobj",
					"text" : "prepend b",
					"id" : "obj-6",
					"fontsize" : 12.0,
					"patching_rect" : [ 237.0, 220.0, 65.0, 20.0 ],
					"numinlets" : 1,
					"numoutlets" : 1,
					"fontname" : "Arial",
					"outlettype" : [ "" ]
				}

			}
, 			{
				"box" : 				{
					"maxclass" : "outlet",
					"id" : "obj-5",
					"patching_rect" : [ 95.0, 411.0, 25.0, 25.0 ],
					"numinlets" : 1,
					"numoutlets" : 0,
					"comment" : ""
				}

			}
, 			{
				"box" : 				{
					"maxclass" : "message",
					"text" : "jit_gl_texture vk_sk",
					"id" : "obj-3",
					"fontsize" : 9.0,
					"patching_rect" : [ 251.0, 320.0, 87.0, 15.0 ],
					"numinlets" : 2,
					"numoutlets" : 1,
					"fontname" : "Arial",
					"outlettype" : [ "" ]
				}

			}
, 			{
				"box" : 				{
					"maxclass" : "newobj",
					"text" : "jit.gl.texture #1 @name #2_send_text",
					"id" : "obj-4",
					"fontsize" : 9.0,
					"patching_rect" : [ 477.0, 420.0, 162.0, 17.0 ],
					"numinlets" : 1,
					"numoutlets" : 2,
					"fontname" : "Arial",
					"outlettype" : [ "jit_gl_texture", "" ]
				}

			}
, 			{
				"box" : 				{
					"maxclass" : "message",
					"text" : "jit_gl_texture vk_fb",
					"id" : "obj-12",
					"fontsize" : 9.0,
					"patching_rect" : [ 564.25, 319.0, 86.0, 15.0 ],
					"numinlets" : 2,
					"numoutlets" : 1,
					"fontname" : "Arial",
					"outlettype" : [ "" ]
				}

			}
, 			{
				"box" : 				{
					"maxclass" : "message",
					"text" : "jit_gl_texture vk_alt",
					"id" : "obj-13",
					"fontsize" : 9.0,
					"patching_rect" : [ 408.25, 321.0, 88.0, 15.0 ],
					"numinlets" : 2,
					"numoutlets" : 1,
					"fontname" : "Arial",
					"outlettype" : [ "" ]
				}

			}
, 			{
				"box" : 				{
					"maxclass" : "message",
					"text" : "jit_gl_texture vk_vb",
					"id" : "obj-15",
					"fontsize" : 9.0,
					"patching_rect" : [ 96.25, 320.0, 88.0, 15.0 ],
					"numinlets" : 2,
					"numoutlets" : 1,
					"fontname" : "Arial",
					"outlettype" : [ "" ]
				}

			}
, 			{
				"box" : 				{
					"maxclass" : "newobj",
					"text" : "jit.gl.slab #1 @file 43j-fourwaymix.jxs @inputs 4",
					"id" : "obj-1",
					"fontsize" : 12.0,
					"patching_rect" : [ 95.0, 359.0, 488.0, 20.0 ],
					"numinlets" : 4,
					"numoutlets" : 2,
					"fontname" : "Arial",
					"outlettype" : [ "jit_gl_texture", "" ]
				}

			}
 ],
		"lines" : [ 			{
				"patchline" : 				{
					"source" : [ "obj-24", 0 ],
					"destination" : [ "obj-23", 0 ],
					"hidden" : 0,
					"midpoints" : [  ]
				}

			}
, 			{
				"patchline" : 				{
					"source" : [ "obj-19", 0 ],
					"destination" : [ "obj-24", 0 ],
					"hidden" : 0,
					"midpoints" : [  ]
				}

			}
, 			{
				"patchline" : 				{
					"source" : [ "obj-12", 0 ],
					"destination" : [ "obj-1", 3 ],
					"hidden" : 0,
					"midpoints" : [  ]
				}

			}
, 			{
				"patchline" : 				{
					"source" : [ "obj-13", 0 ],
					"destination" : [ "obj-1", 2 ],
					"hidden" : 0,
					"midpoints" : [  ]
				}

			}
, 			{
				"patchline" : 				{
					"source" : [ "obj-3", 0 ],
					"destination" : [ "obj-1", 1 ],
					"hidden" : 0,
					"midpoints" : [ 260.5, 339.0, 260.833344, 339.0 ]
				}

			}
, 			{
				"patchline" : 				{
					"source" : [ "obj-15", 0 ],
					"destination" : [ "obj-1", 0 ],
					"hidden" : 0,
					"midpoints" : [  ]
				}

			}
, 			{
				"patchline" : 				{
					"source" : [ "obj-1", 0 ],
					"destination" : [ "obj-4", 0 ],
					"hidden" : 0,
					"midpoints" : [ 104.5, 392.0, 486.5, 392.0 ]
				}

			}
, 			{
				"patchline" : 				{
					"source" : [ "obj-1", 0 ],
					"destination" : [ "obj-5", 0 ],
					"hidden" : 0,
					"midpoints" : [  ]
				}

			}
, 			{
				"patchline" : 				{
					"source" : [ "obj-21", 0 ],
					"destination" : [ "obj-1", 0 ],
					"hidden" : 0,
					"midpoints" : [ 245.5, 349.0, 104.5, 349.0 ]
				}

			}
, 			{
				"patchline" : 				{
					"source" : [ "obj-20", 0 ],
					"destination" : [ "obj-12", 0 ],
					"hidden" : 0,
					"midpoints" : [ 105.5, 307.5, 573.75, 307.5 ]
				}

			}
, 			{
				"patchline" : 				{
					"source" : [ "obj-20", 0 ],
					"destination" : [ "obj-13", 0 ],
					"hidden" : 0,
					"midpoints" : [ 105.5, 308.5, 417.75, 308.5 ]
				}

			}
, 			{
				"patchline" : 				{
					"source" : [ "obj-20", 0 ],
					"destination" : [ "obj-3", 0 ],
					"hidden" : 0,
					"midpoints" : [ 105.5, 308.0, 260.5, 308.0 ]
				}

			}
, 			{
				"patchline" : 				{
					"source" : [ "obj-20", 0 ],
					"destination" : [ "obj-15", 0 ],
					"hidden" : 0,
					"midpoints" : [  ]
				}

			}
, 			{
				"patchline" : 				{
					"source" : [ "obj-17", 0 ],
					"destination" : [ "obj-21", 0 ],
					"hidden" : 0,
					"midpoints" : [ 626.5, 254.0, 245.5, 254.0 ]
				}

			}
, 			{
				"patchline" : 				{
					"source" : [ "obj-11", 0 ],
					"destination" : [ "obj-21", 0 ],
					"hidden" : 0,
					"midpoints" : [ 527.5, 254.0, 245.5, 254.0 ]
				}

			}
, 			{
				"patchline" : 				{
					"source" : [ "obj-7", 0 ],
					"destination" : [ "obj-21", 0 ],
					"hidden" : 0,
					"midpoints" : [ 387.5, 254.0, 245.5, 254.0 ]
				}

			}
, 			{
				"patchline" : 				{
					"source" : [ "obj-6", 0 ],
					"destination" : [ "obj-21", 0 ],
					"hidden" : 0,
					"midpoints" : [ 246.5, 242.0, 245.5, 242.0 ]
				}

			}
, 			{
				"patchline" : 				{
					"source" : [ "obj-9", 0 ],
					"destination" : [ "obj-19", 0 ],
					"hidden" : 0,
					"midpoints" : [ 515.5, 30.5, 515.5, 30.5 ]
				}

			}
, 			{
				"patchline" : 				{
					"source" : [ "obj-19", 1 ],
					"destination" : [ "obj-22", 0 ],
					"hidden" : 0,
					"midpoints" : [  ]
				}

			}
, 			{
				"patchline" : 				{
					"source" : [ "obj-22", 0 ],
					"destination" : [ "obj-23", 1 ],
					"hidden" : 0,
					"midpoints" : [  ]
				}

			}
, 			{
				"patchline" : 				{
					"source" : [ "obj-8", 0 ],
					"destination" : [ "obj-20", 0 ],
					"hidden" : 0,
					"midpoints" : [  ]
				}

			}
, 			{
				"patchline" : 				{
					"source" : [ "obj-23", 0 ],
					"destination" : [ "obj-14", 0 ],
					"hidden" : 0,
					"midpoints" : [  ]
				}

			}
, 			{
				"patchline" : 				{
					"source" : [ "obj-28", 1 ],
					"destination" : [ "obj-32", 0 ],
					"hidden" : 0,
					"midpoints" : [ 140.5, 147.0, 708.5, 147.0 ]
				}

			}
, 			{
				"patchline" : 				{
					"source" : [ "obj-31", 0 ],
					"destination" : [ "obj-6", 0 ],
					"hidden" : 0,
					"midpoints" : [  ]
				}

			}
, 			{
				"patchline" : 				{
					"source" : [ "obj-33", 0 ],
					"destination" : [ "obj-7", 0 ],
					"hidden" : 0,
					"midpoints" : [  ]
				}

			}
, 			{
				"patchline" : 				{
					"source" : [ "obj-34", 0 ],
					"destination" : [ "obj-11", 0 ],
					"hidden" : 0,
					"midpoints" : [  ]
				}

			}
, 			{
				"patchline" : 				{
					"source" : [ "obj-35", 0 ],
					"destination" : [ "obj-17", 0 ],
					"hidden" : 0,
					"midpoints" : [  ]
				}

			}
, 			{
				"patchline" : 				{
					"source" : [ "obj-14", 0 ],
					"destination" : [ "obj-31", 0 ],
					"hidden" : 0,
					"midpoints" : [  ]
				}

			}
, 			{
				"patchline" : 				{
					"source" : [ "obj-14", 2 ],
					"destination" : [ "obj-33", 0 ],
					"hidden" : 0,
					"midpoints" : [  ]
				}

			}
, 			{
				"patchline" : 				{
					"source" : [ "obj-14", 3 ],
					"destination" : [ "obj-34", 0 ],
					"hidden" : 0,
					"midpoints" : [  ]
				}

			}
, 			{
				"patchline" : 				{
					"source" : [ "obj-14", 4 ],
					"destination" : [ "obj-35", 0 ],
					"hidden" : 0,
					"midpoints" : [  ]
				}

			}
, 			{
				"patchline" : 				{
					"source" : [ "obj-2", 0 ],
					"destination" : [ "obj-28", 0 ],
					"hidden" : 0,
					"midpoints" : [  ]
				}

			}
, 			{
				"patchline" : 				{
					"source" : [ "obj-28", 0 ],
					"destination" : [ "obj-8", 0 ],
					"hidden" : 0,
					"midpoints" : [  ]
				}

			}
, 			{
				"patchline" : 				{
					"source" : [ "obj-8", 1 ],
					"destination" : [ "obj-1", 0 ],
					"hidden" : 0,
					"midpoints" : [ 153.5, 202.0, 80.0, 202.0, 80.0, 346.0, 104.5, 346.0 ]
				}

			}
 ]
	}

}
